<svg width="34" height="34" viewBox="0 0 34 34" fill="none" xmlns="http://www.w3.org/2000/svg">
<path d="M0 16.4232C0 8.68124 0 4.81025 2.40513 2.40513C4.81025 0 8.68124 0 16.4232 0H17.5768C25.3188 0 29.1897 0 31.5949 2.40513C34 4.81025 34 8.68124 34 16.4232V17.5768C34 25.3188 34 29.1897 31.5949 31.5949C29.1897 34 25.3188 34 17.5768 34H16.4232C8.68124 34 4.81025 34 2.40513 31.5949C0 29.1897 0 25.3188 0 17.5768V16.4232Z" fill="#ED1C24" fill-opacity="0.1"/>
<g clip-path="url(#clip0_7_2400)">
<path d="M13.9194 16.4234C10.5229 16.4234 7.76072 13.6612 7.76072 10.2647C7.76072 6.86814 10.5229 4.10596 13.9194 4.10596C17.316 4.10596 20.0781 6.86814 20.0781 10.2647C20.0781 13.6612 17.316 16.4234 13.9194 16.4234ZM18.636 26.0772C17.8323 25.2734 17.8323 23.9657 18.636 23.162L20.0935 21.7045C20.8983 20.9008 22.206 20.9008 23.0087 21.7045L24.4662 20.2469C22.8588 18.6395 20.2434 18.6395 18.636 20.2469L17.1784 21.7045C15.571 23.3119 15.571 25.9263 17.1764 27.5327C17.1764 27.5327 17.1764 27.5337 17.1774 27.5347C18.7848 29.1421 21.4002 29.1421 23.0087 27.5347L23.4028 27.1406C22.556 27.0954 21.7184 26.8798 20.9455 26.4888C20.1859 26.8336 19.2601 26.7002 18.636 26.0761V26.0772ZM28.1111 16.603C26.5037 14.9956 23.8883 14.9956 22.2799 16.603L21.8857 16.9972C22.7325 17.0423 23.5701 17.2579 24.343 17.649C25.1026 17.3041 26.0285 17.4375 26.6526 18.0616C27.4552 18.8653 27.4552 20.173 26.6526 20.9767L25.195 22.4343C24.3903 23.238 23.0826 23.238 22.2799 22.4343L20.8223 23.8918C21.626 24.6955 22.6812 25.0969 23.7374 25.0969C24.7937 25.0969 25.8488 24.6955 26.6526 23.8918L28.1101 22.4343C29.7175 20.8269 29.7175 18.2115 28.1101 16.604L28.1111 16.603ZM15.727 20.2531L17.5028 18.4763H9.81362C6.97959 18.4763 4.68137 20.7745 4.68137 23.6085V28.7408H15.5258C13.3426 26.3173 13.3959 22.5841 15.727 20.2531Z" fill="#ED1C24"/>
</g>
<defs>
<clipPath id="clip0_7_2400">
<rect width="24.6357" height="24.634" fill="white" transform="translate(4.68216 4.10571)"/>
</clipPath>
</defs>
</svg>
