<svg width="35" height="35" viewBox="0 0 35 35" fill="none" xmlns="http://www.w3.org/2000/svg">
<rect x="0.000457764" width="34.2683" height="34.2659" rx="8.21161" fill="#ED1C24" fill-opacity="0.1"/>
<path d="M8.06329 10.7547C8.06329 6.55347 10.0208 4.59619 14.226 4.59619C18.4313 4.59619 20.3888 6.55347 20.3888 10.7547C20.3888 14.9559 18.4313 16.9132 14.226 16.9132C10.0208 16.9132 8.06329 14.9559 8.06329 10.7547ZM28.4149 16.5302C28.2637 16.4552 26.8967 15.7935 25.4221 15.7935C21.9485 15.7935 20.0257 17.7843 19.4364 18.9612C19.3198 19.1941 19.2593 19.4516 19.2593 19.7125V23.6618C17.6738 23.8107 17.0183 24.6326 17.0183 26.4297C17.0183 28.4296 17.8184 29.2291 19.8196 29.2291C21.8208 29.2291 22.6208 28.4296 22.6208 26.4297V20.2287C22.9648 19.8312 23.7917 19.1515 25.4221 19.1515C25.6036 19.1515 25.7963 19.1784 25.9823 19.2198V22.5409C24.3968 22.6898 23.7413 23.5117 23.7413 25.3089C23.7413 27.3087 24.5414 28.1082 26.5426 28.1082C28.5438 28.1082 29.3438 27.3087 29.3438 25.3089V18.0307C29.3438 17.3947 28.9841 16.8135 28.4149 16.528V16.5302ZM17.0183 22.0236V19.7114C17.0183 19.5994 17.0475 19.4897 17.0575 19.3788C16.1992 19.2321 15.2625 19.1515 14.2249 19.1515C7.80781 19.1515 4.8721 21.9049 4.70851 28.0802C4.70067 28.3825 4.81496 28.6737 5.02561 28.8909C5.23626 29.107 5.52647 29.2302 5.82789 29.2302H15.4093C15.0014 28.4721 14.7762 27.5439 14.7762 26.4297C14.7762 24.2944 15.5639 22.8041 17.0172 22.0236H17.0183Z" fill="#ED1C24"/>
</svg>
