<svg width="35" height="35" viewBox="0 0 35 35" fill="none" xmlns="http://www.w3.org/2000/svg">
<rect width="34.2683" height="34.2659" rx="8.21161" fill="#ED1C24" fill-opacity="0.1"/>
<path d="M21.5917 15.8869C21.1544 15.8869 20.7213 15.7709 20.3281 15.541C19.5459 15.0842 19.0799 14.2713 19.0799 13.366V7.11829C19.0799 6.213 19.5459 5.40009 20.3281 4.94334C21.1103 4.48864 22.0454 4.4794 22.8338 4.92281L28.0832 8.06053C28.8643 8.49984 29.3447 9.32096 29.3447 10.2427C29.3447 11.1644 28.8643 11.9855 28.0606 12.4382L22.8574 15.5482C22.455 15.775 22.0218 15.8869 21.5917 15.8869ZM17.027 8.58092L13.8131 6.97357C13.3871 6.7611 12.9118 6.64923 12.4366 6.64923H9.84162C7.01162 6.64923 4.70923 8.95146 4.70923 11.7813V12.8077H17.027V8.58092ZM13.9475 19.9925H10.8681C10.3025 19.9925 9.84162 20.4534 9.84162 21.0189V23.0717C9.84162 23.6373 10.3025 24.0981 10.8681 24.0981H13.9475C14.5131 24.0981 14.974 23.6373 14.974 23.0717V21.0189C14.974 20.4534 14.5131 19.9925 13.9475 19.9925ZM23.9105 17.2684C23.1643 17.6893 22.379 17.8976 21.5917 17.8976C20.789 17.8976 19.9935 17.681 19.2924 17.2715C18.3368 16.7131 17.65 15.8581 17.2969 14.8605H4.70923V24.0981C4.70923 26.932 7.00751 29.2302 9.84162 29.2302H24.2123C27.0464 29.2302 29.3447 26.932 29.3447 24.0981V14.8605H27.9374L23.9105 17.2684ZM20.1064 24.0807C20.1064 24.9398 19.1261 25.4294 18.4384 24.9141L16.9397 23.7676C16.6225 25.1297 15.4041 26.1499 13.9465 26.1499H10.8671C9.16928 26.1499 7.78764 24.7684 7.78764 23.0707V21.0179C7.78764 19.3202 9.16928 17.9387 10.8671 17.9387H13.9465C15.4062 17.9387 16.6246 18.961 16.9407 20.3261L18.4373 19.2032C19.1241 18.6879 20.1054 19.1786 20.1054 20.0366V24.0797L20.1064 24.0807Z" fill="#ED1C24"/>
</svg>
