<svg width="29" height="29" viewBox="0 0 29 29" fill="none" xmlns="http://www.w3.org/2000/svg">
<path d="M17.5801 15.654H19.1237C23.5033 15.654 27.0675 12.1433 27.0675 7.82698C27.0675 3.51118 23.5039 0 19.1237 0H1.5154C0.678304 0 0 0.668874 0 1.49311C0 2.31789 0.678858 2.98622 1.5154 2.98622H19.1242C21.833 2.98622 24.0367 5.15747 24.0367 7.82643C24.0367 10.4954 21.833 12.6666 19.1242 12.6666H17.5806C16.7435 12.6666 16.0652 13.3355 16.0652 14.1598C16.0652 14.984 16.7435 15.654 17.5801 15.654Z" fill="#F3B811"/>
<path d="M1.5154 0H19.1237C23.5039 0 27.0675 3.51118 27.0675 7.82698C27.0675 12.1433 23.5033 15.654 19.1237 15.654H17.5801C16.743 15.654 16.0649 14.9851 16.0649 14.1609C16.0649 13.3366 16.7437 12.6677 17.5803 12.6677H19.1239C21.8327 12.6677 24.0363 10.4965 24.0363 7.82753C24.0363 5.15857 21.8327 2.98731 19.1239 2.98731H1.51559C0.678502 2.98731 0.000197974 2.31844 0.000197974 1.4942C-0.000355293 0.668873 0.678304 0 1.5154 0Z" fill="#F3B811"/>
<path d="M9.19756 28.3219H26.8064C27.6435 28.3219 28.3218 27.653 28.3218 26.8288C28.3218 26.0046 27.6429 25.3357 26.8064 25.3357H9.19756C6.48876 25.3357 4.2851 23.1644 4.2851 20.4955C4.2851 17.8265 6.48876 15.6553 9.19756 15.6553H10.7412C11.5783 15.6553 12.2566 14.9864 12.2566 14.1622C12.2566 13.3379 11.5777 12.6691 10.7412 12.6691H9.19756C4.8179 12.6691 1.25375 16.1797 1.25375 20.496C1.25375 24.8113 4.81734 28.3219 9.19756 28.3219Z" fill="#F3B811"/>
<path d="M9.19756 12.6679H10.7412C11.5783 12.6679 12.2566 13.3367 12.2566 14.161C12.2566 14.9852 11.5777 15.6541 10.7412 15.6541H9.19756C6.48876 15.6541 4.2851 17.8253 4.2851 20.4943C4.2851 23.1627 6.48876 25.3345 9.19756 25.3345H26.8064C27.6435 25.3345 28.3218 26.0034 28.3218 26.8276C28.3218 27.6518 27.6429 28.3207 26.8064 28.3207H9.19756C4.8179 28.3207 1.25375 24.8101 1.25375 20.4937C1.25375 16.1785 4.81734 12.6679 9.19756 12.6679Z" fill="#F3B811"/>
<path d="M15.003 20.2372C15.3687 20.2372 15.7361 20.1075 16.0271 19.8442C16.644 19.2871 16.6855 18.3424 16.12 17.7345L7.58865 8.56926C7.02322 7.96035 6.06441 7.91946 5.44752 8.47822C4.83007 9.03534 4.78913 9.98006 5.35457 10.5879L13.8859 19.7532C14.1847 20.0748 14.593 20.2372 15.003 20.2372Z" fill="#F3B811"/>
<path d="M21.8424 20.237C22.2081 20.237 22.5755 20.1072 22.8665 19.8439C23.4839 19.2868 23.5249 18.3421 22.9594 17.7343L14.4281 8.56901C13.8621 7.96009 12.9038 7.91921 12.2869 8.47796C11.6695 9.03509 11.6285 9.9798 12.194 10.5876L20.7253 19.7529C21.0241 20.0745 21.4324 20.237 21.8424 20.237Z" fill="#F3B811"/>
</svg>
