<svg width="35" height="35" viewBox="0 0 35 35" fill="none" xmlns="http://www.w3.org/2000/svg">
<rect width="34.2683" height="34.2659" rx="8.21161" fill="#ED1C24" fill-opacity="0.1"/>
<g clip-path="url(#clip0_7_2419)">
<path d="M26.2618 13.4099H23.1824V9.81727C23.1824 8.9684 23.8732 8.2776 24.7221 8.2776H25.5196C25.8748 8.88834 26.5297 9.30405 27.2882 9.30405C28.4224 9.30405 29.3411 8.38537 29.3411 7.25115C29.3411 6.11692 28.4224 5.19824 27.2882 5.19824C26.5307 5.19824 25.8758 5.61395 25.5196 6.22469H24.7221C22.741 6.22469 21.1295 7.83622 21.1295 9.81727V13.4099H18.0501V9.07002C18.6609 8.71486 19.0766 8.05999 19.0766 7.30144C19.0766 6.16721 18.1579 5.24854 17.0237 5.24854C15.8895 5.24854 14.9708 6.16721 14.9708 7.30144C14.9708 8.05896 15.3865 8.71384 15.9972 9.07002V13.4099H9.83854C8.95681 13.4099 8.12231 13.028 7.54442 12.3844C8.10897 11.7542 8.9291 11.357 9.83854 11.357H12.9179C13.4855 11.357 13.9443 10.8971 13.9443 10.3305C13.9443 9.7639 13.4855 9.30405 12.9179 9.30405H9.83854C6.98705 9.29892 4.69499 11.6495 4.70628 14.4363V24.7008C4.70628 27.5307 7.00861 29.8331 9.83854 29.8331H26.2618C27.9595 29.8331 29.3411 28.4515 29.3411 26.7537V16.4892C29.3411 14.7915 27.9595 13.4099 26.2618 13.4099ZM23.6956 23.1611C22.8457 23.1611 22.156 22.4714 22.156 21.6215C22.156 20.7716 22.8457 20.0818 23.6956 20.0818C24.5455 20.0818 25.2353 20.7716 25.2353 21.6215C25.2353 22.4714 24.5455 23.1611 23.6956 23.1611Z" fill="#ED1C24"/>
</g>
<defs>
<clipPath id="clip0_7_2419">
<rect width="24.6357" height="24.634" fill="white" transform="translate(4.70721 5.198)"/>
</clipPath>
</defs>
</svg>
