<svg width="35" height="35" viewBox="0 0 35 35" fill="none" xmlns="http://www.w3.org/2000/svg">
<rect x="0.000610352" width="34.2683" height="34.2659" rx="8.21161" fill="#ED1C24" fill-opacity="0.1"/>
<g clip-path="url(#clip0_7_2428)">
<path d="M17.1351 18.7674V21.9084C17.1351 22.3169 16.8046 22.6474 16.3961 22.6474H13.2551C12.9564 22.6474 12.6865 22.4678 12.5725 22.1917C12.4576 21.9156 12.5212 21.5974 12.7327 21.3859L13.5969 20.5216C12.8733 19.9212 11.9546 19.5681 10.9764 19.5681C9.34331 19.5681 7.86625 20.535 7.2124 22.0316C6.98453 22.552 6.37995 22.7891 5.86056 22.5612C5.34118 22.3344 5.10407 21.7288 5.33091 21.2104C6.3122 18.9655 8.52831 17.5152 10.9764 17.5152C12.5099 17.5152 13.9521 18.0849 15.0576 19.061L15.8736 18.245C16.085 18.0335 16.4022 17.9709 16.6794 18.0849C16.9555 18.1988 17.1351 18.4687 17.1351 18.7674ZM16.0922 24.7866C15.5728 24.5577 14.9683 24.7958 14.7404 25.3162C14.0865 26.8128 12.6085 27.7797 10.9764 27.7797C9.99819 27.7797 9.07951 27.4266 8.35587 26.8261L9.22014 25.9618C9.43159 25.7504 9.49523 25.4332 9.38026 25.1561C9.26633 24.88 8.99637 24.7003 8.69767 24.7003H5.55673C5.14821 24.7003 4.81769 25.0308 4.81769 25.4394V28.5803C4.81769 28.879 4.99732 29.149 5.27343 29.2629C5.55057 29.3768 5.86775 29.3142 6.0792 29.1028L6.89523 28.2868C7.99969 29.2629 9.44185 29.8326 10.9764 29.8326C13.4255 29.8326 15.6416 28.3822 16.6219 26.1374C16.8487 25.618 16.6116 25.0124 16.0922 24.7866ZM29.4525 12.3829V22.6474C29.4525 24.3483 28.074 25.7268 26.3732 25.7268H18.9191C19.0884 25.0699 19.188 24.3842 19.188 23.6739V18.5416C19.188 16.8408 17.8095 15.4623 16.1087 15.4623H10.9764C8.5201 15.4623 6.32247 16.5462 4.81769 18.2552V10.33C4.81769 7.49598 7.11591 5.19775 9.94995 5.19775H28.4261C28.9937 5.19775 29.4525 5.6576 29.4525 6.22421C29.4525 6.79081 28.9937 7.25066 28.4261 7.25066H9.94995C9.03948 7.25066 8.21935 7.64789 7.65583 8.27813C8.23372 8.92172 9.06822 9.30356 9.94995 9.30356H26.3732C28.074 9.30356 29.4525 10.6821 29.4525 12.3829ZM26.3732 17.5152C26.3732 16.6653 25.6834 15.9755 24.8335 15.9755C23.9836 15.9755 23.2938 16.6653 23.2938 17.5152C23.2938 18.3651 23.9836 19.0548 24.8335 19.0548C25.6834 19.0548 26.3732 18.3651 26.3732 17.5152Z" fill="#ED1C24"/>
</g>
<defs>
<clipPath id="clip0_7_2428">
<rect width="24.6357" height="24.634" fill="white" transform="translate(4.81775 5.19775)"/>
</clipPath>
</defs>
</svg>
