<svg width="35" height="35" viewBox="0 0 35 35" fill="none" xmlns="http://www.w3.org/2000/svg">
<rect x="0.000915527" width="34.2683" height="34.2659" rx="8.21161" fill="#ED1C24" fill-opacity="0.1"/>
<g clip-path="url(#clip0_7_2437)">
<path d="M25.7503 13.3213C23.7692 13.3213 22.1577 14.9328 22.1577 16.9139C22.1577 18.8949 23.7692 20.5064 25.7503 20.5064C27.7313 20.5064 29.3428 18.8949 29.3428 16.9139C29.3428 14.9328 27.7313 13.3213 25.7503 13.3213ZM25.7503 18.4535C24.9014 18.4535 24.2106 17.7627 24.2106 16.9139C24.2106 16.065 24.9014 15.3742 25.7503 15.3742C26.5991 15.3742 27.2899 16.065 27.2899 16.9139C27.2899 17.7627 26.5991 18.4535 25.7503 18.4535ZM20.618 16.9139C20.618 18.8949 19.0065 20.5064 17.0254 20.5064C15.0444 20.5064 13.4328 18.8949 13.4328 16.9139C13.4328 14.9328 15.0444 13.3213 17.0254 13.3213C19.0065 13.3213 20.618 14.9328 20.618 16.9139ZM11.8932 16.9139C11.8932 18.8949 10.2816 20.5064 8.30059 20.5064C6.31954 20.5064 4.70801 18.8949 4.70801 16.9139C4.70801 14.9328 6.31954 13.3213 8.30059 13.3213C10.2816 13.3213 11.8932 14.9328 11.8932 16.9139Z" fill="#ED1C24"/>
</g>
<defs>
<clipPath id="clip0_7_2437">
<rect width="24.6357" height="24.634" fill="white" transform="translate(4.70801 4.59619)"/>
</clipPath>
</defs>
</svg>
