<svg width="35" height="35" viewBox="0 0 35 35" fill="none" xmlns="http://www.w3.org/2000/svg">
<rect width="34.4498" height="34.4474" rx="8.25512" fill="#ED9D23" fill-opacity="0.1"/>
<path d="M8.10487 10.8115C8.10487 6.58801 10.0728 4.62036 14.3003 4.62036C18.5278 4.62036 20.4957 6.58801 20.4957 10.8115C20.4957 15.035 18.5278 17.0026 14.3003 17.0026C10.0728 17.0026 8.10487 15.035 8.10487 10.8115ZM28.5643 16.6176C28.4123 16.5422 27.038 15.877 25.5556 15.877C22.0637 15.877 20.1307 17.8784 19.5382 19.0614C19.4211 19.2956 19.3602 19.5545 19.3602 19.8168V23.787C17.7663 23.9367 17.1074 24.7629 17.1074 26.5696C17.1074 28.58 17.9116 29.3837 19.9234 29.3837C21.9353 29.3837 22.7395 28.58 22.7395 26.5696V20.3357C23.0854 19.9361 23.9167 19.2528 25.5556 19.2528C25.7381 19.2528 25.9319 19.2798 26.1189 19.3215V22.6602C24.5249 22.8099 23.866 23.6361 23.866 25.4428C23.866 27.4532 24.6703 28.257 26.6821 28.257C28.6939 28.257 29.4982 27.4532 29.4982 25.4428V18.126C29.4982 17.4866 29.1366 16.9024 28.5643 16.6154V16.6176ZM17.1074 22.1401V19.8156C17.1074 19.7031 17.1366 19.5928 17.1468 19.4813C16.2839 19.3339 15.3422 19.2528 14.2991 19.2528C7.84804 19.2528 4.89677 22.0208 4.73231 28.2288C4.72443 28.5327 4.83933 28.8254 5.0511 29.0438C5.26287 29.261 5.55461 29.3849 5.85763 29.3849H15.4898C15.0798 28.6228 14.8534 27.6896 14.8534 26.5696C14.8534 24.423 15.6452 22.9247 17.1062 22.1401H17.1074Z" fill="#ED9D23"/>
</svg>
