<svg width="35" height="35" viewBox="0 0 35 35" fill="none" xmlns="http://www.w3.org/2000/svg">
<rect width="34.4498" height="34.4474" rx="8.25512" fill="#ED9D23" fill-opacity="0.1"/>
<g clip-path="url(#clip0_7_2556)">
<path d="M22.0413 15.0905C21.4376 15.6941 20.4563 15.6941 19.8526 15.0905C19.249 14.4868 19.249 13.5055 19.8526 12.9018C20.4563 12.2982 21.4376 12.2982 22.0413 12.9018C22.6449 13.5055 22.6449 14.4868 22.0413 15.0905ZM20.4315 5.22559V7.28937C24.4146 7.28937 27.6548 10.5305 27.6548 14.5126H29.7186C29.7186 9.39133 25.5518 5.22559 20.4315 5.22559ZM20.4315 8.8372V10.901C22.4231 10.901 24.0432 12.5211 24.0432 14.5126H26.1069C26.1069 11.3839 23.5613 8.8372 20.4315 8.8372ZM27.6548 18.6463C27.6486 23.7728 23.4942 27.9272 18.3678 27.9334H16.304C11.1775 27.9272 7.02316 23.7728 7.01697 18.6463H4.95319C4.96041 24.912 10.0383 29.9827 16.304 29.991H18.3678C24.6334 29.9837 29.7113 24.913 29.7186 18.6463H27.6548ZM20.9475 17.6083C18.9528 17.6083 17.3359 15.9913 17.3359 13.9967C17.3359 13.0143 17.7311 12.1258 18.3678 11.4747V5.30401C17.7012 5.20804 17.0108 5.19979 16.3102 5.29988C13.1361 5.75495 10.642 8.24283 10.1859 11.4169H14.2402V13.4869H10.1126V16.5764H14.2402V18.6463H10.1859C10.7524 22.5954 14.4136 25.3371 18.3616 24.7706C21.5357 24.3145 24.0297 21.8215 24.4858 18.6463L24.5591 16.5826V16.5764H23.4694C22.8183 17.2131 21.9298 17.6083 20.9475 17.6083Z" fill="#ED9D23"/>
</g>
<defs>
<clipPath id="clip0_7_2556">
<rect width="24.7662" height="24.7645" fill="white" transform="translate(4.953 5.2251)"/>
</clipPath>
</defs>
</svg>
