<svg width="35" height="35" viewBox="0 0 35 35" fill="none" xmlns="http://www.w3.org/2000/svg">
<rect x="0.000488281" width="34.4498" height="34.4474" rx="8.25512" fill="#ED9D23" fill-opacity="0.1"/>
<g clip-path="url(#clip0_7_2564)">
<path d="M25.3697 12.8757C23.0934 12.8757 21.2422 11.0245 21.2422 8.74817C21.2422 6.47182 23.0934 4.62061 25.3697 4.62061C27.6461 4.62061 29.4973 6.47182 29.4973 8.74817C29.4973 11.0245 27.6461 12.8757 25.3697 12.8757ZM14.0189 15.9714H10.9233C10.3547 15.9714 9.89139 16.4337 9.89139 17.0033V19.0671C9.89139 19.6367 10.3547 20.099 10.9233 20.099H14.0189C14.5875 20.099 15.0508 19.6367 15.0508 19.0671V17.0033C15.0508 16.4337 14.5875 15.9714 14.0189 15.9714ZM25.3697 14.9395C21.9562 14.9395 19.1784 12.1627 19.1784 8.74817C19.1784 8.02378 19.3094 7.33138 19.5396 6.68439H9.89139C7.04646 6.68439 4.73193 8.99892 4.73193 11.8438V20.099C4.73193 22.9439 7.04646 25.2584 9.89139 25.2584H16.0827V27.3222H11.9552C11.3856 27.3222 10.9233 27.7834 10.9233 28.3541C10.9233 28.9247 11.3856 29.386 11.9552 29.386H22.2741C22.8437 29.386 23.306 28.9247 23.306 28.3541C23.306 27.7834 22.8437 27.3222 22.2741 27.3222H18.1465V25.2584H24.3378C27.1828 25.2584 29.4973 22.9439 29.4973 20.099V13.3504C28.4004 14.3348 26.9558 14.9395 25.3697 14.9395ZM20.2103 20.0814C20.2103 20.9451 19.2248 21.4373 18.5335 20.9193L17.0269 19.7667C16.7081 21.136 15.4832 22.1617 14.0179 22.1617H10.9222C9.2155 22.1617 7.82657 20.7728 7.82657 19.066V17.0023C7.82657 15.2955 9.2155 13.9066 10.9222 13.9066H14.0179C15.4853 13.9066 16.7101 14.9343 17.0279 16.3068L18.5324 15.1779C19.2228 14.6599 20.2093 15.1531 20.2093 16.0158V20.0804L20.2103 20.0814Z" fill="#ED9D23"/>
</g>
<defs>
<clipPath id="clip0_7_2564">
<rect width="24.7662" height="24.7645" fill="white" transform="translate(4.73193 4.62012)"/>
</clipPath>
</defs>
</svg>
