<svg width="35" height="35" viewBox="0 0 35 35" fill="none" xmlns="http://www.w3.org/2000/svg">
<rect width="34.4498" height="34.4474" rx="8.25512" fill="#ED9D23" fill-opacity="0.1"/>
<g clip-path="url(#clip0_7_2572)">
<path d="M20.6976 7.94693C18.7938 6.04309 16.1552 5.05351 13.4589 5.24957C8.78854 5.57977 4.84363 9.96118 4.84363 14.8183V20.0169C4.84363 22.1024 6.53799 23.7999 8.62138 23.7999H13.2412C18.5936 23.7999 23.0534 20.0159 23.3939 15.1846C23.5848 12.4883 22.6014 9.84974 20.6976 7.9459V7.94693ZM9.48713 16.0607C8.63273 16.0607 7.9393 15.3673 7.9393 14.5128C7.9393 13.6584 8.63273 12.965 9.48713 12.965C10.3415 12.965 11.035 13.6584 11.035 14.5128C11.035 15.3673 10.3415 16.0607 9.48713 16.0607ZM14.1306 16.0607C13.2762 16.0607 12.5828 15.3673 12.5828 14.5128C12.5828 13.6584 13.2762 12.965 14.1306 12.965C14.985 12.965 15.6785 13.6584 15.6785 14.5128C15.6785 15.3673 14.985 16.0607 14.1306 16.0607ZM18.7741 16.0607C17.9197 16.0607 17.2263 15.3673 17.2263 14.5128C17.2263 13.6584 17.9197 12.965 18.7741 12.965C19.6286 12.965 20.322 13.6584 20.322 14.5128C20.322 15.3673 19.6286 16.0607 18.7741 16.0607ZM29.609 21.7361V26.8955C29.609 28.6054 28.2232 29.9912 26.5133 29.9912H21.3539C18.3046 29.9912 15.6424 28.3247 14.2132 25.8595C14.2039 25.8461 14.1967 25.8347 14.1884 25.8213C20.1899 25.3921 25.0563 20.9436 25.4525 15.3301C25.4701 15.0835 25.4639 14.8379 25.4649 14.5923C25.469 14.5933 25.4732 14.5944 25.4773 14.5954C27.9425 16.0246 29.609 18.6868 29.609 21.7361Z" fill="#ED9D23"/>
</g>
<defs>
<clipPath id="clip0_7_2572">
<rect width="24.7662" height="24.7645" fill="white" transform="translate(4.84344 5.2251)"/>
</clipPath>
</defs>
</svg>
