<svg width="35" height="35" viewBox="0 0 35 35" fill="none" xmlns="http://www.w3.org/2000/svg">
<rect width="34.4498" height="34.4474" rx="8.25512" fill="#ED9D23" fill-opacity="0.1"/>
<g clip-path="url(#clip0_7_2581)">
<path d="M26.4028 13.4817H23.3071V9.87007C23.3071 9.0167 24.0016 8.32223 24.8549 8.32223H25.6567C26.0138 8.93621 26.6721 9.35412 27.4347 9.35412C28.5749 9.35412 29.4984 8.43058 29.4984 7.29034C29.4984 6.1501 28.5749 5.22656 27.4347 5.22656C26.6731 5.22656 26.0148 5.64448 25.6567 6.25845H24.8549C22.8634 6.25845 21.2433 7.87852 21.2433 9.87007V13.4817H18.1476V9.11885C18.7616 8.76182 19.1795 8.10347 19.1795 7.34091C19.1795 6.20067 18.256 5.27713 17.1158 5.27713C15.9755 5.27713 15.052 6.20067 15.052 7.34091C15.052 8.10244 15.4699 8.76079 16.0839 9.11885V13.4817H9.89253C9.00613 13.4817 8.16721 13.0978 7.58625 12.4508C8.15379 11.8172 8.97827 11.4179 9.89253 11.4179H12.9882C13.5588 11.4179 14.0201 10.9556 14.0201 10.386C14.0201 9.81641 13.5588 9.35412 12.9882 9.35412H9.89253C7.02593 9.34896 4.72172 11.712 4.73307 14.5136V24.8325C4.73307 27.6774 7.0476 29.9919 9.89253 29.9919H26.4028C28.1095 29.9919 29.4984 28.603 29.4984 26.8963V16.5774C29.4984 14.8706 28.1095 13.4817 26.4028 13.4817ZM23.823 23.2846C22.9686 23.2846 22.2752 22.5912 22.2752 21.7368C22.2752 20.8824 22.9686 20.189 23.823 20.189C24.6775 20.189 25.3709 20.8824 25.3709 21.7368C25.3709 22.5912 24.6775 23.2846 23.823 23.2846Z" fill="#ED9D23"/>
</g>
<defs>
<clipPath id="clip0_7_2581">
<rect width="24.7662" height="24.7645" fill="white" transform="translate(4.73303 5.22607)"/>
</clipPath>
</defs>
</svg>
