<svg width="35" height="35" viewBox="0 0 35 35" fill="none" xmlns="http://www.w3.org/2000/svg">
<rect width="34.4498" height="34.4474" rx="8.25512" fill="#ED9D23" fill-opacity="0.1"/>
<g clip-path="url(#clip0_7_2589)">
<path d="M17.2242 18.8677V22.0252C17.2242 22.4359 16.8919 22.7682 16.4812 22.7682H13.3236C13.0233 22.7682 12.752 22.5876 12.6374 22.31C12.5219 22.0325 12.5858 21.7126 12.7984 21.5L13.6672 20.6312C12.9398 20.0275 12.0162 19.6725 11.0328 19.6725C9.3911 19.6725 7.90621 20.6446 7.24889 22.1491C7.01981 22.6722 6.41203 22.9106 5.88989 22.6815C5.36776 22.4535 5.12939 21.8447 5.35744 21.3236C6.34392 19.0668 8.57177 17.6088 11.0328 17.6088C12.5745 17.6088 14.0243 18.1815 15.1356 19.1628L15.956 18.3424C16.1686 18.1299 16.4874 18.0669 16.766 18.1815C17.0436 18.296 17.2242 18.5674 17.2242 18.8677ZM16.1758 24.9187C15.6536 24.6886 15.0459 24.928 14.8168 25.4511C14.1595 26.9556 12.6735 27.9277 11.0328 27.9277C10.0494 27.9277 9.1259 27.5727 8.39842 26.969L9.26727 26.1002C9.47984 25.8876 9.54382 25.5688 9.42824 25.2901C9.3137 25.0126 9.04232 24.832 8.74204 24.832H5.58445C5.17376 24.832 4.84149 25.1643 4.84149 25.5749V28.7325C4.84149 29.0328 5.02207 29.3042 5.29965 29.4187C5.57826 29.5333 5.89712 29.4703 6.10968 29.2578L6.93004 28.4374C8.04035 29.4187 9.49016 29.9914 11.0328 29.9914C13.4949 29.9914 15.7228 28.5334 16.7082 26.2766C16.9363 25.7545 16.6979 25.1457 16.1758 24.9187ZM29.6069 12.4493V22.7682C29.6069 24.4781 28.221 25.8639 26.5112 25.8639H19.0176C19.1879 25.2035 19.288 24.5142 19.288 23.8001V18.6406C19.288 16.9308 17.9021 15.545 16.1923 15.545H11.0328C8.56352 15.545 6.35424 16.6347 4.84149 18.3527V10.3855C4.84149 7.53648 7.15189 5.22607 10.0009 5.22607H28.575C29.1456 5.22607 29.6069 5.68836 29.6069 6.25796C29.6069 6.82757 29.1456 7.28985 28.575 7.28985H10.0009C9.08566 7.28985 8.26118 7.6892 7.69467 8.32278C8.27562 8.96977 9.11455 9.35364 10.0009 9.35364H26.5112C28.221 9.35364 29.6069 10.7395 29.6069 12.4493ZM26.5112 17.6088C26.5112 16.7544 25.8178 16.0609 24.9634 16.0609C24.1089 16.0609 23.4155 16.7544 23.4155 17.6088C23.4155 18.4632 24.1089 19.1566 24.9634 19.1566C25.8178 19.1566 26.5112 18.4632 26.5112 17.6088Z" fill="#ED9D23"/>
</g>
<defs>
<clipPath id="clip0_7_2589">
<rect width="24.7662" height="24.7645" fill="white" transform="translate(4.84241 5.22559)"/>
</clipPath>
</defs>
</svg>
