<svg width="35" height="35" viewBox="0 0 35 35" fill="none" xmlns="http://www.w3.org/2000/svg">
<rect width="34.4498" height="34.4474" rx="8.25512" fill="#ED9D23" fill-opacity="0.1"/>
<g clip-path="url(#clip0_7_2597)">
<path d="M25.887 13.3916C23.8955 13.3916 22.2754 15.0117 22.2754 17.0032C22.2754 18.9948 23.8955 20.6148 25.887 20.6148C27.8786 20.6148 29.4986 18.9948 29.4986 17.0032C29.4986 15.0117 27.8786 13.3916 25.887 13.3916ZM25.887 18.5511C25.0337 18.5511 24.3392 17.8566 24.3392 17.0032C24.3392 16.1498 25.0337 15.4554 25.887 15.4554C26.7404 15.4554 27.4349 16.1498 27.4349 17.0032C27.4349 17.8566 26.7404 18.5511 25.887 18.5511ZM20.7276 17.0032C20.7276 18.9948 19.1075 20.6148 17.116 20.6148C15.1244 20.6148 13.5043 18.9948 13.5043 17.0032C13.5043 15.0117 15.1244 13.3916 17.116 13.3916C19.1075 13.3916 20.7276 15.0117 20.7276 17.0032ZM11.9565 17.0032C11.9565 18.9948 10.3364 20.6148 8.34489 20.6148C6.35334 20.6148 4.73328 18.9948 4.73328 17.0032C4.73328 15.0117 6.35334 13.3916 8.34489 13.3916C10.3364 13.3916 11.9565 15.0117 11.9565 17.0032Z" fill="#ED9D23"/>
</g>
<defs>
<clipPath id="clip0_7_2597">
<rect width="24.7662" height="24.7645" fill="white" transform="translate(4.73328 4.62061)"/>
</clipPath>
</defs>
</svg>
