<svg width="35" height="35" viewBox="0 0 35 35" fill="none" xmlns="http://www.w3.org/2000/svg">
<rect width="34.4498" height="34.4474" rx="8.25512" fill="#1BC469" fill-opacity="0.1"/>
<g clip-path="url(#clip0_7_2661)">
<path d="M14.0191 17.0028C10.6045 17.0028 7.82773 14.226 7.82773 10.8115C7.82773 7.39693 10.6045 4.62012 14.0191 4.62012C17.4336 4.62012 20.2104 7.39693 20.2104 10.8115C20.2104 14.226 17.4336 17.0028 14.0191 17.0028ZM18.7606 26.7077C17.9526 25.8998 17.9526 24.5851 18.7606 23.7772L20.2259 22.3119C21.0349 21.5039 22.3495 21.5039 23.1565 22.3119L24.6217 20.8466C23.0058 19.2307 20.3765 19.2307 18.7606 20.8466L17.2953 22.3119C15.6794 23.9278 15.6794 26.556 17.2933 28.1709C17.2933 28.1709 17.2933 28.172 17.2943 28.173C18.9102 29.789 21.5395 29.789 23.1565 28.173L23.5527 27.7768C22.7014 27.7314 21.8594 27.5147 21.0824 27.1215C20.3188 27.4682 19.388 27.3341 18.7606 26.7067V26.7077ZM28.286 17.1834C26.67 15.5674 24.0408 15.5674 22.4238 17.1834L22.0276 17.5796C22.8789 17.625 23.7209 17.8417 24.4979 18.2349C25.2615 17.8882 26.1923 18.0223 26.8197 18.6497C27.6266 19.4577 27.6266 20.7723 26.8197 21.5803L25.3544 23.0456C24.5454 23.8535 23.2308 23.8535 22.4238 23.0456L20.9585 24.5108C21.7665 25.3188 22.8273 25.7223 23.8891 25.7223C24.9509 25.7223 26.0117 25.3188 26.8197 24.5108L28.285 23.0456C29.9009 21.4296 29.9009 18.8004 28.285 17.1844L28.286 17.1834ZM15.8362 20.8528L17.6214 19.0666H9.89151C7.04246 19.0666 4.73206 21.377 4.73206 24.226V29.3855H15.634C13.4391 26.9492 13.4928 23.1962 15.8362 20.8528Z" fill="#1BC469"/>
</g>
<defs>
<clipPath id="clip0_7_2661">
<rect width="24.7662" height="24.7645" fill="white" transform="translate(4.73303 4.62012)"/>
</clipPath>
</defs>
</svg>
