<svg width="35" height="35" viewBox="0 0 35 35" fill="none" xmlns="http://www.w3.org/2000/svg">
<rect width="34.4498" height="34.4474" rx="8.25512" fill="#1BC469" fill-opacity="0.1"/>
<path d="M21.7052 15.9706C21.2656 15.9706 20.8301 15.854 20.4349 15.6229C19.6486 15.1637 19.1801 14.3465 19.1801 13.4364V7.15558C19.1801 6.2455 19.6486 5.42827 20.4349 4.9691C21.2212 4.512 22.1613 4.50271 22.9538 4.94847L28.2311 8.10282C29.0163 8.54445 29.4993 9.36992 29.4993 10.2965C29.4993 11.2231 29.0163 12.0486 28.2084 12.5036L22.9776 15.6301C22.5731 15.8582 22.1376 15.9706 21.7052 15.9706ZM17.1163 8.62596L13.8853 7.01009C13.4571 6.7965 12.9793 6.68403 12.5015 6.68403H9.89286C7.04787 6.68403 4.73328 8.99846 4.73328 11.8433V12.8751H17.1163V8.62596ZM14.0205 20.098H10.9248C10.3562 20.098 9.89286 20.5613 9.89286 21.1299V23.1936C9.89286 23.7621 10.3562 24.2254 10.9248 24.2254H14.0205C14.5891 24.2254 15.0524 23.7621 15.0524 23.1936V21.1299C15.0524 20.5613 14.5891 20.098 14.0205 20.098ZM24.0363 17.3595C23.2861 17.7826 22.4967 17.992 21.7052 17.992C20.8983 17.992 20.0985 17.7743 19.3937 17.3626C18.433 16.8013 17.7427 15.9417 17.3877 14.9388H4.73328V24.2254C4.73328 27.0743 7.04374 29.3846 9.89286 29.3846H24.3397C27.1888 29.3846 29.4993 27.0743 29.4993 24.2254V14.9388H28.0845L24.0363 17.3595ZM20.212 24.2079C20.212 25.0715 19.2266 25.5637 18.5352 25.0457L17.0286 23.8931C16.7097 25.2624 15.4848 26.2881 14.0195 26.2881H10.9237C9.21696 26.2881 7.828 24.8992 7.828 23.1925V21.1288C7.828 19.4222 9.21696 18.0333 10.9237 18.0333H14.0195C15.4869 18.0333 16.7118 19.061 17.0296 20.4334L18.5341 19.3045C19.2245 18.7865 20.211 19.2798 20.211 20.1424V24.2068L20.212 24.2079Z" fill="#1BC469"/>
</svg>
