<svg width="35" height="35" viewBox="0 0 35 35" fill="none" xmlns="http://www.w3.org/2000/svg">
<rect width="34.4498" height="34.4474" rx="8.25512" fill="#1BC469" fill-opacity="0.1"/>
<g clip-path="url(#clip0_7_2683)">
<path d="M22.0412 15.0905C21.4376 15.6941 20.4562 15.6941 19.8526 15.0905C19.2489 14.4868 19.2489 13.5055 19.8526 12.9018C20.4562 12.2982 21.4376 12.2982 22.0412 12.9018C22.6449 13.5055 22.6449 14.4868 22.0412 15.0905ZM20.4315 5.22559V7.28937C24.4146 7.28937 27.6547 10.5305 27.6547 14.5126H29.7185C29.7185 9.39133 25.5517 5.22559 20.4315 5.22559ZM20.4315 8.8372V10.901C22.423 10.901 24.0431 12.5211 24.0431 14.5126H26.1069C26.1069 11.3839 23.5612 8.8372 20.4315 8.8372ZM27.6547 18.6463C27.6485 23.7728 23.4941 27.9272 18.3677 27.9334H16.3039C11.1775 27.9272 7.0231 23.7728 7.01691 18.6463H4.95312C4.96035 24.912 10.0383 29.9827 16.3039 29.991H18.3677C24.6333 29.9837 29.7113 24.913 29.7185 18.6463H27.6547ZM20.9474 17.6083C18.9528 17.6083 17.3358 15.9913 17.3358 13.9967C17.3358 13.0143 17.731 12.1258 18.3677 11.4747V5.30401C17.7011 5.20804 17.0108 5.19979 16.3101 5.29988C13.136 5.75495 10.6419 8.24283 10.1858 11.4169H14.2401V13.4869H10.1126V16.5764H14.2401V18.6463H10.1858C10.7523 22.5954 14.4135 25.3371 18.3615 24.7706C21.5356 24.3145 24.0297 21.8215 24.4858 18.6463L24.559 16.5826V16.5764H23.4694C22.8182 17.2131 21.9298 17.6083 20.9474 17.6083Z" fill="#1BC469"/>
</g>
<defs>
<clipPath id="clip0_7_2683">
<rect width="24.7662" height="24.7645" fill="white" transform="translate(4.953 5.2251)"/>
</clipPath>
</defs>
</svg>
