<svg width="35" height="35" viewBox="0 0 35 35" fill="none" xmlns="http://www.w3.org/2000/svg">
<rect x="0.000488281" width="34.4498" height="34.4474" rx="8.25512" fill="#1BC469" fill-opacity="0.1"/>
<g clip-path="url(#clip0_7_2691)">
<path d="M25.3699 12.8757C23.0935 12.8757 21.2423 11.0245 21.2423 8.74817C21.2423 6.47182 23.0935 4.62061 25.3699 4.62061C27.6462 4.62061 29.4974 6.47182 29.4974 8.74817C29.4974 11.0245 27.6462 12.8757 25.3699 12.8757ZM14.0191 15.9714H10.9234C10.3548 15.9714 9.89151 16.4337 9.89151 17.0033V19.0671C9.89151 19.6367 10.3548 20.099 10.9234 20.099H14.0191C14.5876 20.099 15.051 19.6367 15.051 19.0671V17.0033C15.051 16.4337 14.5876 15.9714 14.0191 15.9714ZM25.3699 14.9395C21.9564 14.9395 19.1785 12.1627 19.1785 8.74817C19.1785 8.02378 19.3096 7.33138 19.5397 6.68439H9.89151C7.04659 6.68439 4.73206 8.99892 4.73206 11.8438V20.099C4.73206 22.9439 7.04659 25.2584 9.89151 25.2584H16.0828V27.3222H11.9553C11.3857 27.3222 10.9234 27.7834 10.9234 28.3541C10.9234 28.9247 11.3857 29.386 11.9553 29.386H22.2742C22.8438 29.386 23.3061 28.9247 23.3061 28.3541C23.3061 27.7834 22.8438 27.3222 22.2742 27.3222H18.1466V25.2584H24.338C27.1829 25.2584 29.4974 22.9439 29.4974 20.099V13.3504C28.4005 14.3348 26.9559 14.9395 25.3699 14.9395ZM20.2104 20.0814C20.2104 20.9451 19.225 21.4373 18.5336 20.9193L17.027 19.7667C16.7082 21.136 15.4833 22.1617 14.018 22.1617H10.9224C9.21562 22.1617 7.82669 20.7728 7.82669 19.066V17.0023C7.82669 15.2955 9.21562 13.9066 10.9224 13.9066H14.018C15.4854 13.9066 16.7102 14.9343 17.0281 16.3068L18.5326 15.1779C19.2229 14.6599 20.2094 15.1531 20.2094 16.0158V20.0804L20.2104 20.0814Z" fill="#1BC469"/>
</g>
<defs>
<clipPath id="clip0_7_2691">
<rect width="24.7662" height="24.7645" fill="white" transform="translate(4.73206 4.62012)"/>
</clipPath>
</defs>
</svg>
