<svg width="35" height="35" viewBox="0 0 35 35" fill="none" xmlns="http://www.w3.org/2000/svg">
<rect width="34.4498" height="34.4474" rx="8.25512" fill="#1BC469" fill-opacity="0.1"/>
<g clip-path="url(#clip0_7_2699)">
<path d="M20.6975 7.94693C18.7936 6.04309 16.1551 5.05351 13.4588 5.24957C8.78842 5.57977 4.84351 9.96118 4.84351 14.8183V20.0169C4.84351 22.1024 6.53787 23.7999 8.62126 23.7999H13.241C18.5934 23.7999 23.0533 20.0159 23.3938 15.1846C23.5847 12.4883 22.6013 9.84974 20.6975 7.9459V7.94693ZM9.48701 16.0607C8.63261 16.0607 7.93918 15.3673 7.93918 14.5128C7.93918 13.6584 8.63261 12.965 9.48701 12.965C10.3414 12.965 11.0348 13.6584 11.0348 14.5128C11.0348 15.3673 10.3414 16.0607 9.48701 16.0607ZM14.1305 16.0607C13.2761 16.0607 12.5827 15.3673 12.5827 14.5128C12.5827 13.6584 13.2761 12.965 14.1305 12.965C14.9849 12.965 15.6784 13.6584 15.6784 14.5128C15.6784 15.3673 14.9849 16.0607 14.1305 16.0607ZM18.774 16.0607C17.9196 16.0607 17.2262 15.3673 17.2262 14.5128C17.2262 13.6584 17.9196 12.965 18.774 12.965C19.6284 12.965 20.3219 13.6584 20.3219 14.5128C20.3219 15.3673 19.6284 16.0607 18.774 16.0607ZM29.6089 21.7361V26.8955C29.6089 28.6054 28.223 29.9912 26.5132 29.9912H21.3538C18.3045 29.9912 15.6422 28.3247 14.2131 25.8595C14.2038 25.8461 14.1966 25.8347 14.1883 25.8213C20.1898 25.3921 25.0562 20.9436 25.4524 15.3301C25.47 15.0835 25.4638 14.8379 25.4648 14.5923C25.4689 14.5933 25.4731 14.5944 25.4772 14.5954C27.9424 16.0246 29.6089 18.6868 29.6089 21.7361Z" fill="#1BC469"/>
</g>
<defs>
<clipPath id="clip0_7_2699">
<rect width="24.7662" height="24.7645" fill="white" transform="translate(4.84338 5.2251)"/>
</clipPath>
</defs>
</svg>
