<svg width="35" height="35" viewBox="0 0 35 35" fill="none" xmlns="http://www.w3.org/2000/svg">
<rect width="34.4498" height="34.4474" rx="8.25512" fill="#1BC469" fill-opacity="0.1"/>
<g clip-path="url(#clip0_7_2716)">
<path d="M17.2242 18.8677V22.0252C17.2242 22.4359 16.892 22.7682 16.4813 22.7682H13.3237C13.0234 22.7682 12.752 22.5876 12.6375 22.31C12.5219 22.0325 12.5859 21.7126 12.7985 21.5L13.6673 20.6312C12.9398 20.0275 12.0163 19.6725 11.0329 19.6725C9.39116 19.6725 7.90627 20.6446 7.24895 22.1491C7.01987 22.6722 6.41209 22.9106 5.88995 22.6815C5.36782 22.4535 5.12945 21.8447 5.3575 21.3236C6.34398 19.0668 8.57184 17.6088 11.0329 17.6088C12.5745 17.6088 14.0243 18.1815 15.1357 19.1628L15.956 18.3424C16.1686 18.1299 16.4875 18.0669 16.7661 18.1815C17.0437 18.296 17.2242 18.5674 17.2242 18.8677ZM16.1758 24.9187C15.6537 24.6886 15.0459 24.928 14.8168 25.4511C14.1595 26.9556 12.6736 27.9277 11.0329 27.9277C10.0495 27.9277 9.12596 27.5727 8.39848 26.969L9.26733 26.1002C9.4799 25.8876 9.54388 25.5688 9.42831 25.2901C9.31377 25.0126 9.04238 24.832 8.7421 24.832H5.58451C5.17382 24.832 4.84155 25.1643 4.84155 25.5749V28.7325C4.84155 29.0328 5.02213 29.3042 5.29971 29.4187C5.57832 29.5333 5.89718 29.4703 6.10975 29.2578L6.9301 28.4374C8.04041 29.4187 9.49022 29.9914 11.0329 29.9914C13.495 29.9914 15.7228 28.5334 16.7083 26.2766C16.9363 25.7545 16.698 25.1457 16.1758 24.9187ZM29.6069 12.4493V22.7682C29.6069 24.4781 28.2211 25.8639 26.5112 25.8639H19.0177C19.1879 25.2035 19.288 24.5142 19.288 23.8001V18.6406C19.288 16.9308 17.9022 15.545 16.1923 15.545H11.0329C8.56358 15.545 6.3543 16.6347 4.84155 18.3527V10.3855C4.84155 7.53648 7.15196 5.22607 10.001 5.22607H28.575C29.1457 5.22607 29.6069 5.68836 29.6069 6.25796C29.6069 6.82757 29.1457 7.28985 28.575 7.28985H10.001C9.08572 7.28985 8.26124 7.6892 7.69473 8.32278C8.27568 8.96977 9.11461 9.35364 10.001 9.35364H26.5112C28.2211 9.35364 29.6069 10.7395 29.6069 12.4493ZM26.5112 17.6088C26.5112 16.7544 25.8178 16.0609 24.9634 16.0609C24.109 16.0609 23.4156 16.7544 23.4156 17.6088C23.4156 18.4632 24.109 19.1566 24.9634 19.1566C25.8178 19.1566 26.5112 18.4632 26.5112 17.6088Z" fill="#1BC469"/>
</g>
<defs>
<clipPath id="clip0_7_2716">
<rect width="24.7662" height="24.7645" fill="white" transform="translate(4.84241 5.22559)"/>
</clipPath>
</defs>
</svg>
