<svg width="22" height="22" viewBox="0 0 22 22" fill="none" xmlns="http://www.w3.org/2000/svg">
<rect width="22" height="22" rx="3.23529" fill="#1BC469"/>
<mask id="mask0_7_43445" style="mask-type:alpha" maskUnits="userSpaceOnUse" x="5" y="3" width="12" height="2">
<rect x="5.17511" y="3.88232" width="11.6471" height="1.11695" rx="0.558473" fill="#F3B811"/>
</mask>
<g mask="url(#mask0_7_43445)">
<path d="M5.17511 3.88232H9.48452V8.07088V10.0255H9.39536C7.76978 10.0255 6.22644 9.31072 5.17511 8.07088V3.88232Z" fill="#E52021"/>
<rect x="9.48523" y="3.88232" width="3.02823" height="6.14321" fill="#F7F7F7"/>
<path d="M12.5107 3.88232H16.8202V8.07088C15.7688 9.31072 14.2255 10.0255 12.5999 10.0255H12.5107V8.07088V3.88232Z" fill="#268A42"/>
<rect x="5.17511" y="3.88232" width="11.6471" height="1.11695" rx="0.558473" fill="black" fill-opacity="0.05"/>
</g>
<path d="M9.48145 9.16504L9.47266 9.16309C8.97987 9.03669 8.45485 9.27851 8.25098 9.72559L8.11816 10.0166C8.09868 10.0594 8.06845 10.0968 8.03027 10.126C7.99203 10.1551 7.94651 10.175 7.89844 10.1836L7.57324 10.2432C7.48253 10.2595 7.39567 10.286 7.31543 10.3232C7.06264 10.1008 6.84139 9.83862 6.66406 9.54102L6.45312 9.1875V4.99902H9.48145V9.16504Z" fill="#E52021"/>
<path d="M12.5145 9.16528L12.205 9.24536C12.1579 9.25747 12.108 9.2586 12.0604 9.24829C12.0127 9.23788 11.9676 9.21633 11.9305 9.18579L11.6796 8.97876C11.293 8.66044 10.7097 8.66042 10.3231 8.97876L10.0721 9.18579C10.0352 9.21624 9.99075 9.23785 9.94324 9.24829C9.89566 9.25868 9.84585 9.25743 9.79871 9.24536L9.48621 9.16528V4.99927H12.5145V9.16528Z" fill="#F7F7F7"/>
<path d="M15.54 9.18774L15.3291 9.54224C15.1516 9.84005 14.9298 10.1019 14.6768 10.3245C14.5966 10.2873 14.5105 10.2597 14.4199 10.2434L14.0938 10.1838C14.046 10.1752 14.001 10.1561 13.9629 10.1272C13.9247 10.098 13.8945 10.0597 13.875 10.0168L13.7422 9.72583C13.5383 9.27864 13.0124 9.03671 12.5195 9.16333L12.5117 9.16528V4.99927H15.54V9.18774Z" fill="#268A42"/>
<path d="M11.0558 4.51807L11.1801 5.78316L11.6711 4.6029L11.4187 5.85033L12.2365 4.85053L11.6279 5.97924L12.7063 5.24088L11.7907 6.15944L13.0423 5.74235L11.894 6.37633L13.2174 6.3143L11.9294 6.61234L13.2174 6.91039L11.894 6.84835L13.0423 7.48234L11.7907 7.06524L12.7063 7.9838L11.6279 7.24544L12.2365 8.37416L11.4187 7.37435L11.6711 8.62179L11.1801 7.44153L11.0558 8.70662L10.9315 7.44153L10.4406 8.62179L10.693 7.37435L9.87517 8.37416L10.4838 7.24544L9.40541 7.9838L10.321 7.06524L9.06936 7.48234L10.2177 6.84835L8.89424 6.91039L10.1823 6.61234L8.89424 6.3143L10.2177 6.37633L9.06936 5.74235L10.321 6.15944L9.40541 5.24088L10.4838 5.97924L9.87517 4.85053L10.693 5.85033L10.4406 4.6029L10.9315 5.78316L11.0558 4.51807Z" fill="#F7B70F"/>
<path fill-rule="evenodd" clip-rule="evenodd" d="M15.3591 14.011C15.3387 13.9733 15.328 13.9313 15.328 13.8886C15.328 13.8458 15.3387 13.8038 15.3591 13.766L15.4973 13.5101C15.7101 13.1164 15.5945 12.6201 15.2285 12.3557L14.9906 12.1839C14.9555 12.1586 14.9273 12.1253 14.9084 12.0868C14.8895 12.0483 14.8805 12.0059 14.8821 11.9632L14.8934 11.6739C14.9107 11.2287 14.5868 10.8307 14.14 10.7481L13.8496 10.6945C13.8068 10.6866 13.7666 10.6685 13.7325 10.6419C13.6984 10.6153 13.6715 10.5809 13.6541 10.5417L13.5361 10.2762C13.3546 9.86777 12.8866 9.64686 12.4475 9.76249L12.1621 9.83762C12.12 9.84872 12.0758 9.84955 12.0333 9.84005C11.9908 9.83054 11.9513 9.811 11.9183 9.78311L11.6945 9.59406C11.3501 9.30328 10.8306 9.30328 10.4862 9.59406L10.2623 9.78311C10.2293 9.81099 10.1898 9.83054 10.1473 9.84004C10.1049 9.84954 10.0607 9.84871 10.0186 9.83762L9.73317 9.76249C9.29402 9.6469 8.82606 9.86777 8.6445 10.2762L8.52648 10.5417C8.50909 10.5809 8.48219 10.6153 8.44813 10.6419C8.41406 10.6685 8.37386 10.6866 8.33103 10.6945L8.04063 10.7481C7.59384 10.8307 7.26995 11.2287 7.28724 11.6739L7.29847 11.9632C7.30015 12.0059 7.29115 12.0483 7.27224 12.0868C7.25334 12.1253 7.22511 12.1586 7.19002 12.1839L6.95213 12.3558C6.58615 12.6201 6.47056 13.1164 6.68326 13.5101L6.82151 13.7661C6.84192 13.8038 6.85259 13.8459 6.85259 13.8886C6.85259 13.9313 6.84192 13.9733 6.82151 14.011L6.68326 14.267C6.47056 14.6607 6.58615 15.157 6.95213 15.4214L7.19 15.5932C7.22509 15.6185 7.25333 15.6518 7.27223 15.6903C7.29114 15.7288 7.30014 15.7712 7.29845 15.8139L7.28722 16.1033C7.26992 16.5485 7.59382 16.9465 8.0406 17.029L8.19288 17.0571L8.19291 17.0571L8.33097 17.0826C8.3738 17.0905 8.414 17.1085 8.44808 17.1352C8.48215 17.1618 8.50905 17.1962 8.52644 17.2353L8.64444 17.5008C8.82599 17.9093 9.29398 18.1302 9.73311 18.0146L10.0185 17.9394C10.0606 17.9284 10.1048 17.9275 10.1473 17.937C10.1898 17.9465 10.2292 17.9661 10.2622 17.994L10.4861 18.183C10.5047 18.1986 10.5239 18.2135 10.5438 18.2276L10.5437 18.2277L10.5438 18.2277C10.7053 18.3432 10.8978 18.4012 11.0903 18.4012C11.2799 18.4012 11.4694 18.3451 11.6294 18.2331L11.6294 18.233C11.6518 18.2173 11.6735 18.2006 11.6944 18.183L11.9183 17.994C11.9513 17.9661 11.9908 17.9465 12.0333 17.937C12.0757 17.9275 12.12 17.9284 12.162 17.9394L12.4474 18.0146C12.526 18.0352 12.6054 18.0451 12.684 18.0451C13.0447 18.0451 13.387 17.8362 13.5361 17.5008L13.6541 17.2353C13.6715 17.1962 13.6984 17.1618 13.7325 17.1351C13.7665 17.1085 13.8067 17.0905 13.8496 17.0826L13.9781 17.0588L13.9782 17.0589L13.9782 17.0589L14.14 17.029C14.5868 16.9464 14.9107 16.5485 14.8934 16.1032L14.8822 15.8139C14.8805 15.7712 14.8895 15.7288 14.9084 15.6903C14.9273 15.6518 14.9555 15.6185 14.9906 15.5932L15.2285 15.4214C15.5945 15.157 15.7101 14.6607 15.4974 14.267L15.3591 14.011Z" fill="#F3B811"/>
<ellipse cx="11.0888" cy="13.9122" rx="2.95096" ry="2.89166" fill="url(#paint0_linear_7_43445)"/>
<g filter="url(#filter0_i_7_43445)">
<path d="M13.1266 13.8366C13.2334 13.7346 13.2713 13.5849 13.2252 13.4458C13.1791 13.3067 13.0587 13.2074 12.9113 13.1863L11.9848 13.0542C11.9763 13.053 11.9682 13.0498 11.9613 13.0448C11.9544 13.0399 11.9488 13.0334 11.945 13.0258L11.5308 12.2032C11.4648 12.0722 11.3311 11.9907 11.182 11.9907C11.0329 11.9907 10.8992 12.0724 10.8332 12.2032L10.419 13.0258C10.4153 13.0334 10.4097 13.0399 10.4027 13.0449C10.3958 13.0498 10.3877 13.053 10.3792 13.0542L9.45316 13.1863C9.30551 13.2074 9.18494 13.3067 9.13903 13.4458C9.09313 13.5849 9.13078 13.7346 9.23761 13.8366L9.90774 14.4768C9.92043 14.4888 9.92593 14.506 9.92297 14.5228L9.76474 15.4267C9.75217 15.4968 9.76002 15.569 9.78741 15.635C9.8148 15.701 9.86061 15.758 9.91959 15.7996C9.97816 15.8417 10.0476 15.8668 10.1201 15.8719C10.1925 15.8771 10.2649 15.8622 10.3291 15.8289L11.1575 15.402C11.1651 15.398 11.1736 15.396 11.1822 15.396C11.1908 15.396 11.1993 15.398 11.207 15.402L12.0353 15.8289C12.0995 15.8621 12.1719 15.877 12.2443 15.8718C12.3166 15.8666 12.3861 15.8416 12.4446 15.7996C12.5036 15.758 12.5495 15.701 12.5768 15.635C12.6042 15.569 12.6121 15.4968 12.5995 15.4267L12.4413 14.5228C12.4398 14.5145 12.4405 14.506 12.4431 14.498C12.4458 14.49 12.4503 14.4827 12.4565 14.4768L13.1266 13.8366Z" fill="#F3B811"/>
</g>
<defs>
<filter id="filter0_i_7_43445" x="9.11981" y="11.9907" width="4.12469" height="8.0781" filterUnits="userSpaceOnUse" color-interpolation-filters="sRGB">
<feFlood flood-opacity="0" result="BackgroundImageFix"/>
<feBlend mode="normal" in="SourceGraphic" in2="BackgroundImageFix" result="shape"/>
<feColorMatrix in="SourceAlpha" type="matrix" values="0 0 0 0 0 0 0 0 0 0 0 0 0 0 0 0 0 0 127 0" result="hardAlpha"/>
<feOffset dy="4.19578"/>
<feGaussianBlur stdDeviation="4.19578"/>
<feComposite in2="hardAlpha" operator="arithmetic" k2="-1" k3="1"/>
<feColorMatrix type="matrix" values="0 0 0 0 0 0 0 0 0 0 0 0 0 0 0 0 0 0 0.1 0"/>
<feBlend mode="normal" in2="shape" result="effect1_innerShadow_7_43445"/>
</filter>
<linearGradient id="paint0_linear_7_43445" x1="11.0836" y1="20.3809" x2="11.0836" y2="11.0205" gradientUnits="userSpaceOnUse">
<stop stop-color="#FFE59A"/>
<stop offset="1" stop-color="#FFFFD5"/>
</linearGradient>
</defs>
</svg>
