<svg width="22" height="22" viewBox="0 0 22 22" fill="none" xmlns="http://www.w3.org/2000/svg">
<g clip-path="url(#clip0_7_43414)">
<path d="M21.3348 5.57992C20.7578 3.45383 18.5466 1.24266 16.4205 0.665586C15.1173 0.340312 13.3706 0.00558594 11 0C8.62984 0.00601562 6.88316 0.340312 5.57992 0.665586C3.45383 1.24309 1.24266 3.45383 0.665586 5.57992C0.340312 6.88316 0.00601562 8.62984 0 11C0.00601562 13.3706 0.340312 15.1173 0.665586 16.4205C1.24266 18.5466 3.45383 20.7573 5.57992 21.3348C6.88316 21.6601 8.6307 21.9944 11 22.0004C13.3706 21.9944 15.1173 21.6601 16.4205 21.3348C18.5466 20.7573 20.7578 18.5466 21.3348 16.4205C21.6601 15.1173 21.9944 13.3697 22.0004 11C21.9944 8.62984 21.6601 6.88316 21.3348 5.57992Z" fill="#DFF8FF"/>
<path d="M15.168 6.55452C14.8066 5.53272 13.8858 4.71933 12.8373 4.58483C12.1 4.49288 11.0937 4.41769 9.71781 4.43616C8.34195 4.45464 7.33391 4.56077 6.59441 4.67249C5.37238 4.86499 4.28098 5.93964 4.07129 7.17026C4.07129 7.17026 3.74773 8.90663 3.68457 11.245H15.5293C15.5293 11.245 15.5293 8.14823 15.168 6.55452Z" fill="url(#paint0_linear_7_43414)"/>
<path d="M18.1928 9.47797C18.0536 8.39 17.0847 7.46961 15.9507 7.31922C13.9527 7.12113 11.0012 7.10437 11.0003 7.11168C9.7237 7.09836 6.7348 7.22039 6.05031 7.31922C5.35679 7.40859 4.73031 7.79187 4.31093 8.31695C4.04003 8.65019 3.8661 9.05157 3.8082 9.47711C3.72699 10.1345 3.66253 11.0326 3.69519 12.2615C3.72784 13.4904 3.843 14.391 3.95816 15.0506C4.15667 16.1424 5.13894 17.1015 6.23206 17.285C6.89421 17.4113 9.77183 17.5857 11.0016 17.5643C12.2305 17.5866 15.1081 17.4113 15.7711 17.285C16.8643 17.1015 17.8465 16.1424 18.045 15.0506C18.1602 14.391 18.2732 13.4908 18.308 12.2615C18.3428 11.0321 18.2741 10.1354 18.1928 9.47797Z" fill="url(#paint1_linear_7_43414)"/>
<path d="M15.7617 13.3516C15.5613 13.3517 15.3653 13.2923 15.1986 13.181C15.0319 13.0697 14.902 12.9115 14.8253 12.7263C14.7485 12.5412 14.7284 12.3374 14.7675 12.1408C14.8066 11.9443 14.9031 11.7637 15.0448 11.622C15.1865 11.4802 15.3671 11.3837 15.5637 11.3446C15.7603 11.3056 15.964 11.3257 16.1492 11.4024C16.3343 11.4791 16.4926 11.6091 16.6039 11.7758C16.7152 11.9424 16.7745 12.1384 16.7745 12.3388C16.7745 12.6074 16.6678 12.865 16.4778 13.055C16.2879 13.2449 16.0303 13.3516 15.7617 13.3516Z" fill="url(#paint2_linear_7_43414)"/>
</g>
<defs>
<linearGradient id="paint0_linear_7_43414" x1="7.31543" y1="13.3401" x2="12.5864" y2="4.21058" gradientUnits="userSpaceOnUse">
<stop stop-color="#34344F"/>
<stop offset="0.54" stop-color="#353551"/>
<stop offset="1" stop-color="#666684"/>
</linearGradient>
<linearGradient id="paint1_linear_7_43414" x1="16.2876" y1="17.4633" x2="5.71386" y2="6.88953" gradientUnits="userSpaceOnUse">
<stop stop-color="#1EB4EB"/>
<stop offset="0.54" stop-color="#1EB4EB"/>
<stop offset="1" stop-color="#92F4FE"/>
</linearGradient>
<linearGradient id="paint2_linear_7_43414" x1="16.478" y1="13.0551" x2="15.0454" y2="11.6225" gradientUnits="userSpaceOnUse">
<stop stop-color="#BCE4ED"/>
<stop offset="0.57" stop-color="white"/>
<stop offset="1" stop-color="white"/>
</linearGradient>
<clipPath id="clip0_7_43414">
<rect width="22" height="22" fill="white"/>
</clipPath>
</defs>
</svg>
