<svg width="6" height="6" viewBox="0 0 6 6" fill="none" xmlns="http://www.w3.org/2000/svg">
<path d="M2.1054 1.00307C2.47831 0.334356 2.66462 0 2.94335 0C3.22208 0 3.40839 0.334356 3.7813 1.00307L3.87784 1.17613C3.9838 1.36627 4.03678 1.46134 4.11919 1.52403C4.2016 1.58672 4.30461 1.60997 4.51064 1.65648L4.69784 1.69886C5.42188 1.8628 5.78361 1.94462 5.86985 2.22159C5.95579 2.49825 5.70915 2.78699 5.21556 3.36417L5.08782 3.51339C4.94772 3.67733 4.87738 3.75945 4.84588 3.8607C4.81439 3.96224 4.82499 4.07173 4.84618 4.29042L4.8656 4.48968C4.94007 5.25993 4.97745 5.64491 4.75199 5.81592C4.52654 5.98692 4.18747 5.83093 3.50993 5.51894L3.33421 5.43829C3.14172 5.34941 3.04548 5.30526 2.94335 5.30526C2.84122 5.30526 2.74497 5.34941 2.55248 5.43829L2.37706 5.51894C1.69922 5.83093 1.36016 5.98692 1.135 5.81621C0.909248 5.64491 0.946627 5.25993 1.02109 4.48968L1.04052 4.29071C1.06171 4.07173 1.07231 3.96224 1.04052 3.86099C1.00932 3.75945 0.938975 3.67733 0.798875 3.51369L0.671137 3.36417C0.177549 2.78728 -0.0690979 2.49855 0.0168459 2.22159C0.10279 1.94462 0.465107 1.86251 1.18915 1.69886L1.37635 1.65648C1.58208 1.60997 1.6848 1.58672 1.76751 1.52403C1.85021 1.46134 1.9029 1.36627 2.00886 1.17613L2.1054 1.00307Z" fill="#ED9D23"/>
</svg>
