<svg width="10" height="10" viewBox="0 0 10 10" fill="none" xmlns="http://www.w3.org/2000/svg">
<g clip-path="url(#clip0_7_43611)">
<path d="M7.34088 2.8548H8.42815C7.63574 1.47267 6.10475 0.662721 4.44122 0.839719C2.57744 1.03833 1.05951 2.5477 0.843764 4.40944C0.558284 6.87354 2.48568 8.97222 4.89391 8.97222C7.14267 8.97222 8.97219 7.14271 8.97219 4.89394C8.97219 4.66841 9.15449 4.48611 9.38002 4.48611C9.60555 4.48611 9.78784 4.66841 9.78784 4.89394C9.78784 7.65657 7.48729 9.89188 4.701 9.78421C2.18389 9.68674 0.101109 7.60437 0.00363807 5.08766C-0.104436 2.30097 2.13128 0 4.89391 0C6.56763 0 8.07701 0.829523 8.97015 2.17984L8.97219 1.22348C8.97219 0.997956 9.15449 0.815657 9.38002 0.815657C9.60555 0.815657 9.78784 0.997956 9.78784 1.22348V2.85113C9.78784 3.30341 9.42121 3.67045 8.96852 3.67045H7.34088C7.11535 3.67045 6.93305 3.48816 6.93305 3.26263C6.93305 3.0371 7.11535 2.8548 7.34088 2.8548Z" fill="#1BC469"/>
</g>
<path d="M5.23228 5.33477H5.47678C6.17051 5.33477 6.73507 4.77869 6.73507 4.095C6.73507 3.41139 6.1706 2.85522 5.47678 2.85522H2.68767C2.55507 2.85522 2.44763 2.96117 2.44763 3.09173C2.44763 3.22237 2.55516 3.32823 2.68767 3.32823H5.47687C5.90594 3.32823 6.25499 3.67215 6.25499 4.09491C6.25499 4.51767 5.90594 4.86159 5.47687 4.86159H5.23237C5.09977 4.86159 4.99233 4.96753 4.99233 5.09809C4.99233 5.22865 5.09977 5.33477 5.23228 5.33477Z" fill="#1C274C"/>
<path d="M2.68767 2.85522H5.47678C6.1706 2.85522 6.73507 3.41139 6.73507 4.095C6.73507 4.77869 6.17051 5.33477 5.47678 5.33477H5.23228C5.09968 5.33477 4.99227 5.22882 4.99227 5.09826C4.99227 4.96771 5.0998 4.86176 5.23231 4.86176H5.47681C5.90588 4.86176 6.25494 4.51784 6.25494 4.09508C6.25494 3.67233 5.90588 3.32841 5.47681 3.32841H2.6877C2.55511 3.32841 2.44766 3.22246 2.44766 3.0919C2.44758 2.96117 2.55507 2.85522 2.68767 2.85522Z" fill="#1C274C"/>
<path d="M3.90451 7.34134H6.69371C6.8263 7.34134 6.93374 7.23539 6.93374 7.10483C6.93374 6.97428 6.82621 6.86833 6.69371 6.86833H3.90451C3.47544 6.86833 3.12638 6.52441 3.12638 6.10165C3.12638 5.6789 3.47544 5.33498 3.90451 5.33498H4.14901C4.28161 5.33498 4.38905 5.22903 4.38905 5.09847C4.38905 4.96792 4.28152 4.86197 4.14901 4.86197H3.90451C3.21078 4.86197 2.64622 5.41804 2.64622 6.10174C2.64622 6.78526 3.21069 7.34134 3.90451 7.34134Z" fill="#1C274C"/>
<path d="M3.90451 4.86178H4.14901C4.28161 4.86178 4.38905 4.96772 4.38905 5.09828C4.38905 5.22884 4.28152 5.33479 4.14901 5.33479H3.90451C3.47544 5.33479 3.12638 5.67871 3.12638 6.10146C3.12638 6.52413 3.47544 6.86814 3.90451 6.86814H6.69371C6.8263 6.86814 6.93374 6.97409 6.93374 7.10464C6.93374 7.2352 6.82621 7.34115 6.69371 7.34115H3.90451C3.21078 7.34115 2.64622 6.78507 2.64622 6.10138C2.64622 5.41785 3.21069 4.86178 3.90451 4.86178Z" fill="#1C274C"/>
<path d="M4.82407 6.06075C4.882 6.06075 4.94019 6.0402 4.98629 5.99849C5.084 5.91024 5.09058 5.7606 5.00101 5.66433L3.64966 4.21257C3.5601 4.11612 3.40822 4.10964 3.31051 4.19815C3.21271 4.2864 3.20622 4.43604 3.29578 4.53232L4.64714 5.98407C4.69446 6.03502 4.75914 6.06075 4.82407 6.06075Z" fill="#1C274C"/>
<path d="M5.90742 6.06071C5.96535 6.06071 6.02354 6.04016 6.06964 5.99845C6.16744 5.9102 6.17393 5.76056 6.08436 5.66429L4.73301 4.21253C4.64336 4.11608 4.49157 4.1096 4.39386 4.19811C4.29606 4.28636 4.28957 4.436 4.37913 4.53228L5.73049 5.98403C5.77781 6.03498 5.84249 6.06071 5.90742 6.06071Z" fill="#1C274C"/>
<defs>
<clipPath id="clip0_7_43611">
<rect width="9.78788" height="9.78788" fill="white"/>
</clipPath>
</defs>
</svg>
