<svg width="19" height="15" viewBox="0 0 19 15" fill="none" xmlns="http://www.w3.org/2000/svg">
<g clip-path="url(#clip0_7_44267)">
<path d="M11.2498 4.375H12.916C11.7016 2.25688 9.3554 1.01563 6.80602 1.28688C3.94977 1.59125 1.62352 3.90438 1.2929 6.7575C0.855396 10.5338 3.80915 13.75 7.49977 13.75C10.946 13.75 13.7498 10.9463 13.7498 7.5C13.7498 7.15438 14.0291 6.875 14.3748 6.875C14.7204 6.875 14.9998 7.15438 14.9998 7.5C14.9998 11.7338 11.4741 15.1594 7.20415 14.9944C3.34665 14.845 0.154771 11.6538 0.00539623 7.79688C-0.160229 3.52625 3.26602 0 7.49977 0C10.0648 0 12.3779 1.27125 13.7466 3.34063L13.7498 1.875C13.7498 1.52938 14.0291 1.25 14.3748 1.25C14.7204 1.25 14.9998 1.52938 14.9998 1.875V4.36938C14.9998 5.0625 14.4379 5.625 13.7441 5.625H11.2498C10.9041 5.625 10.6248 5.34563 10.6248 5C10.6248 4.65438 10.9041 4.375 11.2498 4.375Z" fill="#1BC469"/>
</g>
<path d="M8.01749 8.17541H8.3922C9.45534 8.17541 10.3205 7.32322 10.3205 6.27545C10.3205 5.22781 9.45548 4.37549 8.3922 4.37549H4.11786C3.91466 4.37549 3.75 4.53785 3.75 4.73793C3.75 4.93814 3.91479 5.10038 4.11786 5.10038H8.39233C9.04988 5.10038 9.58481 5.62744 9.58481 6.27531C9.58481 6.92319 9.04988 7.45025 8.39233 7.45025H8.01763C7.81442 7.45025 7.64977 7.61262 7.64977 7.8127C7.64977 8.01278 7.81442 8.17541 8.01749 8.17541Z" fill="#1C274C"/>
<path d="M4.11786 4.37549H8.3922C9.45548 4.37549 10.3205 5.22781 10.3205 6.27545C10.3205 7.32322 9.45534 8.17541 8.3922 8.17541H8.01749C7.81429 8.17541 7.64968 8.01304 7.64968 7.81296C7.64968 7.61288 7.81447 7.45052 8.01754 7.45052H8.39225C9.0498 7.45052 9.58473 6.92346 9.58473 6.27558C9.58473 5.62771 9.0498 5.10064 8.39225 5.10064H4.1179C3.9147 5.10064 3.75005 4.93828 3.75005 4.7382C3.74991 4.53785 3.91466 4.37549 4.11786 4.37549Z" fill="#1C274C"/>
<path d="M5.98267 11.2505H10.2571C10.4603 11.2505 10.625 11.0881 10.625 10.888C10.625 10.688 10.4602 10.5256 10.2571 10.5256H5.98267C5.32512 10.5256 4.79019 9.99854 4.79019 9.35066C4.79019 8.70279 5.32512 8.17573 5.98267 8.17573H6.35738C6.56058 8.17573 6.72523 8.01336 6.72523 7.81328C6.72523 7.6132 6.56044 7.45084 6.35738 7.45084H5.98267C4.91953 7.45084 4.05434 8.30303 4.05434 9.3508C4.05434 10.3983 4.91939 11.2505 5.98267 11.2505Z" fill="#1C274C"/>
<path d="M5.98267 7.45054H6.35738C6.56058 7.45054 6.72523 7.61291 6.72523 7.81299C6.72523 8.01307 6.56044 8.17543 6.35738 8.17543H5.98267C5.32512 8.17543 4.79019 8.7025 4.79019 9.35037C4.79019 9.99812 5.32512 10.5253 5.98267 10.5253H10.2571C10.4603 10.5253 10.625 10.6877 10.625 10.8878C10.625 11.0878 10.4602 11.2502 10.2571 11.2502H5.98267C4.91953 11.2502 4.05434 10.398 4.05434 9.35024C4.05434 8.30273 4.91939 7.45054 5.98267 7.45054Z" fill="#1C274C"/>
<path d="M7.39192 9.28797C7.48069 9.28797 7.56987 9.25648 7.64051 9.19257C7.79026 9.05733 7.80033 8.828 7.66308 8.68046L5.59212 6.45563C5.45486 6.30782 5.22211 6.2979 5.07236 6.43353C4.92248 6.56877 4.91254 6.7981 5.0498 6.94564L7.12076 9.17047C7.19328 9.24854 7.2924 9.28797 7.39192 9.28797Z" fill="#1C274C"/>
<path d="M9.05216 9.28791C9.14093 9.28791 9.23011 9.25642 9.30075 9.1925C9.45063 9.05727 9.46057 8.82794 9.32331 8.6804L7.25236 6.45557C7.11497 6.30776 6.88235 6.29784 6.73261 6.43347C6.58272 6.56871 6.57278 6.79804 6.71004 6.94558L8.781 9.17041C8.85352 9.24848 8.95264 9.28791 9.05216 9.28791Z" fill="#1C274C"/>
<defs>
<clipPath id="clip0_7_44267">
<rect width="15" height="15" fill="white"/>
</clipPath>
</defs>
</svg>
