<svg width="21" height="21" viewBox="0 0 21 21" fill="none" xmlns="http://www.w3.org/2000/svg">
<rect width="20.5222" height="20.5222" rx="9.57703" fill="#1BC469" fill-opacity="0.1"/>
<path d="M13.0785 14.0387H6.30492C5.57546 14.0387 5.00232 13.4655 5.00232 12.7361V5.96252C5.00232 5.23306 5.57546 4.65991 6.30492 4.65991H13.0785C13.8079 4.65991 14.3811 5.23306 14.3811 5.96252V12.7361C14.3811 13.4134 13.7558 14.0387 13.0785 14.0387ZM6.30492 5.70199C6.14861 5.70199 6.0444 5.8062 6.0444 5.96252V12.7361C6.0444 12.8924 6.14861 12.9966 6.30492 12.9966H13.0785C13.2348 12.9966 13.339 12.8924 13.339 12.7361V5.96252C13.339 5.8062 13.2348 5.70199 13.0785 5.70199H6.30492Z" fill="#1BC469"/>
<path d="M15.1622 15.8624H7.60711C7.29449 15.8624 7.08607 15.6539 7.08607 15.3413C7.08607 15.0287 7.29449 14.8203 7.60711 14.8203H15.1622V7.26518C15.1622 6.95256 15.3706 6.74414 15.6833 6.74414C15.9959 6.74414 16.2043 6.95256 16.2043 7.26518V14.8203C16.2043 15.3934 15.7354 15.8624 15.1622 15.8624ZM9.17024 11.173C9.06603 11.173 8.90972 11.1209 8.80551 11.0167L7.24238 9.55776C7.03397 9.34935 7.03397 9.03672 7.19028 8.82831C7.3987 8.61989 7.71132 8.61989 7.91974 8.7762L9.11813 9.87039L11.3586 7.57781C11.567 7.36939 11.8797 7.36939 12.0881 7.57781C12.2965 7.78622 12.2965 8.09885 12.0881 8.30726L9.48286 10.9646C9.43076 11.1209 9.27444 11.173 9.17024 11.173Z" fill="#1BC469"/>
</svg>
