<svg width="16" height="16" viewBox="0 0 16 16" fill="none" xmlns="http://www.w3.org/2000/svg">
<circle cx="7.77465" cy="7.77465" r="7.77465" fill="#E42021"/>
<path d="M8.87685 6.39917C8.76982 6.39917 8.68306 6.48593 8.68306 6.59296V10.2555C8.68306 10.3625 8.76982 10.4493 8.87685 10.4493C8.98389 10.4493 9.07063 10.3625 9.07063 10.2555V6.59296C9.07063 6.48593 8.98389 6.39917 8.87685 6.39917ZM6.59015 6.39917C6.48312 6.39917 6.39636 6.48593 6.39636 6.59296V10.2555C6.39636 10.3625 6.48312 10.4493 6.59015 10.4493C6.6972 10.4493 6.78394 10.3625 6.78394 10.2555V6.59296C6.78394 6.48593 6.6972 6.39917 6.59015 6.39917Z" fill="white"/>
<path d="M4.92343 5.86484V10.6394C4.92343 10.9216 5.02691 11.1866 5.20768 11.3767C5.29669 11.4711 5.40399 11.5463 5.52304 11.5978C5.64209 11.6492 5.77038 11.6759 5.90008 11.6761H9.56663C9.69633 11.6759 9.82463 11.6493 9.94368 11.5978C10.0627 11.5463 10.17 11.4711 10.259 11.3767C10.4398 11.1866 10.5433 10.9216 10.5433 10.6394V5.86484C10.9026 5.76946 11.1355 5.42231 11.0874 5.05359C11.0393 4.68493 10.7252 4.40917 10.3533 4.40909H9.36117V4.16685C9.36173 4.06601 9.34225 3.96607 9.30386 3.87282C9.26548 3.77957 9.20895 3.69487 9.13756 3.62365C9.06615 3.55243 8.98131 3.49611 8.88796 3.45796C8.7946 3.4198 8.6946 3.40058 8.59375 3.40139H6.87298C6.77213 3.40057 6.67212 3.4198 6.57876 3.45795C6.4854 3.49611 6.40056 3.55243 6.32915 3.62365C6.25776 3.69487 6.20123 3.77957 6.16285 3.87282C6.12446 3.96607 6.10498 4.06601 6.10554 4.16685V4.40909H5.11338C4.74154 4.40917 4.42747 4.68493 4.37931 5.05359C4.33125 5.42231 4.56409 5.76946 4.92343 5.86484ZM9.56663 11.2886H5.9001C5.56876 11.2886 5.31101 11.0039 5.31101 10.6394V5.88188H10.1557V10.6394C10.1557 11.0039 9.89797 11.2886 9.56663 11.2886ZM6.49311 4.16685C6.49248 4.11689 6.50189 4.06731 6.52078 4.02106C6.53968 3.9748 6.56767 3.93281 6.60311 3.89759C6.63853 3.86234 6.68067 3.83456 6.72702 3.8159C6.77338 3.79724 6.82301 3.78809 6.87298 3.78897H8.59375C8.64372 3.78809 8.69335 3.79724 8.73971 3.8159C8.78606 3.83456 8.8282 3.86234 8.86362 3.89759C8.89906 3.93281 8.92705 3.9748 8.94594 4.02106C8.96484 4.06731 8.97424 4.11689 8.9736 4.16685V4.40909H6.49311V4.16685ZM5.11338 4.79666H10.3534C10.546 4.79666 10.7022 4.95284 10.7022 5.14548C10.7022 5.33813 10.546 5.4943 10.3534 5.4943H5.11336C4.92072 5.4943 4.76454 5.33813 4.76454 5.14548C4.76454 4.95284 4.92074 4.79666 5.11338 4.79666Z" fill="white"/>
<path d="M7.73285 6.39917C7.62582 6.39917 7.53906 6.48593 7.53906 6.59296V10.2555C7.53906 10.3625 7.62582 10.4493 7.73285 10.4493C7.8399 10.4493 7.92664 10.3625 7.92664 10.2555V6.59296C7.92664 6.48593 7.8399 6.39917 7.73285 6.39917Z" fill="white"/>
</svg>
