<svg width="15" height="15" viewBox="0 0 15 15" fill="none" xmlns="http://www.w3.org/2000/svg">
<g clip-path="url(#clip0_7_43631)">
<path d="M13.0894 11.0794C12.4931 11.8032 11.7251 12.3662 10.8554 12.717C9.98577 13.0679 9.04212 13.1955 8.11052 13.0882C7.17891 12.9809 6.28899 12.6421 5.52188 12.1027C4.75478 11.5633 4.13489 10.8404 3.71875 10.0001H9.0625C9.31114 10.0001 9.5496 9.90129 9.72541 9.72548C9.90123 9.54966 10 9.3112 10 9.06256C10 8.81392 9.90123 8.57547 9.72541 8.39965C9.5496 8.22384 9.31114 8.12506 9.0625 8.12506H3.16187C3.11268 7.70985 3.11268 7.29028 3.16187 6.87506H9.0625C9.31114 6.87506 9.5496 6.77629 9.72541 6.60048C9.90123 6.42466 10 6.1862 10 5.93756C10 5.68892 9.90123 5.45047 9.72541 5.27465C9.5496 5.09883 9.31114 5.00006 9.0625 5.00006H3.71875C4.13489 4.15969 4.75478 3.43685 5.52188 2.89746C6.28899 2.35806 7.17891 2.01926 8.11052 1.91195C9.04212 1.80464 9.98577 1.93224 10.8554 2.2831C11.7251 2.63397 12.4931 3.19694 13.0894 3.92069C13.2477 4.11247 13.4757 4.23352 13.7232 4.25719C13.9708 4.28087 14.2176 4.20524 14.4094 4.04694C14.6012 3.88864 14.7222 3.66063 14.7459 3.41308C14.7696 3.16554 14.6939 2.91872 14.5356 2.72694C13.6915 1.70288 12.5905 0.921389 11.3452 0.462398C10.1 0.00340741 8.75515 -0.116619 7.4483 0.114592C6.14144 0.345804 4.91945 0.919958 3.90727 1.77834C2.8951 2.63672 2.12906 3.74853 1.6875 5.00006H0.9375C0.688859 5.00006 0.450403 5.09883 0.274587 5.27465C0.098772 5.45047 0 5.68892 0 5.93756C0 6.1862 0.098772 6.42466 0.274587 6.60048C0.450403 6.77629 0.688859 6.87506 0.9375 6.87506H1.28187C1.26437 7.08194 1.25 7.28881 1.25 7.50006C1.25 7.71131 1.26437 7.91819 1.28187 8.12506H0.9375C0.688859 8.12506 0.450403 8.22384 0.274587 8.39965C0.098772 8.57547 0 8.81392 0 9.06256C0 9.3112 0.098772 9.54966 0.274587 9.72548C0.450403 9.90129 0.688859 10.0001 0.9375 10.0001H1.6875C2.12906 11.2516 2.8951 12.3634 3.90727 13.2218C4.91945 14.0802 6.14144 14.6543 7.4483 14.8855C8.75515 15.1167 10.1 14.9967 11.3452 14.5377C12.5905 14.0787 13.6915 13.2973 14.5356 12.2732C14.6939 12.0814 14.7696 11.8346 14.7459 11.587C14.7222 11.3395 14.6012 11.1115 14.4094 10.9532C14.3144 10.8748 14.2049 10.8159 14.0872 10.7798C13.9695 10.7437 13.8458 10.7312 13.7232 10.7429C13.4757 10.7666 13.2477 10.8877 13.0894 11.0794Z" fill="#1BC469"/>
</g>
<defs>
<clipPath id="clip0_7_43631">
<rect width="15" height="15" fill="white"/>
</clipPath>
</defs>
</svg>
