<svg width="40" height="40" viewBox="0 0 40 40" fill="none" xmlns="http://www.w3.org/2000/svg">
<path d="M37.0127 30.5461C35.8632 32.4947 34.37 34.2492 32.5892 35.6417C32.3914 35.6278 32.3245 35.4532 32.2246 35.3289C31.6966 34.6481 30.8658 34.2573 30.0019 34.3666C29.7548 34.3725 29.1954 34.6202 29.0357 34.4011C28.9969 34.2855 29.0796 34.2226 29.1454 34.1545C29.3956 33.8781 29.721 33.6873 29.9627 33.4045C30.1838 33.165 30.3567 32.8884 30.5535 32.6302C30.7966 32.3139 30.331 32.0362 30.1264 31.8462C29.7224 31.603 30.2031 31.2699 30.3786 31.0583C30.9046 30.4879 31.5143 29.9986 32.0379 29.4286C32.283 29.1658 31.9471 28.8562 31.6463 28.9046C31.5285 28.9092 31.4221 28.8468 31.3043 28.8478C31.2098 28.8475 31.1156 28.8462 31.0211 28.8486C30.8313 28.8255 30.6474 28.7715 30.4529 28.7965C30.3297 28.8154 30.2183 28.747 30.0967 28.7418C29.804 28.7637 29.5296 28.6709 29.2372 28.6848C28.641 28.5813 28.2143 29.1634 27.8062 29.4981C27.3028 29.9282 26.8224 30.385 26.3123 30.8075C25.8343 31.3925 25.6243 30.9062 25.6192 30.3732C25.2607 27.1407 24.8698 22.0378 21.3082 20.8219C21.1374 20.728 21.1077 20.8551 21.2066 21.0071C21.4692 21.2672 23.3945 27.2216 22.4486 26.2743C21.742 24.1666 20.9932 22.0291 19.7293 20.1867C19.6938 19.8783 20.0935 19.9579 20.2141 20.1149C20.4703 20.3532 20.7198 20.423 21.0435 20.2257C21.5847 19.901 21.9202 20.8031 22.456 20.2989C22.5718 20.2 22.7261 20.1759 22.8729 20.143C23.0674 20.1 23.2075 20.0068 23.2402 19.7844C23.3283 19.2424 23.8914 19.5373 24.2571 19.2377C24.752 18.9499 25.3002 19.2645 25.3812 18.4788C25.3937 18.393 25.3721 18.2998 25.4373 18.2256C25.7978 18.0907 26.0679 19.1607 27.208 18.4957C34.3045 15.2103 40.7991 24.3559 37.0127 30.5461Z" fill="#64242A"/>
<path d="M2.29834 10.7386C9.03546 -3.69962 31.0295 -3.48502 37.8087 10.8176C37.8427 10.8838 37.9696 10.9738 37.8108 11.0525C37.6325 11.0233 37.5868 10.8621 37.5162 10.7368C36.9225 9.65491 33.9042 5.06935 32.7185 5.18323C30.7321 5.20459 28.9347 5.78361 27.3211 6.94592C27.1655 7.05838 27.0237 7.20074 26.8181 7.22422C26.6058 7.18899 26.525 6.96977 26.3481 6.88507C26.2613 6.8267 26.1585 6.80001 26.067 6.75054C25.9547 6.69431 25.831 6.7299 25.7151 6.70499C25.407 6.60392 25.3907 6.24163 25.1327 6.09145C25.1089 6.04234 25.0869 6.0523 25.0646 6.09287C24.9441 6.15835 24.7942 6.11992 24.6875 6.04447C24.2869 5.69784 24.4797 5.08821 23.7098 4.82628C23.1863 4.68678 22.8878 5.00316 22.4387 4.95191C22.0219 4.82771 21.767 4.21594 21.2807 4.42627C21.0991 4.43766 20.9147 4.42627 20.7324 4.42698C20.2697 4.3558 20.0459 3.80134 19.5481 3.87002C19.4984 3.85223 19.4508 3.86967 19.4029 3.87999C19.2952 3.90134 19.1809 3.88248 19.0848 3.94654C18.6323 4.23409 18.4368 5.01526 17.7961 4.89817C17.2648 4.70706 17.0784 5.5441 16.5769 5.54588C16.4203 5.54268 16.2627 5.55406 16.107 5.53627C15.4276 5.32737 14.7904 6.06831 14.793 6.71282C14.7898 7.08223 14.5624 7.42494 14.1914 7.50608C14.025 7.50146 13.8652 7.60431 13.6979 7.54701C13.2779 7.37654 12.7513 7.14806 12.3528 7.48153C11.3247 8.14347 12.7362 9.00186 11.6844 9.47981C11.4121 9.59797 11.1718 9.75527 11.0169 10.0193C10.8629 10.287 10.9186 10.6037 11.0976 10.8247C11.9708 11.9215 10.232 12.2187 11.0509 13.1002C11.6309 13.7447 10.7704 13.8871 11.0702 14.5024C11.2569 14.8871 11.6784 15.254 11.2763 15.6569C10.1569 16.6904 11.6673 16.6594 11.4517 17.5085C11.3821 17.8356 11.4424 17.931 11.7409 18.1C11.9016 18.1829 12.0775 18.1431 12.2459 18.1637C12.3965 18.2075 12.4655 18.3299 12.5306 18.4573C12.6373 18.6602 12.3865 18.7906 12.2363 18.856C11.387 19.2666 10.5632 19.7238 9.74613 20.1946C9.62805 20.2627 9.5069 20.362 9.35838 20.2532C9.23595 20.1 9.23938 19.9051 9.18838 19.7286C9.09785 19.2982 8.7314 18.7558 8.79751 18.3385C11.2878 14.3597 7.32347 9.10898 2.75078 10.6973C2.60616 10.7428 2.4598 10.845 2.29834 10.7386Z" fill="#F7F7F4"/>
<path d="M26.782 7.20443C27.8984 6.13013 32.2142 4.33072 33.5088 5.35702C37.9441 9.62685 40.6528 15.8076 39.8636 22.0188C39.6936 22.0524 39.6336 21.9142 39.5606 21.8116C37.9178 19.4463 35.135 18.3136 32.3364 18.2402C30.4924 17.7612 28.484 17.8454 26.7964 18.7926C26.5436 18.9308 26.3463 18.9322 26.1311 18.7378C24.2628 17.485 26.7746 18.345 26.482 17.0726C26.4719 15.9854 28.3348 16.5351 27.556 15.0193C27.0735 14.0762 28.8271 13.6905 27.9944 12.772C27.5106 12.3234 27.4786 12.1057 27.7729 11.5152C28.0968 10.735 26.9466 10.7579 27.283 9.7908C27.5311 8.86118 26.0874 9.10389 26.6439 7.91499C26.7113 7.76659 26.7315 7.61075 26.7214 7.44849C26.716 7.36229 26.6951 7.26866 26.782 7.20443Z" fill="#F47224"/>
<path d="M8.85347 18.3508C8.82656 18.4916 8.89859 18.6097 8.94463 18.7318C9.13158 19.2277 9.3235 19.7217 9.40035 20.2508C9.44375 20.3707 9.36145 20.4395 9.28415 20.491C6.61776 22.1106 6.95638 26.619 5.61314 25.5732C4.11611 24.8992 2.55077 24.6578 0.921066 24.8137C0.80388 24.8251 0.691418 24.8208 0.599513 24.7327C-0.346246 21.0108 -0.163191 16.9641 1.07904 13.3358C1.27524 13.1816 1.50383 13.2328 1.71569 13.2581C4.79098 13.5762 7.60187 15.5012 8.85347 18.3508Z" fill="#F1463A"/>
<path d="M14.0542 39.1522C12.7247 38.8142 11.4313 38.3001 10.2445 37.6099C9.92216 35.4602 12.1667 34.4184 13.964 34.2796C15.1349 34.1139 15.4603 33.2019 16.3016 32.5938C17.0744 32.1093 17.9416 31.826 18.7714 31.4591C19.1776 31.2828 19.5955 31.3952 19.8318 31.7142C19.8507 32.6257 20.3082 33.4034 20.7023 34.1906C20.7461 34.3408 20.868 34.4378 20.9536 34.5594C21.147 34.8621 21.2452 35.2158 21.4588 35.5081C21.5559 35.7742 21.5895 36.0534 21.6221 36.3314C21.6408 36.4912 21.6289 36.6517 21.4582 36.741C21.2703 36.794 21.0944 36.6965 20.9107 36.6954C20.5762 36.6935 20.2404 36.6722 19.9088 36.7388C19.2678 36.8678 18.6253 36.7697 17.9854 36.7396C16.394 36.6219 15.5019 38.0768 14.4004 38.9711C14.2998 39.0652 14.1869 39.1251 14.0542 39.1522Z" fill="#F47224"/>
<path d="M11.6799 35.0102C10.899 35.5201 10.3013 36.3374 10.3006 37.3056C10.2987 37.4092 10.3216 37.519 10.2466 37.6102C9.93015 37.4554 9.62596 37.2786 9.33223 37.0842C9.24566 36.9566 9.25482 36.8208 9.28513 36.6772C9.49163 35.5471 10.2551 35.2378 9.70751 35.0091C8.65407 34.4027 7.40414 34.2253 6.21053 34.4049C6.10431 34.4267 6.00056 34.4174 5.90272 34.3657C5.135 33.6421 4.47084 32.8308 3.88445 31.954C3.835 31.8146 3.89782 31.6926 3.94824 31.5711C5.22333 28.5324 6.16574 25.3944 7.51783 22.3894C8.48551 20.412 10.7487 19.429 12.6373 18.6237C12.6563 18.7579 12.5636 18.8361 12.4856 18.9178C11.5109 19.9364 10.7306 21.0832 10.163 22.3802C9.91401 22.9485 9.5926 23.4906 9.13816 23.9179C7.65297 25.2968 8.22275 27.4992 7.45344 29.2314C6.99724 30.6207 6.81963 32.3571 8.15254 33.3196C8.97484 33.9071 10.341 34.8283 11.3547 34.3497C11.8794 34.0109 11.8055 34.7074 11.6799 35.0102Z" fill="#D14820"/>
<path d="M14.0565 39.1524C15.5472 37.8729 16.5322 36.2143 18.7616 36.6851C19.6527 36.7966 20.5561 36.3862 21.4335 36.7011C21.4539 36.8809 21.3048 36.9423 21.1969 37.021C20.6691 37.4067 20.1489 37.8029 19.6193 38.1861C19.584 38.2117 19.5509 38.2417 19.5071 38.2534C20.9114 37.8021 22.2476 37.051 23.661 36.6386C24.5588 36.3992 24.5537 36.7961 25.1164 36.7996C26.0438 36.815 29.3882 36.4627 29.6425 37.5946C24.9452 40.2075 19.1833 40.635 14.0565 39.1524Z" fill="#D14820"/>
<path d="M8.85568 18.3504C8.62548 18.191 8.55362 17.9217 8.42281 17.6975C6.9466 15.0851 4.07956 13.3526 1.0813 13.3355C1.27098 12.5901 1.62875 11.9047 1.91961 11.1967C2.00001 11.0024 2.11915 10.8469 2.29851 10.7382C6.92825 8.73194 11.634 14.0625 8.85568 18.3504Z" fill="#F47224"/>
<path d="M6.15786 25.6914C5.65235 27.8002 4.72152 29.8327 3.93295 31.8609C3.83278 32.1755 2.95478 30.5278 2.81914 30.3461C1.80984 28.5901 1.01184 26.7215 0.599854 24.7326C2.52143 24.487 4.42539 24.8423 6.15786 25.6914Z" fill="#64242A"/>
<path d="M32.5034 18.2734C35.1749 17.9764 38.1981 19.6383 39.699 21.8495C40.149 24.052 38.5534 27.7174 37.4855 29.7658C37.2663 30.2196 37.2733 29.8698 37.4065 29.6134C39.1419 25.2454 36.916 19.9133 32.5034 18.2734Z" fill="#F1463A"/>
<path d="M29.6385 37.5938C28.6682 36.5257 26.6166 36.9601 25.3198 36.9117C25.0159 36.9218 24.7287 36.8954 24.4615 36.7185C24.3125 36.6198 24.1304 36.6258 23.9497 36.666C23.5171 36.8477 23.4755 36.6106 23.8908 36.4727C25.5659 35.7781 27.183 34.9191 28.9176 34.3859C28.9994 34.3811 29.0683 34.4529 29.1537 34.425C30.6604 34.0236 31.687 34.3361 32.5892 35.641C31.6993 36.4204 30.6958 37.0697 29.6385 37.5938Z" fill="#F47224"/>
<path d="M5.89941 34.3656C7.31092 34.0825 8.65042 34.2535 9.89799 35.0044C10.1204 35.1383 10.1268 35.1486 9.97452 35.3677C9.61445 35.8857 9.37445 36.4475 9.32903 37.084C8.06202 36.3515 6.89455 35.4404 5.89941 34.3656Z" fill="#F47224"/>
<path d="M37.2653 30.1002C37.2574 30.05 37.2625 30.0068 37.322 29.9918C37.3315 30.0428 37.3156 30.0805 37.2653 30.1002Z" fill="#F1463A"/>
<path d="M37.2524 30.1514C37.1883 30.1644 37.2231 30.0996 37.2682 30.0972C37.2629 30.1154 37.2578 30.1333 37.2524 30.1514Z" fill="#F1463A"/>
<path d="M26.7836 7.20414C26.8725 7.51694 26.82 7.80648 26.6854 8.10191C26.2235 9.05764 27.8457 8.86544 27.3511 9.9644C27.0948 10.7797 28.3959 10.66 27.7617 11.8058C27.2199 12.6596 29.1879 12.8099 27.896 14.049C26.9336 14.8847 28.5911 15.5633 27.4406 16.2767C27.0547 16.4565 26.4825 16.5544 26.5881 17.1037C26.6795 17.6087 26.301 17.9268 25.8258 17.9575C25.3185 17.9711 25.5457 18.3338 25.4537 18.664C25.3512 19.0329 25.1805 19.1857 24.7976 19.1879C24.2996 19.1659 24.1702 19.5779 23.6573 19.5183C23.0923 19.5025 23.5826 20.143 22.97 20.222C22.7397 20.2589 22.538 20.3327 22.3549 20.493C21.8282 20.9019 21.5756 19.881 20.8599 20.4223C20.4116 20.7283 20.213 19.9378 19.7684 20.0608C19.539 20.0333 19.4399 19.9235 19.5158 19.6898C19.5995 19.4315 19.4927 19.3057 19.309 19.1584C18.9428 18.8494 18.0097 17.8896 17.955 17.4069C17.993 17.2535 18.3138 17.5765 18.3753 17.6652C18.9239 18.2359 20.6925 19.8094 21.4666 19.4904C21.8612 19.3156 22.1302 18.9712 22.4016 18.6522C23.2349 17.7978 24.1668 16.782 24.2075 15.519C24.1368 15.4133 24.0241 15.448 23.9259 15.435C23.7848 15.4028 23.5425 15.2434 23.5699 15.067C23.7796 14.7586 24.5459 15.3333 24.7954 14.2372C24.7071 14.1677 24.5895 14.2499 24.4873 14.2272C24.2931 14.1838 24.0556 14.3729 23.8941 14.1944C23.8997 13.5635 24.5654 13.9312 24.9075 13.7173C25.0952 13.4299 25.1147 13.088 25.2113 12.7718C25.2654 12.5731 25.3142 12.3728 25.3373 12.1682C25.3531 11.9444 25.3929 11.0565 25.0418 11.1291C24.6775 11.1464 24.2928 11.1774 24.0189 10.8888C23.6653 10.5664 23.1701 10.2905 22.6856 10.444C21.9248 10.7413 22.0212 10.678 21.2594 10.4499C20.2751 10.2208 20.8451 11.3414 20.0404 11.5804C19.7879 11.6765 19.6628 11.8244 19.6532 12.1081C19.6236 13.5018 18.156 12.9934 18.3222 14.1742C18.5689 16.2723 16.9336 16.3635 16.2092 17.9119C15.6549 19.3348 14.7215 18.6776 13.6393 18.3887C13.4903 18.3645 13.3237 18.2923 13.1846 18.3782C12.9722 18.4696 12.7197 18.6714 12.4889 18.4997C12.3625 18.4488 12.381 18.2697 12.2475 18.2253C12.0644 18.1739 11.8725 18.2449 11.6901 18.1841C11.3961 18.0362 11.2718 17.8803 11.3393 17.6137C11.4269 17.2677 11.3718 17.0135 11.0435 16.843C10.9993 16.8201 10.9698 16.7686 10.9334 16.7305C10.9044 16.7237 10.901 16.6939 10.8821 16.6759C10.8612 16.671 10.8497 16.6583 10.8491 16.6363C10.6097 16.1294 10.8698 15.869 11.244 15.5671C11.7689 15.0258 10.3849 14.5661 11.1051 13.7356C11.5764 13.2687 10.2871 13.0994 10.8806 12.1639C11.1052 11.8346 11.4592 11.5532 11.1644 11.1424C10.0407 9.47119 12.0399 9.69532 12.0382 8.87102C11.9968 8.73493 11.941 8.6007 11.8972 8.4643C11.6277 7.77982 12.3852 7.10556 13.0635 7.27389C13.1392 7.33558 13.236 7.2773 13.3151 7.32907C13.3444 7.35914 13.3973 7.3545 13.4285 7.37465C13.4632 7.43727 13.5438 7.38364 13.5828 7.43572C13.8189 7.5715 13.9839 7.50237 14.2159 7.43014C14.8774 7.16416 14.5568 6.66102 14.8123 6.16409C15.0461 5.65692 15.5721 5.33483 16.1284 5.45511C16.2455 5.52827 16.4618 5.49541 16.6088 5.47123C16.804 5.42163 16.9284 5.28089 17.0538 5.13612C17.1374 5.03909 17.2267 4.94392 17.344 4.88347C17.3758 4.82612 17.4956 4.88657 17.5008 4.81496C17.696 4.78148 17.8877 4.92687 18.085 4.8224C18.089 4.81341 18.089 4.80473 18.0853 4.79605C18.1079 4.80194 18.1239 4.79481 18.1335 4.77311C18.3076 4.71979 18.391 4.56727 18.4941 4.43738C18.6627 4.21728 18.8258 3.97454 19.0919 3.86852C19.2586 3.81055 19.4569 3.8645 19.6313 3.81241C19.6767 3.78979 19.7446 3.77863 19.7842 3.81241C20.4607 4.02539 20.4736 4.562 21.3227 4.33043C21.4228 4.32361 21.5528 4.30098 21.6364 4.34748C21.6769 4.40142 21.7553 4.35058 21.7952 4.40545C22.0981 4.53782 22.3272 5.02855 22.7051 4.87882C22.7446 4.83821 22.8153 4.87634 22.8582 4.82891C22.9061 4.80225 22.966 4.81527 23.0077 4.7759C23.0256 4.77435 23.0435 4.7728 23.0611 4.77125C23.1 4.74149 23.1454 4.75048 23.1889 4.74862C23.3362 4.74862 23.4835 4.74862 23.6308 4.74862C23.6743 4.74738 23.7237 4.74521 23.7583 4.7697C23.7956 4.82953 23.8759 4.7759 23.9154 4.83015C24.5879 5.16433 24.3795 5.70621 24.7642 6.00165C25.0199 6.22609 25.2888 5.86215 25.4725 6.34544C25.6736 6.92762 26.3575 6.43441 26.7836 7.20414Z" fill="#121010"/>
<path d="M21.2745 22.9131C21.8448 23.9817 22.1518 25.1829 22.5589 26.303C22.5243 26.4158 22.6632 26.4872 22.7203 26.5732C22.8443 26.759 22.8117 26.9999 22.9181 27.1956C23.0311 27.634 23.1411 28.0727 23.0247 28.5296C21.4709 30.1176 19.6079 31.2205 17.3263 31.3096C17.2005 31.3037 17.0767 31.293 17.0116 31.1584C16.9132 30.511 16.996 29.8343 16.9735 29.177C16.8855 25.9896 16.4373 22.3474 14.5083 19.7103C14.44 19.6083 14.3591 19.5079 14.4086 19.3703C14.5473 19.2299 14.6692 19.3349 14.7866 19.4032C16.1588 20.2647 17.744 20.8744 19.3764 20.6148C20.2571 21.1441 20.7298 22.0878 21.2745 22.9131Z" fill="#F7F7F4"/>
<path d="M22.012 10.5902C21.7598 10.482 21.4965 10.4058 21.2319 10.3383C20.1452 10.1168 20.8098 11.3008 19.9549 11.5239C19.5811 11.6508 19.5574 11.683 19.5525 12.0707C19.5738 13.4684 18.0376 12.8722 18.2253 14.1741C18.2982 15.142 18.0403 15.9627 17.1934 16.5258C17.0087 16.6486 16.8578 16.8134 16.7095 16.978C15.9899 17.6376 16.0296 19.0822 14.7874 18.6381C13.478 18.2268 12.8318 17.9535 14.1979 19.2332C14.2449 19.2624 14.3027 19.2698 14.3462 19.3064C14.3702 19.3275 14.3975 19.3454 14.4299 19.3489C14.5411 19.2904 14.5968 19.3953 14.6667 19.4389C15.0448 19.6754 15.4134 19.9283 15.8381 20.0788C16.689 20.066 16.7525 17.9554 17.3925 18.5689C17.9701 19.2248 18.2088 20.2192 18.9352 20.7325C19.0986 20.7457 19.2444 20.666 19.401 20.6446C19.7858 20.5852 19.8341 20.3597 19.7693 20.0612C19.5511 19.9839 19.5104 19.8369 19.6173 19.6442C19.735 19.4324 19.6724 19.305 19.4782 19.1657C18.8625 18.7403 18.2409 17.9776 18.0165 17.386C18.6638 18.1877 19.519 18.865 20.4496 19.3449C20.4685 19.315 20.4884 19.2866 20.5103 19.2608C20.5371 19.1329 20.4433 19.0241 20.3912 18.9146C20.0764 18.2504 19.974 17.553 20.0364 16.8245C20.1576 15.8759 20.6858 15.0577 20.8363 14.1106C20.8992 13.7435 20.9594 13.284 21.4225 13.1192C21.3547 12.8475 21.0634 12.9771 20.8903 12.9033C20.957 12.8478 21.0555 12.8337 21.1101 12.754C21.4212 12.1233 21.5119 11.3978 21.9691 10.8317C22.0201 10.7639 22.0744 10.6842 22.012 10.5902Z" fill="#D14C38"/>
<path d="M22.8139 27.1545C22.7658 26.993 22.7177 26.8312 22.6695 26.6699C22.6956 26.6243 22.6668 26.5908 22.6445 26.556C22.6312 26.538 22.6295 26.5185 22.6388 26.4983C22.4688 24.5326 21.8182 22.6285 21.0268 20.8313C20.9961 20.7647 20.9118 20.6877 20.9811 20.6172C24.6301 21.5632 25.1857 26.0815 25.6217 29.2929C25.6728 29.8654 25.7045 30.441 25.812 31.0074C25.7948 31.0739 25.7474 31.1169 25.6863 31.1298C25.4625 31.1503 24.3427 31.4745 24.5542 30.976C24.65 30.6487 24.7025 30.733 24.5753 30.4127C24.3469 29.7113 24.0777 29.0302 23.6712 28.4085C23.192 27.614 23.9281 25.9757 23.2261 24.8838C23.1389 24.7008 22.9399 24.7148 22.9662 24.9425C22.967 25.2078 22.9515 25.4729 22.9883 25.7385C23.0387 26.0998 23.0259 26.4648 23.0011 26.827C22.9925 26.9543 23.006 27.121 22.8139 27.1545Z" fill="#F47224"/>
<path d="M29.748 28.6503C29.9702 28.7334 30.2081 28.6544 30.4361 28.7126C30.6089 28.7815 30.7923 28.7106 30.9668 28.7545C31.1505 28.8405 31.3564 28.7656 31.5489 28.8038C31.5832 28.8105 31.6172 28.8171 31.6515 28.8237C31.752 28.8845 31.872 28.8116 31.9728 28.8708C32.2816 29.0334 32.3353 29.2551 32.0962 29.494C29.3575 32.1205 31.1508 30.9036 28.1807 31.08C28.0144 31.0888 27.867 31.19 27.7231 31.2765C27.3323 31.6105 26.9195 31.6277 27.3392 31.0516C27.5862 30.7243 27.44 30.7558 27.1443 30.8338C25.4011 31.2267 26.376 30.7046 27.0909 30.0247C27.5088 29.6466 27.9336 29.2757 28.3555 28.902C28.4814 28.7904 28.6137 28.6892 28.7831 28.6517C28.9208 28.6369 29.0573 28.5958 29.1973 28.6325C29.3806 28.6477 29.5672 28.6128 29.748 28.6503Z" fill="#F7F7F4"/>
<path d="M26.1372 30.8946C26.453 30.881 26.7547 30.7652 27.0721 30.7662C27.1827 30.7859 27.2309 30.8928 27.3143 30.9558C27.5965 31.1358 27.1899 31.2584 27.1978 31.4851C27.1219 31.7372 26.6362 31.7458 26.4166 31.8301C25.0849 32.1615 23.6966 32.0125 22.3758 32.4057C21.8175 32.5372 21.2543 32.6212 20.6754 32.604C20.0071 32.584 19.8973 32.4971 19.8239 31.8129C19.808 31.7399 19.8516 31.6963 19.9039 31.6604C20.6834 31.088 21.4721 30.4535 22.4645 30.3336C23.1098 30.2574 23.7569 30.3759 24.406 30.3641C24.5918 30.35 24.8184 30.5394 24.7324 30.7385C24.5636 30.7834 24.3955 30.6195 24.2462 30.7734C24.3468 30.9261 24.5559 30.7935 24.6588 30.9344C24.5769 31.1641 24.5892 31.1942 24.8042 31.1544C25.1388 31.0926 25.4821 31.0971 25.8118 31.0073C25.928 31.0376 26.0876 30.9812 26.1372 30.8946Z" fill="#ED7655"/>
<path d="M28.9348 34.4602C28.5488 34.5785 28.1899 34.7794 27.7854 34.8419C27.669 34.7955 27.649 34.6857 27.6289 34.584C27.562 34.0646 26.6347 33.8844 26.9638 33.2908C26.9517 33.2559 26.9085 33.2891 26.8793 33.2965C26.7698 33.3082 26.7464 33.2132 26.6977 33.1491C26.6597 33.0224 26.7516 32.9086 26.8262 32.8161C27.0978 32.6055 27.1671 32.6247 27.2469 32.9468C27.289 33.1166 27.3771 33.2546 27.4976 33.3752C27.5273 33.4048 27.5592 33.4593 27.6044 33.432C27.6787 33.3438 27.573 33.1249 27.5246 33.0349C27.3955 32.7557 27.1443 32.2186 27.5416 32.0456C27.6099 32.0523 27.6517 32.1004 27.6759 32.1542C27.9027 32.5795 28.0851 32.0918 28.4552 32.5377C28.5947 32.6736 28.7287 32.8147 28.8688 32.95C28.9078 32.9879 28.9494 33.0797 29.0119 33.0205C29.0526 32.982 29.0042 32.9022 28.9659 32.8539C28.7383 32.5678 28.4684 32.3275 28.1701 32.1178C28.0477 32.0319 27.9115 31.9507 27.9395 31.7636C28.0012 31.5965 28.1123 31.3821 28.3231 31.4093C28.4354 31.4919 28.5776 31.5255 28.6792 31.6266C28.8525 31.8298 29.084 31.958 29.2958 32.1115C30.623 32.8958 29.7746 33.7489 28.9348 34.4602Z" fill="#ED7655"/>
<path d="M26.8141 32.9699C26.5941 33.1134 26.1351 33.0447 26.4352 32.7363C26.5187 32.6346 26.6113 32.5361 26.7259 32.4735C27.2128 32.2071 27.4479 31.7575 27.6219 31.2606C27.7794 31.0416 28.0192 30.9578 28.2611 30.9584C28.7938 30.9596 29.3328 30.873 29.8567 31.0889C30.0241 31.1578 30.2403 31.1067 30.4343 31.1106C30.2893 31.2713 30.1444 31.432 29.9994 31.5927C29.8084 31.732 29.6701 31.5954 29.538 31.4915C29.1286 31.1286 28.7489 31.4456 28.2935 31.4451C28.1948 31.5613 28.0318 31.5734 27.9167 31.6658C27.8268 31.7414 27.8411 31.8766 27.7742 31.9702C27.729 32.0323 27.678 32.0839 27.5917 32.0687C27.3928 32.168 27.395 32.3457 27.432 32.5228C27.5134 32.993 27.7838 33.0449 27.7189 33.5766C27.7172 33.6389 27.7076 33.7296 27.6213 33.6461C27.4199 33.4507 27.1983 33.2661 27.1514 32.9604C27.1399 32.8865 27.1859 32.7695 27.1007 32.7477C27.0087 32.724 26.9188 32.7913 26.8785 32.8934C26.8689 32.9292 26.8464 32.9535 26.8141 32.9699Z" fill="#FAE3C7"/>
<path d="M28.7725 31.3144C29.4277 30.9094 29.5144 31.627 29.9984 31.5925C30.251 31.9582 31.0607 32.2424 30.5778 32.7457C30.393 32.9917 30.2265 33.2523 30.0081 33.4717C29.8956 33.386 29.9181 33.2715 29.9429 33.1574C30.0401 32.7058 29.9451 32.4743 29.553 32.2488C29.2543 32.0768 28.9626 31.8948 28.6911 31.6821C28.6044 31.5344 28.8614 31.463 28.7725 31.3144Z" fill="#ED7655"/>
<path d="M19.4003 20.6445C19.5411 20.5131 19.7554 20.4498 19.7914 20.2207C20.0139 20.1883 21.817 23.6757 21.026 22.7026C20.6983 22.1371 20.3416 21.5925 19.8781 21.1263C19.7187 20.9658 19.4938 20.871 19.4003 20.6445Z" fill="#FAE3C7"/>
<path d="M28.6455 31.626C29.0633 31.8118 29.4471 32.0603 29.8266 32.3104C30.0955 32.4878 30.0903 32.7925 30.0411 33.0787C29.9739 33.5283 30.0843 33.5244 29.6515 33.7869C29.6247 33.7037 29.6572 33.6365 29.6974 33.5636C30.3053 32.492 29.4004 32.4237 28.7573 31.8165C28.6961 31.7643 28.6272 31.7244 28.6302 31.6308L28.6455 31.626Z" fill="#D14C38"/>
<path d="M29.7437 17.9627C30.0451 17.8853 30.3465 17.8856 30.648 17.9627C30.3465 17.9627 30.0451 17.9627 29.7437 17.9627Z" fill="#D14820"/>
<path d="M28.9397 34.4599C28.9748 34.4245 29.01 34.389 29.0451 34.3536C29.0688 34.3996 29.1159 34.4082 29.1577 34.4254C29.0911 34.4757 29.015 34.4654 28.9397 34.4599Z" fill="#D14C38"/>
<path d="M32.3381 18.2407C32.3547 18.2473 32.3713 18.2542 32.3876 18.2608C32.371 18.2539 32.3547 18.2473 32.3381 18.2407Z" fill="#F1463A"/>
<path d="M29.9567 34.2655C29.9372 34.2731 29.9177 34.281 29.8982 34.2886C29.918 34.2808 29.9372 34.2731 29.9567 34.2655Z" fill="#D14820"/>
<path d="M30.6437 34.2901C30.625 34.284 30.6063 34.2781 30.5873 34.2722C30.6063 34.2782 30.625 34.2842 30.6437 34.2901Z" fill="#D14820"/>
<path d="M16.1277 5.4553C15.9501 5.4562 15.7722 5.4571 15.5947 5.45831C15.7719 5.38447 15.9498 5.38927 16.1277 5.4553Z" fill="#FAE3C7"/>
<path d="M17.7664 4.81536C17.6768 4.82661 17.589 4.83816 17.5002 4.81506C17.589 4.75334 17.6777 4.7579 17.7664 4.81536Z" fill="#FAE3C7"/>
<path d="M18.1341 4.77295C18.1247 4.79483 18.1102 4.80577 18.0859 4.79604C18.102 4.78814 18.118 4.78055 18.1341 4.77295Z" fill="#FAE3C7"/>
<path d="M27.6217 31.2606C27.7337 31.4685 27.5617 31.6218 27.5051 31.7896C27.3241 32.3559 26.6594 32.5001 26.3456 32.97C25.904 33.9528 23.6808 34.4602 22.6595 34.5174C22.0991 34.5441 21.5214 34.6365 20.9705 34.493C20.4283 34.2299 19.527 32.1907 19.8308 31.7488C20.0074 32.1036 19.8843 32.4854 20.4134 32.494C21.8744 32.6055 23.2334 31.9354 24.6884 31.9565C25.2854 31.9407 25.8752 31.8444 26.465 31.7558C26.4313 31.9345 26.2851 31.9406 26.1494 31.9627C26.1067 31.9707 26.085 31.9735 26.1381 31.9646C26.3991 31.9354 26.5852 31.7441 26.8156 31.6492C26.9608 31.5959 27.097 31.5064 27.2487 31.4782C27.2844 31.4861 27.2826 31.4457 27.304 31.4351C27.4098 31.3768 27.5159 31.3187 27.6217 31.2606Z" fill="#D14C38"/>
<path d="M16.3393 32.6654C16.0945 32.8294 15.8807 33.0373 15.7124 33.2696C15.1031 34.1361 14.1591 34.417 13.1633 34.5147C13.0587 34.4236 13.0489 34.3003 13.0519 34.1745C12.987 32.5092 13.1417 29.6169 12.0162 28.3334C11.9058 28.1216 11.9082 27.8832 11.9022 27.659C11.9069 26.9429 11.7539 26.2252 11.7732 25.5158C11.8069 25.4243 11.8821 25.3635 11.9399 25.4691C13.7776 27.7121 13.6923 28.3575 13.8423 31.2046C13.9569 32.5367 15.4804 31.491 15.6158 30.6915C15.6533 30.5663 15.6422 30.3638 15.8764 30.4039C15.9668 30.4745 15.9942 30.5778 16.0139 30.6823C16.1047 31.3437 16.3222 32.0003 16.3393 32.6654Z" fill="#D14820"/>
<path d="M21.1577 34.4518C22.5342 34.5177 23.895 34.3172 25.1841 33.821C25.3145 33.8771 25.3317 34.0101 25.382 34.119C25.598 34.5876 25.8752 35.0097 26.2841 35.3336C26.3192 35.3768 26.3386 35.4245 26.3242 35.481C24.0503 36.5752 21.6875 37.5025 19.3332 38.4101C19.2889 38.4248 19.229 38.4757 19.1991 38.4125C19.1797 38.3717 19.2479 38.3489 19.2817 38.3238C19.989 37.7705 20.7525 37.2869 21.4312 36.7006C21.7463 36.5698 21.258 35.1578 21.143 34.8895C21.097 34.7535 21.0273 34.6114 21.1104 34.4621L21.1121 34.465C21.1228 34.4454 21.138 34.4402 21.1577 34.4518Z" fill="#64242A"/>
<path d="M12.0559 28.2989C13.3034 29.2848 13.0955 32.9569 13.1629 34.5144C12.648 34.6216 12.1386 34.7442 11.6767 35.0101C11.575 34.8875 11.6589 34.7604 11.6662 34.6346C11.6728 34.5218 11.6694 34.4086 11.6706 34.2954C11.5382 34.0689 11.6714 33.8457 11.6917 33.6254C11.7425 33.0723 11.8012 32.5206 11.8353 31.9652C11.9037 30.8455 11.9483 29.7257 11.9381 28.6039C11.937 28.4888 11.9402 28.3706 12.0559 28.2989Z" fill="#64242A"/>
<path d="M19.8329 31.7487C19.4609 31.4819 19.1082 31.3647 18.6688 31.5994C18.1552 31.8558 17.6191 32.0618 17.0768 32.2493C16.8791 32.0663 17.0183 31.801 16.9944 31.5749C16.9739 31.4381 16.9532 31.3013 17.0991 31.2133C19.4621 31.2252 21.2348 30.0346 22.9502 28.5529C23.2948 28.8032 22.4451 30.2236 22.2067 30.4622C21.5036 30.6387 20.9074 31.0136 20.3474 31.4602C20.1936 31.5827 20.0585 31.7504 19.8329 31.7487Z" fill="#FAE3C7"/>
<path d="M17.0577 31.8505C17.0643 31.9832 17.0708 32.116 17.0773 32.2487C16.8479 32.4162 16.5872 32.5281 16.3406 32.6648C16.2432 32.6058 16.2497 32.5043 16.2296 32.4092C16.0576 31.6362 16.0176 30.8199 15.695 30.1044C15.6656 29.7276 15.3391 28.6707 15.5065 28.4165C15.7219 28.3511 15.703 28.5459 15.7321 28.646C15.9646 29.4887 16.1635 30.3411 16.3977 31.1836C16.4605 31.416 16.5737 31.5675 16.8454 31.5141C17.0952 31.4872 17.0474 31.6821 17.0577 31.8505Z" fill="#64242A"/>
<path d="M21.1133 34.4625C21.2067 34.7979 21.3582 35.119 21.3617 35.4766C21.1587 35.2044 21.0354 34.8901 20.8926 34.586C20.8937 34.4605 21.0166 34.4514 21.1133 34.4625Z" fill="#D14820"/>
<path d="M21.0125 34.4591C20.9712 34.5014 20.9297 34.5436 20.888 34.5857C20.761 34.4821 20.6631 34.3587 20.6255 34.1946C20.7987 34.2177 20.9031 34.3421 21.0125 34.4591Z" fill="#64242A"/>
<path d="M15.5449 28.3985C15.5905 29.0754 15.7703 29.7319 15.8364 30.4063C15.7454 30.4482 15.7633 30.5374 15.7449 30.6124C15.6868 31.5107 13.9113 32.73 13.7424 31.2995C13.6138 29.624 13.7639 27.6799 12.4986 26.3778C12.2526 26.1357 11.9943 25.9032 11.8986 25.5509C11.8604 25.4469 11.8177 25.5094 11.8383 25.5782C12.145 28.4597 12.1664 31.4397 11.6699 34.295C10.4439 35.1087 8.86067 33.9994 7.89257 33.2322C5.84328 31.3204 7.98185 28.5449 7.96859 26.2562C8.01124 24.3478 9.48757 23.8501 10.1145 22.2485C10.4873 21.3143 12.4024 18.1459 13.4249 18.2795C15.702 20.4466 16.6222 23.6289 16.9141 26.743C16.873 27.2674 16.4054 27.6967 15.9296 27.295C15.714 27.1286 15.4877 26.9744 15.3012 26.7723C15.0338 26.3851 15.7104 28.2654 15.5449 28.3985Z" fill="#F47224"/>
<path d="M26.3223 35.4815C26.122 35.212 25.8619 34.9818 25.8042 34.6293C25.7196 34.3 25.8817 33.7077 26.3001 34.0464C26.4174 34.0996 26.7921 34.439 26.8396 34.1794C26.8455 33.9969 26.6981 33.8702 26.6836 33.6938C26.6228 33.5902 26.5911 33.1585 26.7383 33.1304C26.828 33.1455 26.8146 33.257 26.886 33.2893C26.9146 33.3043 26.9303 33.3316 26.9357 33.3632C26.9236 33.6313 27.1048 33.8529 27.2948 33.9724C27.6399 34.1774 27.7209 34.4864 27.7858 34.8417C27.6018 35.0008 27.3664 35.0543 27.1517 35.1487C26.879 35.2685 26.6153 35.4122 26.3223 35.4815Z" fill="#D14C38"/>
<path d="M21.0508 12.7639C21.2766 11.9973 21.5124 11.2352 22.0114 10.5904C22.2461 10.5348 22.4432 10.3712 22.6908 10.3534C22.811 10.3134 22.9408 10.324 23.0669 10.3202C23.1336 10.3555 23.2143 10.3105 23.2788 10.3577C24.0071 10.4878 24.1179 11.1915 24.9755 11.0676C25.0627 11.0509 25.1492 11.0039 25.2371 11.0412C25.3498 11.0954 25.367 11.2069 25.3815 11.3095C25.5829 12.1781 25.256 12.9806 25.0269 13.8185C24.6551 13.9213 24.0356 13.6806 23.9009 14.1924C23.7076 14.3084 23.5729 14.4874 23.4605 14.6793C23.5673 14.5074 23.6762 14.3327 23.8568 14.2272C23.966 14.2153 24.0746 14.2134 24.1822 14.1829C24.2824 14.1365 24.3959 14.1969 24.4951 14.143C24.6371 14.1443 24.7796 14.0873 24.9191 14.1265C24.9965 14.2177 24.9196 14.2917 24.8857 14.3648C24.5795 14.9093 24.4222 15.261 23.7598 15.0397C23.6232 15.0024 23.6232 15.0024 23.5893 15.0972C23.6635 15.1638 23.7377 15.2305 23.8119 15.2975C23.8286 15.3309 23.8493 15.3571 23.8929 15.3439C24.027 15.4411 24.1848 15.3463 24.3225 15.4119C24.2964 16.7581 23.3425 17.8394 22.4343 18.7323C22.2975 18.6371 22.3897 18.4468 22.4776 18.3528C22.5932 18.2176 22.6725 18.0616 22.7502 17.9042C22.8645 17.6737 22.8293 17.6062 22.5728 17.5406C22.2744 17.4639 21.9748 17.4178 21.6684 17.4874C21.5648 17.4998 21.4788 17.4 21.378 17.4431C21.332 17.4688 21.2694 17.4661 21.2347 17.4261C21.2602 17.8723 21.6288 18.2127 21.856 18.5763C21.8821 18.6797 21.9598 18.7237 22.0488 18.7688C22.1348 18.8125 22.2507 18.849 22.2289 18.9885C22.0353 19.2328 21.8178 19.4469 21.5197 19.5597C21.1936 19.622 20.786 19.6363 20.5306 19.4004C20.505 19.3958 20.4873 19.3594 20.4684 19.3551C20.4502 19.1812 20.3381 19.0482 20.2679 18.897C19.3145 16.734 20.5386 15.606 20.8545 13.5804C20.9648 12.9941 21.4511 13.0208 21.8797 13.2765C22.0171 13.3602 22.1394 13.467 22.2878 13.5326C22.4206 13.6042 22.5322 13.714 22.69 13.7262C22.7072 13.7318 22.7153 13.7507 22.7314 13.7586C22.5273 13.2962 22.0539 13.0864 21.6054 12.9401C21.4522 12.9005 21.3008 12.8489 21.1435 12.8278C21.1054 12.817 21.0736 12.7971 21.0508 12.7639Z" fill="#ED7655"/>
<path d="M14.6096 13.9158C14.7773 12.7273 15.64 12.8288 15.6458 12.3491C15.652 12.1829 15.6794 12.0174 15.6976 11.8515C15.7996 11.7629 15.9061 11.7046 16.0355 11.8021C16.0438 12.0185 15.9912 12.2339 16.0235 12.4508C16.0912 12.5052 15.9157 12.6458 15.9394 12.777C15.961 13.5719 16.8925 13.3534 16.8397 14.4877C16.866 13.2606 15.9017 13.6155 15.9457 12.7043C15.9897 12.4364 16.2651 12.4712 16.4684 12.5151C16.7488 12.547 16.9636 12.703 17.1258 12.9158C17.6676 13.6257 17.8511 14.4106 17.5725 15.2803C17.4684 15.6054 17.2875 15.7337 16.999 15.47C16.9092 15.3882 16.7699 15.3743 16.7001 15.2614C16.6777 15.1775 16.7251 15.0986 16.7676 15.0325C16.5356 15.9162 14.764 14.6075 14.6096 13.9158Z" fill="#F7F7F4"/>
<path d="M14.6118 13.9158C15.1758 14.5311 15.4313 15.0212 16.3295 15.2295C16.4419 15.2561 16.5543 15.2897 16.6557 15.1992C16.6744 15.1825 16.692 15.1838 16.7083 15.2031C16.8764 15.3236 17.0869 15.3613 17.2422 15.5221C17.3505 15.6345 17.3973 15.468 17.429 15.3923C17.8967 14.3049 17.4134 13.0753 16.4907 12.5031C18.4148 12.6236 18.5553 16.0171 16.7096 16.427C15.2614 16.8494 14.1826 15.2082 14.6118 13.9158Z" fill="#9AA4B4"/>
<path d="M22.9079 6.3227C22.8168 6.3025 22.7253 6.2826 22.6339 6.2624C22.5189 6.19587 22.3804 6.27874 22.2629 6.21636C21.7932 6.14537 21.2953 6.19171 20.8402 6.26626C20.774 6.31913 20.6861 6.26656 20.6181 6.31201C20.584 6.31587 20.5503 6.31943 20.5163 6.323C20.477 6.36815 20.387 6.31676 20.3651 6.37795C20.3181 6.41597 20.2477 6.37497 20.2045 6.42606L20.2018 6.42161C19.5252 6.60844 18.8738 6.99101 18.2993 7.44546C18.1164 7.48704 18.0738 7.39051 18.0916 7.23368C18.5427 6.8324 19.0525 6.52883 19.6166 6.31616C19.8116 6.23329 20.0163 6.17983 20.2178 6.10438C20.2702 6.05033 20.3486 6.10409 20.4033 6.05983C20.429 6.05597 20.4545 6.05151 20.4802 6.04765C20.5343 5.99894 20.6127 6.0533 20.666 6.0028C20.6879 6.00161 20.7098 6.00013 20.7314 5.99864C20.8201 5.93508 20.9373 6.01112 21.0222 5.93924C21.1098 5.90092 21.2024 5.92706 21.2926 5.91934C21.6272 5.93181 21.968 5.89409 22.299 5.93508C22.3979 6.02062 22.5339 5.92587 22.6369 6.00191C22.7076 6.02003 22.7786 6.03845 22.8496 6.05656C22.896 6.09874 22.9668 6.05805 23.0117 6.10646C23.0528 6.15488 23.1271 6.10824 23.167 6.16022C23.2002 6.18904 23.2478 6.1825 23.2821 6.20805C23.5738 6.323 23.8442 6.473 24.0723 6.69279C24.1123 6.7219 24.1401 6.7721 24.1833 6.79081C24.2099 6.85022 24.2149 6.89893 24.1285 6.9022C23.9173 6.77537 23.7182 6.62715 23.4874 6.53448C23.4502 6.47745 23.3688 6.5318 23.3324 6.4721C23.1993 6.41329 23.0457 6.37676 22.9079 6.3227Z" fill="#F7F7F4"/>
<path d="M18.0954 7.23407C18.1486 7.32042 18.1903 7.41804 18.3031 7.44577C17.1907 8.42222 16.5446 9.73948 16.0341 11.0989C15.262 12.5952 16.3482 8.32981 18.0954 7.23407Z" fill="#9AA4B4"/>
<path d="M15.7721 11.4311C16.1154 10.8082 16.2742 10.099 16.6527 9.4943C16.6955 9.4312 16.741 9.40172 16.7654 9.50862C16.4474 10.2244 16.2051 10.9661 16.0701 11.7408C15.7633 11.872 15.6741 11.7483 15.7721 11.4311Z" fill="#F7F7F4"/>
<path d="M22.4101 18.5966C22.4684 18.7551 22.3467 18.8921 22.2271 18.9886C22.1046 18.836 21.8327 18.8543 21.7939 18.6063C21.9977 18.4997 22.2035 18.5227 22.4101 18.5966Z" fill="#D14C38"/>
<path d="M24.1348 6.90241C24.1531 6.86509 24.1713 6.82807 24.1896 6.79104C24.4309 6.96537 24.5979 7.20559 24.7666 7.44464C24.7837 7.45397 24.7869 7.48575 24.7762 7.49303C24.7741 7.52248 24.7268 7.50236 24.7137 7.48691C24.5503 7.26273 24.3255 7.09918 24.1348 6.90241Z" fill="#F7F7F4"/>
<path d="M15.7412 11.5706C15.7182 11.8784 16.087 11.6707 16.0478 11.8126L16.0358 11.8021C15.9232 11.8186 15.8107 11.8349 15.6979 11.8514C15.6937 11.7549 15.666 11.6547 15.7412 11.5706Z" fill="#9AA4B4"/>
<path d="M16.4876 12.5023C16.4845 12.5164 16.484 12.5308 16.4863 12.5452C16.3301 12.5442 16.1738 12.5429 16.0176 12.5419C16.0143 12.3938 16.3877 12.475 16.4876 12.5023Z" fill="#F7F7F4"/>
<path d="M24.1871 6.79156C24.1682 6.77463 24.149 6.7577 24.1304 6.74078C24.1618 6.7437 24.1809 6.76033 24.1871 6.79156Z" fill="#F7F7F4"/>
<path d="M24.1318 6.74053C24.1135 6.72476 24.0955 6.70898 24.0771 6.69292C24.1077 6.69467 24.1257 6.71074 24.1318 6.74053Z" fill="#F7F7F4"/>
<path d="M22.2268 30.4162C22.4392 29.7789 22.9741 29.2686 22.9495 28.5531C23.0352 28.0737 22.8887 27.6178 22.8114 27.1545C23.0092 26.7101 22.8985 26.248 22.8865 25.7921C22.8789 25.5001 22.8515 25.2086 22.8372 24.9168C22.8307 24.7814 22.831 24.6334 22.9932 24.5884C23.1545 24.5438 23.2316 24.6767 23.3029 24.7865C23.7744 25.5852 23.6656 26.5724 23.595 27.4611C23.532 27.8444 23.6262 28.1961 23.8464 28.5195C24.2499 29.1119 24.5007 29.771 24.6649 30.4658C23.9149 30.5444 23.175 30.3251 22.4291 30.4284C22.3604 30.446 22.2917 30.4621 22.2268 30.4162Z" fill="#64242A"/>
<path d="M15.5474 28.3997C15.3574 27.7854 15.2504 27.1501 15.0786 26.5306C15.0716 26.4987 15.0722 26.4444 15.0903 26.4322C15.1249 26.4092 15.15 26.4498 15.1696 26.4788C15.4027 26.8243 15.7622 27.0295 16.0709 27.2898C16.278 27.4644 16.5285 27.3935 16.6977 27.1361C16.7799 27.0109 16.8149 26.8587 16.9167 26.7441C17.1442 28.2229 17.0757 29.7233 17.0996 31.214C17.0807 31.2704 17.0867 31.6957 17.0183 31.5964C16.4213 31.6345 16.4136 31.6366 16.247 31.0287C16.0074 30.1542 15.7801 29.2763 15.5474 28.3997Z" fill="#D14820"/>
<path d="M15.8386 20.0793C17.0541 19.2853 16.6986 16.9274 18.0911 19.4887C18.3282 19.8832 18.5683 20.2749 18.8833 20.6143C18.9112 20.6441 18.9187 20.693 18.9358 20.7329C17.9721 20.9517 16.7085 20.5109 15.8386 20.0793Z" fill="#ED7655"/>
<path d="M22.6261 26.5974C22.644 26.4867 22.6997 26.6168 22.6651 26.6705C22.6522 26.6459 22.639 26.6218 22.6261 26.5974Z" fill="#ED7655"/>
<path d="M21.3699 12.7961C21.8182 12.9515 22.7357 13.1422 22.7311 13.7366C22.6288 13.9917 22.345 13.6252 22.2145 13.5566C22.1927 13.5197 22.134 13.535 22.1185 13.4888C22.1094 13.4975 22.0721 13.4618 22.0589 13.4465C22.0421 13.4215 21.9599 13.4175 21.9632 13.3848C21.9213 13.3833 21.9083 13.3328 21.872 13.327C21.8362 13.3316 21.8144 13.3099 21.7948 13.2844C21.774 13.2607 21.7128 13.265 21.6892 13.2304C21.6631 13.186 21.5603 13.2411 21.5389 13.1626C21.5092 13.1616 21.4471 13.1588 21.4204 13.1195C21.216 12.9844 20.9591 13.0252 20.7279 12.9849C20.4242 12.9039 20.9711 12.7856 21.0495 12.7642C21.1564 12.7769 21.2648 12.7741 21.3699 12.7961Z" fill="#121010"/>
<path d="M14.3437 19.3022C14.2967 19.2791 14.2757 19.236 14.2581 19.1904C14.3525 19.1809 14.5414 19.3546 14.3437 19.3022Z" fill="#FAE3C7"/>
<path d="M14.3425 19.3026C14.3851 19.3043 14.45 19.2721 14.4472 19.3368C14.4059 19.3888 14.3594 19.3458 14.3425 19.3026Z" fill="#F7F7F4"/>
<path d="M24.6554 30.9344C24.5439 30.9397 24.4322 30.9493 24.3207 30.9493C24.1441 30.9493 24.0425 30.8724 24.0675 30.6791C24.2897 30.6552 24.9331 30.5557 24.6554 30.9344Z" fill="#121010"/>
<path d="M27.249 31.0139C27.1378 30.9867 27.1064 30.8927 27.121 30.7842C27.1997 30.6969 27.4559 30.6872 27.5585 30.7454C27.662 30.823 27.5037 30.9909 27.4238 31.0265C27.3652 31.0273 27.3061 31.036 27.249 31.0139Z" fill="#121010"/>
<path d="M27.1753 30.7445C27.1611 30.7734 27.1519 30.8196 27.11 30.8056C27.031 30.7497 27.1243 30.7614 27.1753 30.7445Z" fill="#ED7655"/>
<path d="M23.383 31.1653C25.0775 31.212 22.7611 31.394 22.2972 31.376C22.2579 31.376 22.1947 31.3972 22.186 31.3466C22.1385 31.2306 23.2692 31.1405 23.383 31.1653Z" fill="#D14C38"/>
<path d="M26.8182 31.6494C26.5191 32.0228 25.7188 32.0816 26.0547 31.9513C26.1968 31.8957 26.3705 31.9074 26.4677 31.7561C26.5845 31.7207 26.7014 31.685 26.8182 31.6494Z" fill="#64242A"/>
<path d="M24.66 30.6779C24.4622 30.6782 24.2647 30.6786 24.0669 30.679C24.2644 30.5836 24.4622 30.6081 24.66 30.6779Z" fill="#64242A"/>
<path d="M27.7271 31.9324C27.7159 31.8847 27.7145 31.8388 27.7486 31.7985C27.8253 31.7684 27.8919 31.688 27.9873 31.7497C27.9801 31.8616 28.0414 31.9254 28.1317 31.9806C28.4545 32.1982 28.9649 32.5942 29.1257 32.9457C29.1524 33.0421 29.191 33.145 29.085 33.2076C28.9713 33.2749 28.9414 33.1461 28.8812 33.0934C28.6114 32.8562 28.4087 32.5448 28.0861 32.3654C27.9607 32.2258 27.8008 32.1149 27.7271 31.9324Z" fill="#D14C38"/>
<path d="M26.7365 33.1303C26.7426 33.5537 26.1245 33.8621 25.8613 33.4999C25.8966 33.3014 26.1192 33.3394 26.1878 33.1277C26.2208 33.1028 26.2588 33.06 26.2949 33.0211C26.2898 33.028 26.3574 32.9668 26.3438 32.9699C26.4975 32.9659 26.8562 32.8637 26.7365 33.1303Z" fill="#9AA4B4"/>
<path d="M27.7288 31.9319C27.9214 32.0152 28.0717 32.134 28.0878 32.365C27.8256 32.5324 27.681 32.4454 27.5951 32.0683C27.6397 32.0228 27.6841 31.9774 27.7288 31.9319Z" fill="#121010"/>
<path d="M28.6501 31.626C28.5137 31.6249 28.3701 31.5796 28.2981 31.4449C28.3723 31.3482 28.4949 31.3584 28.5916 31.312C28.6483 31.2786 28.7163 31.3168 28.7781 31.3143C28.8279 31.3651 28.9513 31.3482 28.9301 31.4607C28.8975 31.5769 28.7402 31.57 28.6501 31.626Z" fill="#121010"/>
<path d="M26.8892 33.2895C26.9078 33.2081 26.8215 33.0754 26.8994 33.0563C26.9954 33.033 27.0119 33.183 27.0637 33.2565C27.1571 33.3747 27.0637 33.5081 26.9362 33.3942C26.9131 33.3855 26.9108 33.3127 26.8839 33.2877L26.8892 33.2895Z" fill="#121010"/>
<path d="M12.6542 18.5671C12.6548 18.5897 12.6435 18.5995 12.6213 18.5971C12.6324 18.5871 12.6433 18.5771 12.6542 18.5671Z" fill="#D14820"/>
<path d="M26.0409 33.975C25.7722 34.3114 25.874 34.6462 26.0463 34.9801C26.1136 35.1106 26.2383 35.2121 26.2435 35.3741C25.6983 35.0068 25.3695 34.4365 25.1851 33.8209C25.4075 33.5116 26.0059 33.5304 26.0409 33.975Z" fill="#D14820"/>
<path d="M26.0362 33.9755C25.9387 33.8256 25.7597 33.7578 25.666 33.604C25.8034 33.3921 26.0597 33.5629 26.2407 33.6029C26.4243 33.59 26.6116 33.5611 26.7555 33.7216C26.7651 33.7564 26.7745 33.7911 26.7838 33.8259C26.401 34.0578 26.8401 34.0295 26.9262 34.2018C26.8118 34.4224 26.7656 34.4402 26.57 34.3199C26.3897 34.209 26.2139 34.0906 26.0362 33.9755Z" fill="#64242A"/>
<path d="M21.1586 34.4524C21.1441 34.4589 21.1289 34.4634 21.113 34.4656C21.1224 34.4408 21.1369 34.4344 21.1586 34.4524Z" fill="#BF272A"/>
<path d="M15.041 26.2611L15.0456 26.2757C15.0271 26.2739 15.0346 26.2734 15.041 26.2611Z" fill="#D14820"/>
<path d="M26.931 34.2014C26.8284 34.2072 26.0494 33.9367 26.4786 33.8783C26.5821 33.8616 26.6852 33.8432 26.7888 33.8255C26.9178 33.9197 26.9451 34.0526 26.931 34.2014Z" fill="#D14820"/>
<path d="M26.7613 33.722C26.576 33.742 26.4133 33.6636 26.2466 33.6033C26.4012 33.4963 26.58 33.4253 26.7138 33.2867C26.7296 33.4318 26.7455 33.5769 26.7613 33.722Z" fill="#F7F7F4"/>
<path d="M22.412 18.5972C22.208 18.687 22.0019 18.657 21.7957 18.6071C21.5695 18.3565 21.3662 18.0898 21.227 17.7791C21.1727 17.6584 21.1141 17.5349 21.1843 17.3986C21.2352 17.3168 21.2368 17.4107 21.3304 17.4382C21.4237 17.369 21.5102 17.4637 21.601 17.4494C21.9558 17.241 22.401 17.378 22.7654 17.4939C22.9674 17.5619 22.9672 17.7056 22.8656 17.8957C22.733 18.1441 22.5872 18.3789 22.412 18.5972Z" fill="#BF272A"/>
<path d="M20.9978 14.4601C20.9563 14.3697 20.8115 14.2696 20.879 14.2028C20.9492 14.133 21.053 14.2703 21.1363 14.3226C21.3398 14.4503 21.5632 14.5148 21.7927 14.5693C21.8966 14.594 22.0289 14.5809 22.0672 14.7261C21.8409 14.7879 21.6035 14.8695 21.3737 14.7712C21.2919 14.7115 21.207 14.7468 21.1783 14.6435C21.0963 14.6827 21.1343 14.5747 21.1154 14.608L21.125 14.5984C21.0646 14.6028 21.085 14.5309 21.0462 14.5146C21.0322 14.4946 21.0162 14.4761 20.9978 14.4601Z" fill="#121010"/>
<path d="M23.077 16.8726C22.7531 17.1547 22.5074 16.4852 22.1336 16.5781C22.0658 16.586 21.9781 16.4952 21.9904 16.4241C22.0403 16.3386 22.0658 16.5269 22.3577 16.4356C22.5013 16.412 22.6329 16.4288 22.7424 16.5499C22.7988 16.6119 22.887 16.645 22.9605 16.6913C22.9923 16.7563 23.0809 16.7845 23.077 16.8726Z" fill="#D14C38"/>
<path d="M23.8595 14.1905C23.8448 14.3778 23.4197 14.6488 23.4415 14.8883C23.4442 14.9299 23.506 15.0072 23.4094 15.0023C23.3366 14.9986 23.3192 14.9127 23.3408 14.8548C23.4433 14.5794 23.5702 14.3202 23.8595 14.1905Z" fill="#D14C38"/>
<path d="M23.0766 16.8721C22.9808 16.8485 22.8772 16.8299 22.9603 16.6909C23.0891 16.6849 23.3005 16.5743 23.3966 16.6925C23.3522 16.8645 23.2089 16.8587 23.0766 16.8721Z" fill="#BF272A"/>
<path d="M21.3727 14.77C21.6076 14.8089 21.8345 14.7195 22.0678 14.7263C22.3752 14.8448 21.2994 14.9065 21.3727 14.77Z" fill="#D14C38"/>
<path d="M23.3987 16.6926C23.0146 16.697 23.4302 16.4477 23.4758 16.5874C23.495 16.6513 23.4506 16.6766 23.3987 16.6926Z" fill="#D14C38"/>
<path d="M21.1837 14.6435C21.2593 14.6683 21.3279 14.7044 21.3764 14.771C21.2828 14.7732 21.1842 14.7827 21.1837 14.6435Z" fill="#D14C38"/>
<path d="M21.0729 14.5806C21.0848 14.5926 21.102 14.5994 21.127 14.5989C21.1241 14.5874 21.1202 14.577 21.1154 14.5675C21.1013 14.5723 21.0872 14.5767 21.0729 14.5806Z" fill="#D14C38"/>
<path d="M21.127 14.5967C21.1454 14.6125 21.1638 14.6281 21.1825 14.644C21.1449 14.651 21.127 14.6345 21.127 14.5967Z" fill="#D14C38"/>
<path d="M15.9577 12.7081C16.0611 13.5879 16.9809 13.3473 16.8601 14.4968C16.8413 14.543 16.8398 14.5464 16.826 14.4952C16.7815 13.2992 15.8326 13.5354 15.9228 12.8784C15.9393 12.8324 15.8981 12.6357 15.9577 12.7081Z" fill="#9AA4B4"/>
<path d="M15.7024 12.9979C15.7072 13.173 15.5617 13.3367 15.3834 13.3667C15.3581 13.3708 15.3267 13.3777 15.3239 13.3479C15.3218 13.328 15.3436 13.2957 15.3634 13.2855C15.4904 13.2198 15.5454 13.1079 15.5817 12.9765C15.5964 12.9238 15.5614 12.8215 15.6311 12.8279C15.7013 12.834 15.6955 12.9373 15.7024 12.9979Z" fill="#F7F7F4"/>
<path d="M15.9575 12.7075C15.9473 12.7118 15.9369 12.7159 15.9264 12.7195C15.9106 12.635 15.9488 12.5791 16.0208 12.5422C16.0203 12.6053 16.0188 12.668 15.9575 12.7075Z" fill="#F7F7F4"/>
<path d="M16.7098 15.203C16.5944 15.2177 16.7026 15.045 16.766 15.0443C16.7662 15.104 16.7641 15.1628 16.7098 15.203Z" fill="#F7F7F4"/>
<path d="M16.7587 15.0402C16.7558 14.9887 16.7626 14.9394 16.7818 14.8915C16.8261 14.9113 16.8129 14.949 16.8037 14.98C16.7984 14.9935 16.7715 15.0455 16.7587 15.0402Z" fill="#F7F7F4"/>
<path d="M16.8257 14.4952C16.8369 14.4981 16.8484 14.4988 16.8598 14.4969C16.9026 14.705 16.7795 14.7001 16.8257 14.4952Z" fill="#F7F7F4"/>
<path d="M14.955 13.9209C14.9564 13.8616 14.9607 13.8032 15.0045 13.7566C15.0543 13.7664 14.9929 13.9701 14.955 13.9209Z" fill="#F7F7F4"/>
<path d="M15.0704 13.6644C15.0699 13.6976 15.0404 13.8016 15.0011 13.7564C15.0175 13.7397 15.0533 13.6352 15.0704 13.6644Z" fill="#F7F7F4"/>
<path d="M14.9669 13.9333C14.958 13.9527 14.9577 13.9943 14.9311 13.9797C14.9079 13.9668 14.935 13.938 14.9523 13.9209C14.9521 13.9209 14.9669 13.9333 14.9669 13.9333Z" fill="#F7F7F4"/>
<path d="M15.18 13.5046C15.1795 13.5329 15.1476 13.6259 15.1159 13.6018C15.1149 13.5735 15.1486 13.4741 15.18 13.5046Z" fill="#F7F7F4"/>
<path d="M15.0635 13.6546C15.0814 13.6446 15.1088 13.5907 15.1249 13.6114C15.1068 13.6226 15.0801 13.6791 15.0635 13.6546Z" fill="#F7F7F4"/>
<path d="M15.1672 13.4963C15.1759 13.4885 15.1797 13.4773 15.1896 13.4919C15.1803 13.501 15.1772 13.5103 15.1672 13.4963Z" fill="#F7F7F4"/>
</svg>
