<svg width="38" height="35" viewBox="0 0 38 35" fill="none" xmlns="http://www.w3.org/2000/svg">
<path d="M28.694 5.98689C27.8627 5.19541 26.6573 4.93802 25.5752 5.32093C25.2692 5.42319 25.0463 5.68847 24.9984 6.00749L24.7581 7.65877C24.3937 10.1529 22.2597 12.0051 19.7391 12.0152H16.3061C15.9122 12.0153 15.569 12.2835 15.4736 12.6657L12.8989 22.9645C12.7842 23.4245 13.064 23.8902 13.5239 24.005C13.5917 24.0219 13.6614 24.0305 13.7313 24.0305H18.0225C18.4164 24.0304 18.7597 23.7621 18.855 23.38L20.4084 17.1646H23.7556C26.325 17.1731 28.5664 15.4218 29.1796 12.9266L29.813 10.388C30.2589 8.8264 29.8315 7.14584 28.694 5.98689Z" fill="#03A9F4"/>
<path d="M0.858023 33.2834C0.384035 33.2833 -0.000160869 32.899 5.05322e-08 32.425C5.05322e-08 32.3551 0.00860925 32.2854 0.0255058 32.2176L0.88377 28.8018V28.7658L1.74203 25.3517C1.83738 24.9695 2.18062 24.7013 2.57455 24.7012H4.75791C5.94292 24.7009 6.90369 25.6613 6.90401 26.8463C6.90401 27.0218 6.88253 27.1966 6.84005 27.3669L6.62546 28.2251C6.38674 29.1806 5.52823 29.8508 4.5434 29.8507H2.3874L1.69223 32.6331C1.59672 33.0157 1.25252 33.2841 0.858023 33.2834ZM2.81649 28.134H4.54324C4.74013 28.1334 4.91134 27.999 4.95865 27.8079L5.17324 26.9496C5.23206 26.721 5.09431 26.488 4.86572 26.4293C4.83048 26.4202 4.79428 26.4157 4.75783 26.4159H3.24559L2.81649 28.134Z" fill="#283593"/>
<path d="M10.036 33.2833H8.81392C7.50002 33.2836 6.43465 32.2187 6.43433 30.9048C6.43425 30.7102 6.45814 30.5163 6.50529 30.3275L6.61858 29.8709C6.87259 28.8462 7.79426 28.128 8.84997 28.1321H10.0721C11.386 28.1344 12.4493 29.2013 12.447 30.5152C12.4467 30.7089 12.4227 30.9018 12.3756 31.0896L12.2623 31.5462C12.0081 32.5684 11.0893 33.2852 10.036 33.2833ZM8.17194 30.7446C8.08375 31.0998 8.30019 31.4591 8.65534 31.5473C8.70723 31.5602 8.76042 31.5667 8.81392 31.5668H10.036C10.3007 31.5676 10.5316 31.3877 10.5956 31.1308L10.7089 30.6742C10.7971 30.3191 10.5807 29.9597 10.2255 29.8716C10.1736 29.8587 10.1204 29.8522 10.0669 29.852H8.84482C8.58019 29.8513 8.34927 30.0312 8.28522 30.288L8.17194 30.7446Z" fill="#283593"/>
<path d="M11.1569 33.2833C10.6829 33.2832 10.2987 32.8988 10.2988 32.4248C10.2988 32.3549 10.3074 32.2852 10.3243 32.2174L11.1826 28.7844C11.2973 28.3242 11.7634 28.044 12.2237 28.1588C12.6839 28.2735 12.9641 28.7395 12.8493 29.1998L11.9911 32.6328C11.8956 33.0156 11.5513 33.284 11.1569 33.2833Z" fill="#283593"/>
<path d="M21.4557 33.2833C20.9817 33.2831 20.5976 32.8987 20.5977 32.4247C20.5977 32.3548 20.6063 32.2851 20.6232 32.2173L21.4814 28.8016V28.7655L22.3397 25.3514C22.435 24.9693 22.7783 24.701 23.1722 24.7009H25.3556C26.5406 24.7007 27.5013 25.6611 27.5017 26.8461C27.5017 27.0215 27.4802 27.1964 27.4377 27.3666L27.2231 28.2249C26.9844 29.1804 26.1259 29.8506 25.1411 29.8504H22.9851L22.29 32.6328C22.1944 33.0156 21.8502 33.284 21.4557 33.2833ZM23.4142 28.1338H25.1427C25.3396 28.1333 25.5108 27.9988 25.5581 27.8077L25.7727 26.9495C25.8314 26.7209 25.6937 26.4879 25.4652 26.4291C25.4299 26.42 25.3936 26.4155 25.3573 26.4157H23.8433L23.4142 28.1338Z" fill="#03A9F4"/>
<path d="M30.6337 33.2833H29.4116C28.0977 33.2836 27.0323 32.2187 27.032 30.9048C27.0319 30.7102 27.0558 30.5163 27.1029 30.3275L27.2162 29.8709C27.4702 28.8462 28.3919 28.128 29.4476 28.1321H30.6697C31.9836 28.1318 33.049 29.1967 33.0493 30.5106C33.0494 30.7052 33.0255 30.8991 32.9784 31.0879L32.8651 31.5445C32.6111 32.5692 31.6894 33.2874 30.6337 33.2833ZM28.7696 30.7446C28.6814 31.0998 28.8978 31.4591 29.253 31.5473C29.3049 31.5602 29.3581 31.5667 29.4116 31.5668H30.6337C30.8983 31.5676 31.1292 31.3877 31.1933 31.1308L31.3066 30.6742C31.3948 30.3191 31.1783 29.9597 30.8232 29.8716C30.7713 29.8587 30.7181 29.8522 30.6646 29.852H29.4425C29.1778 29.8513 28.9469 30.0312 28.8829 30.288L28.7696 30.7446Z" fill="#03A9F4"/>
<path d="M31.7546 33.2833C31.2806 33.2832 30.8965 32.8988 30.8966 32.4248C30.8966 32.3549 30.9052 32.2852 30.9221 32.2174L31.7804 28.7844C31.8951 28.3242 32.3611 28.044 32.8214 28.1588C33.2817 28.2735 33.5618 28.7395 33.4471 29.1998L32.5888 32.6328C32.4933 33.0156 32.1491 33.284 31.7546 33.2833Z" fill="#03A9F4"/>
<path d="M16.3063 32.4251C16.0192 32.4249 15.7512 32.2813 15.5922 32.0423L13.8757 29.4676C13.6126 29.0733 13.7191 28.5403 14.1135 28.2772C14.5079 28.0141 15.0408 28.1206 15.3039 28.515L17.0203 31.0897C17.2838 31.4837 17.1781 32.0167 16.7842 32.2803C16.6427 32.3748 16.4763 32.4252 16.3063 32.4251Z" fill="#283593"/>
<path d="M14.5896 34.9997C14.1156 34.9995 13.7315 34.6151 13.7317 34.1411C13.7318 33.9405 13.8021 33.7463 13.9305 33.5921L18.2217 28.4427C18.5255 28.0787 19.0669 28.0299 19.4309 28.3337C19.7949 28.6375 19.8437 29.1789 19.5399 29.5429L15.2488 34.6923C15.0855 34.8875 14.844 35 14.5896 34.9997Z" fill="#283593"/>
<path d="M35.1875 33.2834C34.7135 33.2832 34.3294 32.8988 34.3295 32.4249C34.3295 32.3549 34.3381 32.2853 34.355 32.2174L36.0714 25.3516C36.1862 24.8913 36.6522 24.6112 37.1125 24.7259C37.5727 24.8406 37.8529 25.3067 37.7381 25.767L36.0217 32.6328C35.9263 33.0157 35.5821 33.2841 35.1875 33.2834Z" fill="#03A9F4"/>
<path d="M25.8602 1.48473C25.0356 0.540209 23.8425 -0.00120488 22.5886 2.01348e-06H12.8734C12.4583 2.01348e-06 12.1027 0.297059 12.0289 0.705473L8.59589 19.5866C8.51149 20.0531 8.82126 20.4995 9.28769 20.5839C9.33805 20.593 9.38923 20.5976 9.4404 20.5976H14.5898C14.9838 20.5975 15.327 20.3293 15.4223 19.9471L16.9775 13.7317H19.7392C23.1152 13.7185 25.9731 11.2365 26.4592 7.89576L26.8883 4.96228C27.0653 3.70896 26.6902 2.44043 25.8602 1.48473Z" fill="#283593"/>
</svg>
