<svg width="40" height="40" viewBox="0 0 40 40" fill="none" xmlns="http://www.w3.org/2000/svg">
<g clip-path="url(#clip0_7_43875)">
<path d="M35.7031 40H4.29688C1.92758 40 0 38.0724 0 35.7031V4.29688C0 1.92758 1.92758 0 4.29688 0H35.7031C38.0724 0 40 1.92758 40 4.29688V35.7031C40 38.0724 38.0724 40 35.7031 40Z" fill="url(#paint0_linear_7_43875)" fill-opacity="0.74"/>
<path d="M40 35.7031V4.29688C40 1.92758 38.0724 0 35.7031 0H20V40H35.7031C38.0724 40 40 38.0724 40 35.7031Z" fill="url(#paint1_linear_7_43875)"/>
<path d="M29.375 22.7344H10.625C8.68648 22.7344 7.10938 21.1573 7.10938 19.2188V8.28125C7.10938 6.34273 8.68648 4.76562 10.625 4.76562H29.375C31.3135 4.76562 32.8906 6.34273 32.8906 8.28125V19.2188C32.8906 21.1573 31.3135 22.7344 29.375 22.7344Z" fill="#FF6378"/>
<path d="M29.375 4.76562H20V22.7344H29.375C31.3135 22.7344 32.8906 21.1573 32.8906 19.2188V8.28125C32.8906 6.34273 31.3135 4.76562 29.375 4.76562Z" fill="#FF1F3D"/>
<path d="M11.0851 33.3135C11.0829 33.3135 11.0806 33.3135 11.0784 33.3135C10.5483 33.3165 9.98979 33.3187 9.52112 33.3196V26.6794C9.52112 26.0323 8.99643 25.5076 8.34924 25.5076C7.70206 25.5076 7.17737 26.0323 7.17737 26.6794V34.4854C7.17737 35.0562 7.5887 35.544 8.15127 35.6405C8.23565 35.6549 8.29151 35.6645 9.16385 35.6645C9.58471 35.6645 10.1958 35.6623 11.0915 35.6573C11.7387 35.6537 12.2604 35.1261 12.2568 34.4789C12.2532 33.8338 11.7292 33.3135 11.0851 33.3135Z" fill="#FFF5F5"/>
<path d="M31.6508 33.3201H29.5308V31.7576H31.4079C32.0551 31.7576 32.5798 31.2329 32.5798 30.5857C32.5798 29.9385 32.0551 29.4138 31.4079 29.4138H29.5308V27.8513H31.6508C32.2979 27.8513 32.8226 27.3266 32.8226 26.6794C32.8226 26.0323 32.2979 25.5076 31.6508 25.5076H28.3589C27.7117 25.5076 27.187 26.0323 27.187 26.6794V34.4919C27.187 35.1391 27.7117 35.6638 28.3589 35.6638H31.6508C32.2979 35.6638 32.8226 35.1391 32.8226 34.4919C32.8226 33.8448 32.2979 33.3201 31.6508 33.3201Z" fill="white"/>
<path d="M24.8221 25.5817C24.2078 25.3774 23.5445 25.7103 23.3405 26.3244L21.7142 31.2202L20.0047 26.2953C19.7924 25.6838 19.1246 25.3601 18.5133 25.5725C17.9018 25.7847 17.5783 26.4524 17.7904 27.0638L20.4615 34.7591C20.4625 34.7617 20.4633 34.7642 20.4643 34.7668C20.655 35.3044 21.1649 35.664 21.7347 35.664H21.7439C22.3174 35.6602 22.8267 35.2928 23.0113 34.7497C23.0122 34.7471 23.013 34.7446 23.0139 34.7421L25.5647 27.0635C25.7688 26.4491 25.4363 25.7858 24.8221 25.5817Z" fill="#FFF5F5"/>
<path d="M24.822 25.5817C24.2077 25.3774 23.5445 25.7102 23.3405 26.3243L21.7141 31.2201L20.0046 26.2952C20.0033 26.2913 20.0014 26.2877 20 26.2838V33.4294L20.4615 34.7589C20.4624 34.7615 20.4633 34.7641 20.4642 34.7667C20.655 35.3042 21.1648 35.6638 21.7347 35.6638H21.7438C22.3173 35.66 22.8266 35.2926 23.0113 34.7495C23.0121 34.747 23.013 34.7445 23.0138 34.7419L25.5647 27.0633C25.7687 26.449 25.4362 25.7857 24.822 25.5817Z" fill="white"/>
<path d="M14.9912 25.5076C14.344 25.5076 13.8193 26.0323 13.8193 26.6794V34.4919C13.8193 35.1391 14.344 35.6638 14.9912 35.6638C15.6384 35.6638 16.1631 35.1391 16.1631 34.4919V26.6794C16.1631 26.0323 15.6384 25.5076 14.9912 25.5076Z" fill="#FFF5F5"/>
<path d="M16.4844 16.875V10.625C16.4844 9.72527 17.4564 9.16113 18.2377 9.60754L23.7064 12.7325C24.4937 13.1824 24.4937 14.3176 23.7064 14.7675L18.2377 17.8925C17.4564 18.3389 16.4844 17.7748 16.4844 16.875Z" fill="#FFF5F5"/>
<path d="M23.7064 12.7324L20 10.6145V16.8854L23.7064 14.7674C24.4937 14.3175 24.4937 13.1823 23.7064 12.7324Z" fill="#DFDEF5"/>
</g>
<defs>
<linearGradient id="paint0_linear_7_43875" x1="26.2" y1="25.4" x2="20" y2="40" gradientUnits="userSpaceOnUse">
<stop offset="0.254808" stop-color="#64748B"/>
<stop offset="1" stop-color="#1B1F25"/>
</linearGradient>
<linearGradient id="paint1_linear_7_43875" x1="30" y1="0" x2="30" y2="40" gradientUnits="userSpaceOnUse">
<stop stop-color="#D8DEE8"/>
<stop offset="0.5" stop-color="#A9ADB5"/>
<stop offset="1" stop-color="#797C82"/>
</linearGradient>
<clipPath id="clip0_7_43875">
<rect width="40" height="40" fill="white"/>
</clipPath>
</defs>
</svg>
