<svg width="21" height="21" viewBox="0 0 21 21" fill="none" xmlns="http://www.w3.org/2000/svg">
<rect width="20.8015" height="20.8015" rx="9.70738" fill="#1BC469" fill-opacity="0.1"/>
<g clip-path="url(#clip0_7_44072)">
<path d="M14.9076 12.481C14.9076 12.9116 14.5581 13.2611 14.1275 13.2611C13.697 13.2611 13.3475 12.9116 13.3475 12.481C13.3475 12.0504 13.697 11.701 14.1275 11.701C14.5581 11.701 14.9076 12.0504 14.9076 12.481ZM9.4472 5.72052C9.01661 5.72052 8.66714 6.06998 8.66714 6.50057C8.66714 6.93116 9.01661 7.28063 9.4472 7.28063C9.87779 7.28063 10.2273 6.93116 10.2273 6.50057C10.2273 6.06998 9.87779 5.72052 9.4472 5.72052ZM14.6476 7.28063C15.0782 7.28063 15.4276 6.93116 15.4276 6.50057C15.4276 6.06998 15.0782 5.72052 14.6476 5.72052C14.217 5.72052 13.8675 6.06998 13.8675 6.50057C13.8675 6.93116 14.217 7.28063 14.6476 7.28063ZM16.9878 6.24055V15.0812C16.9878 15.9413 16.2878 16.6413 15.4276 16.6413H7.10703C5.67328 16.6413 4.50684 15.4749 4.50684 14.0411V8.84074C4.50684 8.38935 4.62436 7.95096 4.84122 7.56561C4.98267 7.31287 5.16624 7.08562 5.38726 6.8906C5.60256 6.70079 5.93122 6.72055 6.12155 6.93636C6.31137 7.15166 6.29109 7.48032 6.07579 7.67066C6.02951 7.71174 5.98582 7.75491 5.94526 7.80067C6.23804 8.12673 6.66083 8.32071 7.10755 8.32071V6.24055C7.10703 5.09335 8.03998 4.1604 9.18718 4.1604H14.9076C16.0548 4.1604 16.9878 5.09335 16.9878 6.24055ZM8.1471 8.32071H10.4873C10.4873 7.459 11.1857 6.76059 12.0474 6.76059C12.9091 6.76059 13.6075 7.459 13.6075 8.32071H15.4276C15.6107 8.32071 15.7844 8.35815 15.9477 8.41639V6.24055C15.9477 5.66695 15.4812 5.20048 14.9076 5.20048H9.18718C8.61358 5.20048 8.1471 5.66695 8.1471 6.24055V8.32071ZM15.9477 9.88082C15.9477 9.59428 15.7147 9.36078 15.4276 9.36078H7.10703C6.53707 9.36078 5.99103 9.17201 5.54691 8.83918V14.0411C5.54691 14.9013 6.24688 15.6012 7.10703 15.6012H15.4276C15.7147 15.6012 15.9477 15.3677 15.9477 15.0812V9.88082Z" fill="#1BC469"/>
</g>
<defs>
<clipPath id="clip0_7_44072">
<rect width="12.4809" height="12.4809" fill="white" transform="translate(4.50684 4.1604)"/>
</clipPath>
</defs>
</svg>
