<svg width="12" height="12" viewBox="0 0 12 12" fill="none" xmlns="http://www.w3.org/2000/svg">
<g clip-path="url(#clip0_7_44178)">
<path d="M6 12C4.81331 12 3.65328 11.6481 2.66658 10.9888C1.67989 10.3295 0.910851 9.39246 0.456725 8.2961C0.00259972 7.19975 -0.11622 5.99335 0.115291 4.82946C0.346802 3.66557 0.918247 2.59648 1.75736 1.75736C2.59648 0.918247 3.66557 0.346802 4.82946 0.115291C5.99335 -0.11622 7.19975 0.00259972 8.2961 0.456725C9.39246 0.910851 10.3295 1.67989 10.9888 2.66658C11.6481 3.65328 12 4.81331 12 6C11.9983 7.59077 11.3656 9.1159 10.2407 10.2407C9.1159 11.3656 7.59077 11.9983 6 12ZM6 1.5C5.10999 1.5 4.23996 1.76392 3.49994 2.25839C2.75992 2.75286 2.18314 3.45566 1.84254 4.27793C1.50195 5.10019 1.41284 6.00499 1.58647 6.87791C1.7601 7.75082 2.18869 8.55265 2.81802 9.18198C3.44736 9.81132 4.24918 10.2399 5.1221 10.4135C5.99501 10.5872 6.89981 10.4981 7.72208 10.1575C8.54434 9.81687 9.24715 9.24009 9.74162 8.50007C10.2361 7.76005 10.5 6.89002 10.5 6C10.4987 4.80693 10.0241 3.66311 9.18052 2.81948C8.33689 1.97586 7.19307 1.50133 6 1.5Z" fill="#1BC469"/>
<path d="M6.75 2.65894H5.25V7.07693H6.75V2.65894Z" fill="#1BC469"/>
<path d="M6.78247 7.99707H5.28247V9.49707H6.78247V7.99707Z" fill="#1BC469"/>
</g>
<defs>
<clipPath id="clip0_7_44178">
<rect width="12" height="12" fill="white"/>
</clipPath>
</defs>
</svg>
