<svg width="14" height="14" viewBox="0 0 14 14" fill="none" xmlns="http://www.w3.org/2000/svg">
<path d="M8.63371 7.68779H9.39179C11.5427 7.68779 13.2931 5.96369 13.2931 3.8439C13.2931 1.72437 11.543 0 9.39179 0H0.744224C0.333121 0 0 0.32849 0 0.733279C0 1.13834 0.333393 1.46656 0.744224 1.46656H9.39207C10.7224 1.46656 11.8046 2.53288 11.8046 3.84363C11.8046 5.15437 10.7224 6.2207 9.39207 6.2207H8.63398C8.22288 6.2207 7.88976 6.54919 7.88976 6.95398C7.88976 7.35877 8.22288 7.68779 8.63371 7.68779Z" fill="#F3B811"/>
<path d="M0.744224 0H9.39179C11.543 0 13.2931 1.72437 13.2931 3.8439C13.2931 5.96369 11.5427 7.68779 9.39179 7.68779H8.63371C8.22261 7.68779 7.88958 7.3593 7.88958 6.95451C7.88958 6.54972 8.22298 6.22123 8.63381 6.22123H9.39189C10.7222 6.22123 11.8044 5.15491 11.8044 3.84416C11.8044 2.53342 10.7222 1.46709 9.39189 1.46709H0.744321C0.333218 1.46709 9.72266e-05 1.1386 9.72266e-05 0.733814C-0.000174487 0.328489 0.333121 0 0.744224 0Z" fill="#F3B811"/>
<path d="M4.517 13.9091H13.1648C13.5759 13.9091 13.9091 13.5806 13.9091 13.1758C13.9091 12.7711 13.5757 12.4426 13.1648 12.4426H4.517C3.18669 12.4426 2.10445 11.3763 2.10445 10.0655C2.10445 8.75476 3.18669 7.68844 4.517 7.68844H5.27508C5.68618 7.68844 6.0193 7.35995 6.0193 6.95516C6.0193 6.55037 5.68591 6.22188 5.27508 6.22188H4.517C2.36611 6.22188 0.615729 7.94598 0.615729 10.0658C0.615729 12.185 2.36584 13.9091 4.517 13.9091Z" fill="#F3B811"/>
<path d="M4.517 6.22129H5.27508C5.68618 6.22129 6.0193 6.54978 6.0193 6.95457C6.0193 7.35936 5.68591 7.68784 5.27508 7.68784H4.517C3.18669 7.68784 2.10445 8.75417 2.10445 10.0649C2.10445 11.3754 3.18669 12.442 4.517 12.442H13.1648C13.5759 12.442 13.9091 12.7705 13.9091 13.1753C13.9091 13.5801 13.5757 13.9085 13.1648 13.9085H4.517C2.36611 13.9085 0.615729 12.1844 0.615729 10.0646C0.615729 7.94539 2.36584 6.22129 4.517 6.22129Z" fill="#F3B811"/>
<path d="M7.36809 9.93867C7.54769 9.93867 7.72811 9.87496 7.87103 9.74565C8.17399 9.47204 8.19437 9.00809 7.91668 8.70958L3.72685 4.20843C3.44916 3.90939 2.97828 3.88931 2.67532 4.16372C2.37209 4.43733 2.35198 4.90129 2.62967 5.1998L6.8195 9.70094C6.96622 9.8589 7.16675 9.93867 7.36809 9.93867Z" fill="#F3B811"/>
<path d="M10.727 9.93855C10.9066 9.93855 11.087 9.87483 11.2299 9.74553C11.5332 9.47192 11.5533 9.00796 11.2756 8.70946L7.08574 4.20831C6.80778 3.90927 6.33717 3.88919 6.03421 4.1636C5.73098 4.43721 5.71087 4.90117 5.98856 5.19967L10.1784 9.70082C10.3251 9.85877 10.5256 9.93855 10.727 9.93855Z" fill="#F3B811"/>
</svg>
