<svg width="30" height="30" viewBox="0 0 30 30" fill="none" xmlns="http://www.w3.org/2000/svg">
<rect width="30" height="30" rx="14" fill="#EBEBEA" fill-opacity="0.75"/>
<g clip-path="url(#clip0_7_43232)">
<path d="M24.0035 15.2586L18.227 21.5654C16.8065 23.1164 14.7995 23.9999 12.6965 23.9999H9.5C7.84325 23.9999 6.5 22.6566 6.5 20.9999V17.2499C6.5 15.5931 7.84325 14.2499 9.5 14.2499H15.3403C16.3707 14.2499 17.1853 15.1949 16.9633 16.2636C16.8185 16.9581 16.2102 17.4621 15.5082 17.5626L12.3868 17.9999C11.9765 18.0584 11.6915 18.4386 11.7508 18.8481C11.8092 19.2584 12.1895 19.5426 12.599 19.4841L15.788 19.0371C17.3345 18.8166 18.5007 17.4719 18.5007 15.9096C18.5007 15.7454 18.4768 15.5879 18.452 15.4311L21.1077 12.6284C21.7887 11.8484 23.1065 11.7884 23.8617 12.5106C24.6507 13.2291 24.7153 14.4614 24.0035 15.2586ZM12.125 12.7499V11.2499C12.125 10.8359 12.461 10.4999 12.875 10.4999C13.289 10.4999 13.625 10.8359 13.625 11.2499V12.7499H16.25C16.7863 12.8114 17.2933 13.0019 17.75 13.2449V11.2499C17.75 10.0071 16.7428 8.99986 15.5 8.99986H14.8258C15.3222 8.70736 15.7002 8.43736 15.71 8.42986C16.3985 7.91311 16.4532 6.86536 15.7318 6.28411C15.239 5.88661 14.5588 5.90536 14.0585 6.29386C13.2605 6.91336 12.9583 7.97686 12.875 8.45461C12.7917 7.97686 12.4895 6.91411 11.6915 6.29386C11.1912 5.90536 10.5118 5.88661 10.0182 6.28411C9.29675 6.86611 9.3515 7.91386 10.04 8.42986C10.0497 8.43736 10.4278 8.70736 10.9243 8.99986H10.25C9.00725 8.99986 8 10.0071 8 11.2499V12.9141C8.3585 12.8106 8.7335 12.7499 9.125 12.7499H12.125Z" fill="#C0C0BF"/>
</g>
<defs>
<clipPath id="clip0_7_43232">
<rect width="18" height="18" fill="white" transform="translate(6.5 6)"/>
</clipPath>
</defs>
</svg>
