<svg width="30" height="30" viewBox="0 0 30 30" fill="none" xmlns="http://www.w3.org/2000/svg">
<rect width="30" height="30" rx="14" fill="#EBEBEA" fill-opacity="0.75"/>
<g clip-path="url(#clip0_7_43236)">
<path d="M23.9731 14.2755C23.5456 13.7828 22.9261 13.5 22.2729 13.5H8.75038C8.09788 13.5 7.47913 13.7828 7.05088 14.2755C6.62263 14.7683 6.43063 15.4215 6.52588 16.0845L7.31863 20.136C7.63363 22.3388 9.54913 23.9993 11.7736 23.9993H19.2504C21.4749 23.9993 23.3904 22.338 23.7031 20.1518L24.5011 16.068C24.5934 15.4215 24.4006 14.7683 23.9731 14.2748V14.2755ZM12.5004 20.25C12.5004 20.6648 12.1651 21 11.7504 21C11.3356 21 11.0004 20.6648 11.0004 20.25V17.25C11.0004 16.8353 11.3356 16.5 11.7504 16.5C12.1651 16.5 12.5004 16.8353 12.5004 17.25V20.25ZM16.2504 20.25C16.2504 20.6648 15.9151 21 15.5004 21C15.0856 21 14.7504 20.6648 14.7504 20.25V17.25C14.7504 16.8353 15.0856 16.5 15.5004 16.5C15.9151 16.5 16.2504 16.8353 16.2504 17.25V20.25ZM20.0004 20.25C20.0004 20.6648 19.6651 21 19.2504 21C18.8356 21 18.5004 20.6648 18.5004 20.25V17.25C18.5004 16.8353 18.8356 16.5 19.2504 16.5C19.6651 16.5 20.0004 16.8353 20.0004 17.25V20.25ZM9.50038 8.05201V7.50001C9.08563 7.50001 8.75038 7.16476 8.75038 6.75001C8.75038 6.33526 9.08563 6.00001 9.50038 6.00001H14.7504C15.1651 6.00001 15.5004 6.33526 15.5004 6.75001C15.5004 7.16476 15.1651 7.50001 14.7504 7.50001V8.05201C14.7504 8.57551 14.8576 9.08476 15.0691 9.56476L15.7411 11.0895C15.8716 11.3858 15.9699 11.691 16.0509 12H8.75038C8.56063 12 8.37313 12.0195 8.18788 12.0473C8.26963 11.7218 8.37238 11.4008 8.50963 11.0895L9.18163 9.56476C9.39313 9.08476 9.50038 8.57626 9.50038 8.05201ZM22.9599 12.0675C22.7349 12.0255 22.5061 12 22.2729 12H16.0696C16.3059 11.5298 16.5054 11.1458 16.5054 11.1458C16.8234 10.5308 17.1856 9.92401 17.5749 9.35251L19.2279 10.386C19.3516 10.464 19.4896 10.5 19.6246 10.5C19.8744 10.5 20.1189 10.3755 20.2614 10.1475C20.4811 9.79576 20.3739 9.33301 20.0236 9.11401L18.4839 8.15176C19.8114 6.58576 21.3151 5.60176 22.5646 6.14476C22.8811 6.28201 23.3094 6.58501 23.5539 7.25026C23.9499 8.32426 23.7136 10.0973 22.9599 12.0668V12.0675Z" fill="#C0C0BF"/>
</g>
<defs>
<clipPath id="clip0_7_43236">
<rect width="18" height="18" fill="white" transform="translate(6.5 6)"/>
</clipPath>
</defs>
</svg>
