<svg width="30" height="30" viewBox="0 0 30 30" fill="none" xmlns="http://www.w3.org/2000/svg">
<rect width="30" height="30" rx="14" fill="#F3B811" fill-opacity="0.15"/>
<g clip-path="url(#clip0_7_43365)">
<path d="M18.5 8.0625C18.5 9.68475 16.385 11.7007 15.3313 12.546C15.1664 12.6782 14.9613 12.7502 14.75 12.7502C14.5387 12.7502 14.3336 12.6782 14.1688 12.546C13.115 11.7 11 9.68475 11 8.0625C10.9763 7.54066 11.1603 7.0307 11.5117 6.64418C11.8631 6.25766 12.3533 6.02604 12.875 6C13.3967 6.02604 13.8869 6.25766 14.2383 6.64418C14.5897 7.0307 14.7737 7.54066 14.75 8.0625C14.7263 7.54066 14.9103 7.0307 15.2617 6.64418C15.6131 6.25766 16.1033 6.02604 16.625 6C17.1467 6.02604 17.6369 6.25766 17.9883 6.64418C18.3397 7.0307 18.5237 7.54066 18.5 8.0625ZM24.0035 15.2625L18.2285 21.5693C17.5254 22.3359 16.6705 22.9479 15.7181 23.3664C14.7658 23.7849 13.7368 24.0006 12.6965 24H9.5C8.70435 24 7.94129 23.6839 7.37868 23.1213C6.81607 22.5587 6.5 21.7956 6.5 21V17.25C6.5 16.4544 6.81607 15.6913 7.37868 15.1287C7.94129 14.5661 8.70435 14.25 9.5 14.25H15.3403C15.5882 14.2505 15.8328 14.3064 16.0564 14.4136C16.2799 14.5208 16.4767 14.6766 16.6322 14.8696C16.7878 15.0626 16.8983 15.288 16.9555 15.5292C17.0128 15.7704 17.0155 16.0214 16.9633 16.2638C16.8821 16.6028 16.6992 16.9089 16.4391 17.141C16.1791 17.3732 15.8543 17.5204 15.5083 17.5627L12.386 18C12.1892 18.0282 12.0117 18.1334 11.8924 18.2925C11.7732 18.4515 11.7219 18.6514 11.75 18.8483C11.778 19.0452 11.8832 19.2229 12.0423 19.3423C12.2013 19.4617 12.4013 19.513 12.5983 19.485L15.7873 19.035C16.5384 18.9244 17.225 18.5483 17.7226 17.975C18.2203 17.4016 18.4961 16.6689 18.5 15.9097C18.4963 15.7492 18.48 15.5892 18.4513 15.4312L21.1078 12.6285C21.4581 12.2492 21.9442 12.0239 22.4601 12.0018C22.976 11.9798 23.4796 12.1627 23.861 12.5107C24.2405 12.8585 24.4681 13.3415 24.4947 13.8556C24.5214 14.3696 24.345 14.8736 24.0035 15.2587V15.2625Z" fill="#F8BE3B"/>
</g>
<defs>
<clipPath id="clip0_7_43365">
<rect width="18" height="18" fill="white" transform="translate(6.5 6)"/>
</clipPath>
</defs>
</svg>
