<svg width="18" height="18" viewBox="0 0 18 18" fill="none" xmlns="http://www.w3.org/2000/svg">
<g clip-path="url(#clip0_7_42670)">
<path d="M15.7073 13.2953C14.9917 14.1638 14.0701 14.8394 13.0265 15.2604C11.9829 15.6815 10.8505 15.8346 9.73262 15.7058C8.6147 15.577 7.54679 15.1705 6.62626 14.5232C5.70573 13.8759 4.96187 13.0085 4.4625 12.0001H10.875C11.1734 12.0001 11.4595 11.8815 11.6705 11.6706C11.8815 11.4596 12 11.1734 12 10.8751C12 10.5767 11.8815 10.2906 11.6705 10.0796C11.4595 9.8686 11.1734 9.75008 10.875 9.75008H3.79425C3.73522 9.25182 3.73522 8.74833 3.79425 8.25008H10.875C11.1734 8.25008 11.4595 8.13155 11.6705 7.92057C11.8815 7.70959 12 7.42344 12 7.12507C12 6.82671 11.8815 6.54056 11.6705 6.32958C11.4595 6.1186 11.1734 6.00007 10.875 6.00007H4.4625C4.96187 4.99163 5.70573 4.12423 6.62626 3.47695C7.54679 2.82967 8.6147 2.42311 9.73262 2.29434C10.8505 2.16557 11.9829 2.31869 13.0265 2.73972C14.0701 3.16076 14.9917 3.83632 15.7073 4.70482C15.8972 4.93497 16.1708 5.08022 16.4679 5.10863C16.7649 5.13704 17.0611 5.04629 17.2913 4.85632C17.5214 4.66636 17.6666 4.39276 17.6951 4.0957C17.7235 3.79864 17.6327 3.50247 17.4427 3.27232C16.4298 2.04345 15.1085 1.10567 13.6142 0.554878C12.12 0.00408889 10.5062 -0.139943 8.93795 0.137511C7.36973 0.414964 5.90334 1.10395 4.68873 2.13401C3.47412 3.16406 2.55487 4.49823 2.025 6.00007H1.125C0.826631 6.00007 0.540483 6.1186 0.329505 6.32958C0.118526 6.54056 0 6.82671 0 7.12507C0 7.42344 0.118526 7.70959 0.329505 7.92057C0.540483 8.13155 0.826631 8.25008 1.125 8.25008H1.53825C1.51725 8.49833 1.5 8.74658 1.5 9.00008C1.5 9.25358 1.51725 9.50183 1.53825 9.75008H1.125C0.826631 9.75008 0.540483 9.8686 0.329505 10.0796C0.118526 10.2906 0 10.5767 0 10.8751C0 11.1734 0.118526 11.4596 0.329505 11.6706C0.540483 11.8815 0.826631 12.0001 1.125 12.0001H2.025C2.55487 13.5019 3.47412 14.8361 4.68873 15.8661C5.90334 16.8962 7.36973 17.5852 8.93795 17.8626C10.5062 18.1401 12.12 17.9961 13.6142 17.4453C15.1085 16.8945 16.4298 15.9567 17.4427 14.7278C17.6327 14.4977 17.7235 14.2015 17.6951 13.9044C17.6666 13.6074 17.5214 13.3338 17.2913 13.1438C17.1773 13.0498 17.0459 12.9791 16.9047 12.9358C16.7634 12.8925 16.615 12.8775 16.4679 12.8915C16.1708 12.9199 15.8972 13.0652 15.7073 13.2953Z" fill="#1BC469"/>
</g>
<defs>
<clipPath id="clip0_7_42670">
<rect width="18" height="18" fill="white"/>
</clipPath>
</defs>
</svg>
