<svg width="18" height="18" viewBox="0 0 18 18" fill="none" xmlns="http://www.w3.org/2000/svg">
<path d="M11.1731 9.94888H12.1541C14.9376 9.94888 17.2028 7.71769 17.2028 4.97444C17.2028 2.23153 14.938 0 12.1541 0H0.963116C0.431099 0 0 0.425103 0 0.948947C0 1.47314 0.43145 1.89789 0.963116 1.89789H12.1545C13.8761 1.89789 15.2766 3.27783 15.2766 4.97409C15.2766 6.67035 13.8761 8.05029 12.1545 8.05029H11.1734C10.6414 8.05029 10.2103 8.4754 10.2103 8.99924C10.2103 9.52308 10.6414 9.94888 11.1731 9.94888Z" fill="#F3B811"/>
<path d="M0.963116 0H12.1541C14.938 0 17.2028 2.23153 17.2028 4.97444C17.2028 7.71769 14.9376 9.94888 12.1541 9.94888H11.1731C10.641 9.94888 10.2101 9.52378 10.2101 8.99993C10.2101 8.47609 10.6415 8.05099 11.1732 8.05099H12.1542C13.8758 8.05099 15.2764 6.67105 15.2764 4.97479C15.2764 3.27853 13.8758 1.89859 12.1542 1.89859H0.963242C0.431224 1.89859 0.000125823 1.47348 0.000125823 0.949639C-0.000225808 0.425103 0.431099 0 0.963116 0Z" fill="#F3B811"/>
<path d="M5.84554 18H17.0369C17.5689 18 18 17.5749 18 17.0511C18 16.5272 17.5686 16.1021 17.0369 16.1021H5.84554C4.12396 16.1021 2.72341 14.7222 2.72341 13.0259C2.72341 11.3297 4.12396 9.94972 5.84554 9.94972H6.82659C7.3586 9.94972 7.7897 9.52461 7.7897 9.00077C7.7897 8.47693 7.35825 8.05182 6.82659 8.05182H5.84554C3.06203 8.05182 0.796828 10.283 0.796828 13.0263C0.796828 15.7688 3.06168 18 5.84554 18Z" fill="#F3B811"/>
<path d="M5.84554 8.05106H6.82659C7.3586 8.05106 7.7897 8.47616 7.7897 9C7.7897 9.52385 7.35825 9.94895 6.82659 9.94895H5.84554C4.12396 9.94895 2.72341 11.3289 2.72341 13.0251C2.72341 14.7211 4.12396 16.1013 5.84554 16.1013H17.0369C17.5689 16.1013 18 16.5265 18 17.0503C18 17.5741 17.5686 17.9992 17.0369 17.9992H5.84554C3.06203 17.9992 0.796828 15.7681 0.796828 13.0248C0.796828 10.2822 3.06168 8.05106 5.84554 8.05106Z" fill="#F3B811"/>
<path d="M9.5352 12.8618C9.76763 12.8618 10.0011 12.7793 10.1861 12.612C10.5781 12.2579 10.6045 11.6575 10.2451 11.2712L4.823 5.4462C4.46363 5.0592 3.85426 5.03321 3.46219 5.38833C3.06977 5.74241 3.04375 6.34283 3.40311 6.72913L8.82526 12.5541C9.01514 12.7585 9.27464 12.8618 9.5352 12.8618Z" fill="#F3B811"/>
<path d="M13.882 12.8616C14.1144 12.8616 14.3479 12.7792 14.5329 12.6118C14.9253 12.2577 14.9513 11.6573 14.5919 11.271L9.16981 5.44603C8.81009 5.05904 8.20107 5.03305 7.809 5.38817C7.41658 5.74225 7.39056 6.34267 7.74993 6.72897L13.1721 12.554C13.3619 12.7584 13.6215 12.8616 13.882 12.8616Z" fill="#F3B811"/>
</svg>
