<svg width="30" height="30" viewBox="0 0 30 30" fill="none" xmlns="http://www.w3.org/2000/svg">
<rect width="30" height="30" rx="14" fill="#E87326" fill-opacity="0.15"/>
<g clip-path="url(#clip0_7_42690)">
<path d="M24.5004 18.3749V18.7499H13.2504C13.2039 18.2775 13.2564 17.8005 13.4045 17.3495C13.5526 16.8985 13.7932 16.4833 14.1107 16.1305C14.4283 15.7776 14.8159 15.4948 15.2489 15.3002C15.6819 15.1055 16.1507 15.0032 16.6254 14.9999H21.1254C22.0205 14.9999 22.8789 15.3555 23.5119 15.9884C24.1448 16.6213 24.5004 17.4798 24.5004 18.3749ZM20.1504 21.6216C20.0272 21.7037 19.8825 21.7475 19.7345 21.7475C19.5865 21.7475 19.4418 21.7037 19.3186 21.6216L17.2576 20.2499H13.2504C13.204 20.7223 13.2566 21.1992 13.4048 21.6502C13.5529 22.1011 13.7935 22.5163 14.111 22.8691C14.4286 23.2219 14.8161 23.5047 15.2491 23.6994C15.682 23.8941 16.1507 23.9964 16.6254 23.9999H21.1254C21.6001 23.9965 22.0689 23.8943 22.5019 23.6996C22.9348 23.505 23.3225 23.2222 23.64 22.8693C23.9576 22.5165 24.1981 22.1013 24.3463 21.6503C24.4944 21.1993 24.5469 20.7223 24.5004 20.2499H22.2129L20.1504 21.6216ZM11.7504 18.3749V20.6249C11.7505 21.8883 12.2435 23.1018 13.1244 24.0074H11.3994C10.4858 24.0063 9.60389 23.6721 8.91907 23.0674C8.23424 22.4626 7.79347 21.6289 7.67939 20.7224L6.54464 11.6789C6.48625 11.3546 6.49931 11.0216 6.58289 10.7029C6.66648 10.3842 6.81858 10.0876 7.02859 9.83374C7.2386 9.57989 7.50146 9.37491 7.79883 9.2331C8.09621 9.09128 8.42094 9.01605 8.75039 9.01264H13.7131L13.8429 7.97464C13.911 7.43083 14.1753 6.93059 14.5861 6.56782C14.997 6.20505 15.5261 6.00471 16.0741 6.00439H18.5004C18.6993 6.00439 18.8901 6.08341 19.0307 6.22406C19.1714 6.36472 19.2504 6.55548 19.2504 6.75439C19.2504 6.95331 19.1714 7.14407 19.0307 7.28472C18.8901 7.42538 18.6993 7.50439 18.5004 7.50439H16.0741C15.2566 7.50439 15.3039 8.43814 15.2236 9.01339H17.0004C17.3366 9.01578 17.6681 9.09306 17.9707 9.23963C18.2733 9.38619 18.5394 9.59835 18.7497 9.86067C18.9601 10.123 19.1093 10.4289 19.1865 10.7561C19.2638 11.0834 19.2672 11.4237 19.1964 11.7524L18.9766 13.4999H16.6254C15.3328 13.5011 14.0935 14.0151 13.1796 14.9291C12.2656 15.843 11.7516 17.0823 11.7504 18.3749ZM15.0354 10.5134L14.8501 11.9999H17.6551L17.7189 11.4936C17.7537 11.3807 17.7617 11.2612 17.7421 11.1446C17.7226 11.0281 17.676 10.9177 17.6062 10.8223C17.5364 10.7269 17.4453 10.6492 17.3401 10.5953C17.2349 10.5414 17.1186 10.5128 17.0004 10.5119L15.0354 10.5134ZM13.3389 11.9999L13.5256 10.5104H8.75039C8.63837 10.5112 8.52793 10.5368 8.42708 10.5856C8.32623 10.6344 8.2375 10.705 8.16734 10.7923C8.09717 10.8796 8.04734 10.9815 8.02144 11.0905C7.99555 11.1995 7.99425 11.3128 8.01764 11.4224L8.09264 11.9999H13.3389Z" fill="#E87326"/>
</g>
<defs>
<clipPath id="clip0_7_42690">
<rect width="18" height="18" fill="white" transform="translate(6.5 6)"/>
</clipPath>
</defs>
</svg>
