<svg width="30" height="30" viewBox="0 0 30 30" fill="none" xmlns="http://www.w3.org/2000/svg">
<rect width="30" height="30" rx="14" fill="#EBEBEA" fill-opacity="0.75"/>
<g clip-path="url(#clip0_7_43247)">
<path d="M16.2497 11.625C16.2497 12.246 15.7457 12.75 15.1247 12.75C14.5037 12.75 13.9997 12.246 13.9997 11.625C13.9997 11.004 14.5037 10.5 15.1247 10.5C15.7457 10.5 16.2497 11.004 16.2497 11.625ZM10.6247 6.00002C10.0037 6.00002 9.4997 6.50402 9.4997 7.12502C9.4997 7.74602 10.0037 8.25002 10.6247 8.25002C11.2457 8.25002 11.7497 7.74602 11.7497 7.12502C11.7497 6.50402 11.2457 6.00002 10.6247 6.00002ZM11.818 12.4058L15.193 7.15577C15.4165 6.80777 15.316 6.34352 14.9672 6.11927C14.62 5.89502 14.155 5.99627 13.9307 6.34502L10.5557 11.595C10.3322 11.943 10.4327 12.4073 10.7815 12.6315C10.9067 12.7118 11.047 12.7508 11.1865 12.7508C11.4332 12.7508 11.6747 12.6285 11.818 12.4058ZM23.863 12.5108C23.4767 12.159 22.9735 11.9768 22.4545 12.0023C21.9317 12.0263 21.4502 12.2528 21.109 12.6285L18.4532 15.4313C18.4772 15.5888 18.502 15.7463 18.502 15.9098C18.502 17.472 17.3357 18.8168 15.7892 19.0373L12.6002 19.4843C12.19 19.5428 11.8105 19.2578 11.752 18.8483C11.6935 18.438 11.9785 18.0585 12.388 18L15.5095 17.5628C16.2115 17.4623 16.8205 16.9583 16.9645 16.2638C17.1865 15.195 16.372 14.25 15.3415 14.25H9.5012C7.8452 14.25 6.50195 15.5933 6.50195 17.25V21C6.50195 22.6568 7.8452 24 9.50195 24H12.6985C14.8022 24 16.8085 23.1165 18.229 21.5655L24.0055 15.2588C24.7165 14.4623 24.652 13.2285 23.8637 12.51L23.863 12.5108Z" fill="#C0C0BF"/>
</g>
<defs>
<clipPath id="clip0_7_43247">
<rect width="18" height="18" fill="white" transform="translate(6.5 6)"/>
</clipPath>
</defs>
</svg>
