<svg width="30" height="30" viewBox="0 0 30 30" fill="none" xmlns="http://www.w3.org/2000/svg">
<rect width="30" height="30" rx="14" fill="#EBEBEA" fill-opacity="0.75"/>
<g clip-path="url(#clip0_7_43251)">
<path d="M23.99 9.075C23.5625 8.55 22.925 8.25 22.25 8.25H11.93L11.9 7.9875C11.765 6.855 10.805 6 9.665 6H8.75C8.3375 6 8 6.3375 8 6.75C8 7.1625 8.3375 7.5 8.75 7.5H9.665C10.0475 7.5 10.3625 7.785 10.4075 8.16L11.4425 16.935C11.6675 18.825 13.265 20.25 15.17 20.25H21.5C21.9125 20.25 22.25 19.9125 22.25 19.5C22.25 19.0875 21.9125 18.75 21.5 18.75H15.17C14.2025 18.75 13.37 18.1275 13.055 17.25H20.12C21.905 17.25 23.45 15.9825 23.795 14.235L24.455 10.9425C24.59 10.2825 24.4175 9.6 23.99 9.075ZM14.75 22.5C14.75 23.325 14.075 24 13.25 24C12.425 24 11.75 23.325 11.75 22.5C11.75 21.675 12.425 21 13.25 21C14.075 21 14.75 21.675 14.75 22.5ZM21.5 22.5C21.5 23.325 20.825 24 20 24C19.175 24 18.5 23.325 18.5 22.5C18.5 21.675 19.175 21 20 21C20.825 21 21.5 21.675 21.5 22.5ZM6.5 10.5C6.5 10.0875 6.8375 9.75 7.25 9.75H8.405C8.8175 9.75 9.155 10.0875 9.155 10.5C9.155 10.9125 8.8175 11.25 8.405 11.25H7.25C6.8375 11.25 6.5 10.9125 6.5 10.5ZM6.5 13.5C6.5 13.0875 6.8375 12.75 7.25 12.75H8.75C9.1625 12.75 9.5 13.0875 9.5 13.5C9.5 13.9125 9.1625 14.25 8.75 14.25H7.25C6.8375 14.25 6.5 13.9125 6.5 13.5ZM10.25 16.5C10.25 16.9125 9.9125 17.25 9.5 17.25H7.25C6.8375 17.25 6.5 16.9125 6.5 16.5C6.5 16.0875 6.8375 15.75 7.25 15.75H9.5C9.9125 15.75 10.25 16.0875 10.25 16.5Z" fill="#C0C0BF"/>
</g>
<defs>
<clipPath id="clip0_7_43251">
<rect width="18" height="18" fill="white" transform="translate(6.5 6)"/>
</clipPath>
</defs>
</svg>
