<svg width="116" height="117" viewBox="0 0 116 117" fill="none" xmlns="http://www.w3.org/2000/svg">
<g clip-path="url(#clip0_9_14953)">
<path d="M103.539 117H12.4609C5.58998 117 0 111.362 0 104.432V12.5684C0 5.63817 5.58998 0 12.4609 0H103.539C110.41 0 116 5.63817 116 12.5684V104.432C116 111.362 110.41 117 103.539 117Z" fill="url(#paint0_linear_9_14953)" fill-opacity="0.74"/>
<path d="M116 104.432V12.5684C116 5.63817 110.41 0 103.539 0H58V117H103.539C110.41 117 116 111.362 116 104.432Z" fill="url(#paint1_linear_9_14953)"/>
<path d="M85.1875 66.498H30.8125C25.1908 66.498 20.6172 61.885 20.6172 56.2148V24.2227C20.6172 18.5525 25.1908 13.9395 30.8125 13.9395H85.1875C90.8092 13.9395 95.3828 18.5525 95.3828 24.2227V56.2148C95.3828 61.885 90.8092 66.498 85.1875 66.498Z" fill="#FF6378"/>
<path d="M85.1875 13.9395H58V66.498H85.1875C90.8092 66.498 95.3828 61.885 95.3828 56.2148V24.2227C95.3828 18.5525 90.8092 13.9395 85.1875 13.9395Z" fill="#FF1F3D"/>
<path d="M32.1467 97.4422C32.1404 97.4422 32.1336 97.4422 32.1272 97.4422C30.59 97.4509 28.9703 97.4573 27.6111 97.4601V78.0376C27.6111 76.1446 26.0896 74.6099 24.2127 74.6099C22.3359 74.6099 20.8143 76.1446 20.8143 78.0376V100.87C20.8143 102.54 22.0071 103.966 23.6386 104.249C23.8833 104.291 24.0453 104.319 26.5751 104.319C27.7956 104.319 29.5677 104.313 32.1653 104.298C34.0421 104.287 35.5551 102.744 35.5447 100.851C35.5343 98.9641 34.0147 97.4422 32.1467 97.4422Z" fill="#FFF5F5"/>
<path d="M91.7886 97.4614H85.6406V92.8911H91.0845C92.9613 92.8911 94.4829 91.3564 94.4829 89.4634C94.4829 87.5704 92.9613 86.0356 91.0845 86.0356H85.6406V81.4653H91.7886C93.6655 81.4653 95.1871 79.9306 95.1871 78.0376C95.1871 76.1446 93.6655 74.6099 91.7886 74.6099H82.2422C80.3653 74.6099 78.8438 76.1446 78.8438 78.0376V100.889C78.8438 102.782 80.3653 104.317 82.2422 104.317H91.7886C93.6655 104.317 95.1871 102.782 95.1871 100.889C95.1871 98.9961 93.6655 97.4614 91.7886 97.4614Z" fill="white"/>
<path d="M71.9839 74.8266C70.2024 74.229 68.2789 75.2025 67.6873 76.9988L62.971 91.319L58.0133 76.9136C57.3978 75.1252 55.4611 74.1783 53.6883 74.7996C51.9152 75.4202 50.9768 77.3734 51.5921 79.1617L59.3383 101.67C59.341 101.678 59.3435 101.685 59.3462 101.693C59.8995 103.265 61.378 104.317 63.0306 104.317H63.0571C64.7203 104.306 66.1972 103.231 66.7326 101.643C66.7351 101.635 66.7376 101.628 66.7401 101.62L74.1376 79.1606C74.7293 77.3635 73.7651 75.4234 71.9839 74.8266Z" fill="#FFF5F5"/>
<path d="M71.9839 74.8264C70.2024 74.2288 68.2789 75.2023 67.6874 76.9987L62.971 91.3188L58.0134 76.9134C58.0095 76.902 58.0041 76.8917 58 76.8803V97.781L59.3383 101.67C59.341 101.677 59.3435 101.685 59.3462 101.693C59.8995 103.265 61.378 104.317 63.0306 104.317H63.0571C64.7203 104.306 66.1973 103.231 66.7326 101.642C66.7351 101.635 66.7376 101.628 66.7401 101.62L74.1376 79.1602C74.7294 77.3634 73.7651 75.4233 71.9839 74.8264Z" fill="white"/>
<path d="M43.4766 74.6099C41.5997 74.6099 40.0781 76.1446 40.0781 78.0376V100.889C40.0781 102.782 41.5997 104.317 43.4766 104.317C45.3534 104.317 46.875 102.782 46.875 100.889V78.0376C46.875 76.1446 45.3534 74.6099 43.4766 74.6099Z" fill="#FFF5F5"/>
<path d="M47.8047 49.3596V31.0783C47.8047 28.4465 50.6236 26.7964 52.8892 28.1022L68.7486 37.2428C71.0316 38.5586 71.0316 41.8791 68.7486 43.1949L52.8892 52.3356C50.6236 53.6415 47.8047 51.9914 47.8047 49.3596Z" fill="#FFF5F5"/>
<path d="M68.7486 37.2427L58 31.0479V49.3901L68.7486 43.1951C71.0316 41.879 71.0316 38.5587 68.7486 37.2427Z" fill="#DFDEF5"/>
</g>
<defs>
<linearGradient id="paint0_linear_9_14953" x1="75.98" y1="74.295" x2="57.7369" y2="116.887" gradientUnits="userSpaceOnUse">
<stop offset="0.254808" stop-color="#64748B"/>
<stop offset="1" stop-color="#1B1F25"/>
</linearGradient>
<linearGradient id="paint1_linear_9_14953" x1="87" y1="0" x2="87" y2="117" gradientUnits="userSpaceOnUse">
<stop stop-color="#D8DEE8"/>
<stop offset="0.5" stop-color="#A9ADB5"/>
<stop offset="1" stop-color="#797C82"/>
</linearGradient>
<clipPath id="clip0_9_14953">
<rect width="116" height="117" fill="white"/>
</clipPath>
</defs>
</svg>
