<svg width="116" height="116" viewBox="0 0 116 116" fill="none" xmlns="http://www.w3.org/2000/svg">
<path d="M103.539 116H12.4609C5.58998 116 0 110.41 0 103.539V12.4609C0 5.58998 5.58998 0 12.4609 0H103.539C110.41 0 116 5.58998 116 12.4609V103.539C116 110.41 110.41 116 103.539 116Z" fill="#EA8E2A" fill-opacity="0.74"/>
<path d="M116 103.539V12.4609C116 5.58998 110.41 0 103.539 0H58V116H103.539C110.41 116 116 110.41 116 103.539Z" fill="#EA8E2A"/>
<path d="M85.1875 65.9297H30.8125C25.1908 65.9297 20.6172 61.3561 20.6172 55.7344V24.0156C20.6172 18.3939 25.1908 13.8203 30.8125 13.8203H85.1875C90.8092 13.8203 95.3828 18.3939 95.3828 24.0156V55.7344C95.3828 61.3561 90.8092 65.9297 85.1875 65.9297Z" fill="#FF6378"/>
<path d="M85.1875 13.8203H58V65.9297H85.1875C90.8092 65.9297 95.3828 61.3561 95.3828 55.7344V24.0156C95.3828 18.3939 90.8092 13.8203 85.1875 13.8203Z" fill="#FF1F3D"/>
<path d="M32.1479 96.6094C32.1415 96.6094 32.1347 96.6094 32.1284 96.6094C30.5911 96.618 28.9715 96.6243 27.6123 96.6271V77.3706C27.6123 75.4938 26.0907 73.9722 24.2139 73.9722C22.337 73.9722 20.8154 75.4938 20.8154 77.3706V100.008C20.8154 101.663 22.0083 103.078 23.6398 103.358C23.8844 103.399 24.0464 103.427 26.5762 103.427C27.7967 103.427 29.5689 103.421 32.1664 103.406C34.0433 103.396 35.5563 101.866 35.5458 99.989C35.5354 98.1183 34.0159 96.6094 32.1479 96.6094Z" fill="#FFF5F5"/>
<path d="M91.7886 96.6284H85.6406V92.0972H91.0845C92.9613 92.0972 94.4829 90.5756 94.4829 88.6987C94.4829 86.8219 92.9613 85.3003 91.0845 85.3003H85.6406V80.769H91.7886C93.6655 80.769 95.1871 79.2474 95.1871 77.3706C95.1871 75.4938 93.6655 73.9722 91.7886 73.9722H82.2422C80.3653 73.9722 78.8438 75.4938 78.8438 77.3706V100.027C78.8438 101.904 80.3653 103.425 82.2422 103.425H91.7886C93.6655 103.425 95.1871 101.904 95.1871 100.027C95.1871 98.15 93.6655 96.6284 91.7886 96.6284Z" fill="#DFDEF5"/>
<path d="M71.9839 74.187C70.2024 73.5945 68.2789 74.5597 67.6873 76.3407L62.971 90.5385L58.0133 76.2562C57.3978 74.4831 55.4611 73.5442 53.6883 74.1603C51.9152 74.7756 50.9768 76.712 51.5921 78.4851L59.3383 100.801C59.341 100.809 59.3435 100.816 59.3462 100.824C59.8995 102.383 61.378 103.426 63.0306 103.426H63.0571C64.7203 103.414 66.1972 102.349 66.7326 100.774C66.7351 100.767 66.7376 100.759 66.7401 100.752L74.1376 78.484C74.7293 76.7023 73.7651 74.7788 71.9839 74.187Z" fill="#FFF5F5"/>
<path d="M71.9839 74.1872C70.2024 73.5947 68.2789 74.5599 67.6874 76.3409L62.971 90.5387L58.0134 76.2564C58.0095 76.2451 58.0041 76.2349 58 76.2235V96.9456L59.3383 100.801C59.341 100.809 59.3435 100.816 59.3462 100.824C59.8995 102.383 61.378 103.426 63.0306 103.426H63.0571C64.7203 103.414 66.1973 102.349 66.7326 100.774C66.7351 100.767 66.7376 100.759 66.7401 100.752L74.1376 78.4839C74.7294 76.7025 73.7651 74.779 71.9839 74.1872Z" fill="#DFDEF5"/>
<path d="M43.4736 73.9722C41.5968 73.9722 40.0752 75.4938 40.0752 77.3706V100.027C40.0752 101.904 41.5968 103.425 43.4736 103.425C45.3505 103.425 46.8721 101.904 46.8721 100.027V77.3706C46.8721 75.4938 45.3505 73.9722 43.4736 73.9722Z" fill="#FFF5F5"/>
<path d="M47.8047 48.9377V30.8127C47.8047 28.2034 50.6236 26.5673 52.8892 27.8619L68.7486 36.9244C71.0316 38.229 71.0316 41.5212 68.7486 42.8257L52.8892 51.8882C50.6236 53.183 47.8047 51.547 47.8047 48.9377Z" fill="#FFF5F5"/>
<path d="M68.7486 36.9241L58 30.7822V48.9677L68.7486 42.8256C71.0316 41.5208 71.0316 38.2289 68.7486 36.9241Z" fill="#DFDEF5"/>
</svg>
