<svg width="116" height="117" viewBox="0 0 116 117" fill="none" xmlns="http://www.w3.org/2000/svg">
<g clip-path="url(#clip0_7_15594)">
<path d="M103.539 117H12.4609C5.58998 117 0 111.362 0 104.432V12.5684C0 5.63817 5.58998 0 12.4609 0H103.539C110.41 0 116 5.63817 116 12.5684V104.432C116 111.362 110.41 117 103.539 117Z" fill="#F3B811"/>
<path d="M116 104.432V12.5684C116 5.63817 110.41 0 103.539 0H58V117H103.539C110.41 117 116 111.362 116 104.432Z" fill="#F3B811"/>
<path d="M85.1875 66.498H30.8125C25.1908 66.498 20.6172 61.885 20.6172 56.2148V24.2227C20.6172 18.5525 25.1908 13.9395 30.8125 13.9395H85.1875C90.8092 13.9395 95.3828 18.5525 95.3828 24.2227V56.2148C95.3828 61.885 90.8092 66.498 85.1875 66.498Z" fill="#FF6378"/>
<path d="M85.1875 13.9395H58V66.498H85.1875C90.8092 66.498 95.3828 61.885 95.3828 56.2148V24.2227C95.3828 18.5525 90.8092 13.9395 85.1875 13.9395Z" fill="#FF1F3D"/>
<path d="M32.147 97.4422C32.1407 97.4422 32.1339 97.4422 32.1275 97.4422C30.5903 97.4509 28.9706 97.4573 27.6115 97.4601V78.0376C27.6115 76.1446 26.0899 74.6099 24.213 74.6099C22.3362 74.6099 20.8146 76.1446 20.8146 78.0376V100.87C20.8146 102.54 22.0074 103.966 23.6389 104.249C23.8836 104.291 24.0456 104.319 26.5754 104.319C27.7959 104.319 29.568 104.313 32.1656 104.298C34.0424 104.287 35.5554 102.744 35.545 100.851C35.5346 98.9641 34.015 97.4422 32.147 97.4422Z" fill="#FFF5F5"/>
<path d="M91.7857 97.4614H85.6377V92.8911H91.0815C92.9584 92.8911 94.48 91.3564 94.48 89.4634C94.48 87.5704 92.9584 86.0356 91.0815 86.0356H85.6377V81.4653H91.7857C93.6625 81.4653 95.1841 79.9306 95.1841 78.0376C95.1841 76.1446 93.6625 74.6099 91.7857 74.6099H82.2393C80.3624 74.6099 78.8408 76.1446 78.8408 78.0376V100.889C78.8408 102.782 80.3624 104.317 82.2393 104.317H91.7857C93.6625 104.317 95.1841 102.782 95.1841 100.889C95.1841 98.9961 93.6625 97.4614 91.7857 97.4614Z" fill="#DFDEF5"/>
<path d="M71.9848 74.8266C70.2034 74.229 68.2799 75.2025 67.6883 76.9988L62.972 91.319L58.0143 76.9136C57.3987 75.1252 55.4621 74.1783 53.6892 74.7996C51.9162 75.4202 50.9777 77.3734 51.5931 79.1617L59.3393 101.67C59.342 101.678 59.3445 101.685 59.3472 101.693C59.9004 103.265 61.379 104.317 63.0315 104.317H63.058C64.7212 104.306 66.1982 103.231 66.7336 101.643C66.7361 101.635 66.7386 101.628 66.741 101.62L74.1385 79.1606C74.7303 77.3635 73.7661 75.4234 71.9848 74.8266Z" fill="#FFF5F5"/>
<path d="M71.9839 74.8264C70.2024 74.2288 68.2789 75.2023 67.6874 76.9987L62.971 91.3188L58.0134 76.9134C58.0095 76.902 58.0041 76.8917 58 76.8803V97.781L59.3383 101.67C59.341 101.677 59.3435 101.685 59.3462 101.693C59.8995 103.265 61.378 104.317 63.0306 104.317H63.0571C64.7203 104.306 66.1973 103.231 66.7326 101.642C66.7351 101.635 66.7376 101.628 66.7401 101.62L74.1376 79.1602C74.7294 77.3634 73.7651 75.4233 71.9839 74.8264Z" fill="#DFDEF5"/>
<path d="M43.4746 74.6099C41.5978 74.6099 40.0762 76.1446 40.0762 78.0376V100.889C40.0762 102.782 41.5978 104.317 43.4746 104.317C45.3515 104.317 46.873 102.782 46.873 100.889V78.0376C46.873 76.1446 45.3515 74.6099 43.4746 74.6099Z" fill="#FFF5F5"/>
<path d="M47.8047 49.3596V31.0783C47.8047 28.4465 50.6236 26.7964 52.8892 28.1022L68.7486 37.2428C71.0316 38.5586 71.0316 41.8791 68.7486 43.1949L52.8892 52.3356C50.6236 53.6415 47.8047 51.9914 47.8047 49.3596Z" fill="#FFF5F5"/>
<path d="M68.7486 37.2427L58 31.0479V49.3901L68.7486 43.1951C71.0316 41.879 71.0316 38.5587 68.7486 37.2427Z" fill="#DFDEF5"/>
</g>
<defs>
<clipPath id="clip0_7_15594">
<rect width="116" height="117" fill="white"/>
</clipPath>
</defs>
</svg>
