<svg width="150" height="150" viewBox="0 0 150 150" fill="none" xmlns="http://www.w3.org/2000/svg">
<path d="M17.4695 34.4743C37.7605 0.803719 86.1495 -11.0716 118.171 11.8053C116.394 16.0088 110.407 17.3562 106.364 17.885C105.728 17.9684 105.646 18.0575 105.738 18.6952C106.538 22.8379 104.897 22.9284 108.802 23.4303C112.042 23.8757 115.252 25.7095 116.534 28.9375C117.548 31.573 115.804 35.0851 112.686 35.4852C109.158 35.7213 105.606 35.5121 102.071 35.5799C101.47 35.5771 100.865 35.4923 100.834 36.2742C99.7022 46.0923 89.4706 51.6602 80.6296 52.008C80.0108 52.1155 79.3098 52.1734 79.6227 51.2742C79.7382 50.8444 79.7966 50.3764 80.0636 50.0102C80.3084 49.7726 80.631 49.6864 80.93 49.562C81.6379 49.2707 82.286 48.8748 82.8715 48.3814C83.9841 47.4397 84.1997 46.0555 83.4473 44.7844C83.1928 44.2415 82.6212 43.8569 82.5183 43.2532C82.5252 43.1598 82.5642 43.075 82.5892 42.9859C82.9995 42.5505 83.4069 42.1206 83.5627 41.5013C83.8186 40.8863 83.6044 40.1115 84.1232 39.6322C85.1176 38.682 85.3025 37.5028 84.3568 36.4297C83.4751 35.4795 84.1524 33.9667 82.8312 33.2583C82.2985 32.9388 81.93 32.451 81.6532 31.8741C80.5045 29.3517 78.4462 29.1099 76.0513 28.9601C74.9179 27.9576 73.8276 26.9354 72.2574 26.7798C70.8668 26.5621 69.4309 26.9651 68.2792 27.7795C68.0098 27.9661 67.7463 28.1626 67.3964 28.1358C66.3213 27.788 65.3573 27.1305 64.2171 26.9735C63.7383 26.7501 63.204 26.9877 62.6916 26.9C62.3675 26.7671 62.0743 26.9764 61.754 26.9919C61.2842 27.0259 60.8221 27.2153 60.3535 27.1969C59.4204 27.0994 58.4627 26.7912 57.5237 27.0527C55.455 27.1828 53.3192 28.8866 53.7684 31.2096C54.0862 32.205 53.1252 32.0707 52.4963 32.0975C47.7472 31.539 49.8674 34.1788 47.9934 34.5195C47.2909 34.6383 46.6367 34.9295 46.0593 35.3834C43.7901 37.3063 47.956 38.8757 43.8771 40.3745C42.3806 41.1464 41.9547 42.7272 42.8492 44.1892C43.1469 44.6755 43.5497 45.0969 43.729 45.6568C44.5158 48.1523 37.1321 44.7971 36.2428 44.3871C34.6986 43.6236 33.2847 42.6452 32.0764 41.3939C30.8002 40.0733 29.8233 38.5435 29.251 36.7605C29.0177 36.0338 29.0144 36.0522 28.2791 36.1427C24.77 36.5739 21.3382 36.294 18.0302 34.9281C17.8033 34.8348 17.5321 34.7867 17.4695 34.4743Z" fill="#FDF2C3"/>
<path d="M79.6685 51.8396C88.7327 51.809 99.6058 46.2746 100.643 36.1087C100.698 35.5196 101.064 35.3734 101.573 35.3747C104.964 35.3774 108.357 35.38 111.75 35.3654C114.191 35.3561 116.012 33.892 116.52 31.5437C117.268 26.7912 112.106 23.9003 108.161 23.524C107.575 23.4416 106.985 23.3658 106.429 23.1424C106.117 23.0187 105.888 22.8153 105.888 22.4429C105.564 15.5589 104.093 18.8526 111.092 16.737C113.978 15.8873 116.473 14.4499 118.167 11.801C136.426 24.6955 145.985 47.8663 146.173 70.198C145.891 70.3217 145.683 70.1409 145.485 69.9933C141.774 67.2114 137.312 65.7035 132.78 65.1158C123.742 63.7767 112.25 67.613 110.706 78.0502C110.582 78.7416 110.402 78.8813 109.735 78.7151C108.48 78.3986 107.198 78.1964 105.918 78.2044C100.962 78.0409 95.6269 80.7456 94.336 85.9994C94.2601 86.276 94.2248 86.5724 93.9593 86.7474C92.0039 86.7781 91.8822 87.7747 91.3185 85.8744C90.7862 84.7162 89.8471 82.7881 88.3141 83.3053C86.4804 83.8678 88.5731 88.5046 86.9094 87.666C84.933 86.7847 82.8965 86.7566 80.8234 87.1843C80.5945 87.2309 80.363 87.324 80.1302 87.1955C79.4985 86.3212 79.8804 85.7667 79.7666 84.8518C79.5482 83.8745 79.4017 82.8851 79.3925 81.8798C79.3912 81.7096 79.3624 81.5461 79.2853 81.3958C78.7228 80.3068 78.4102 79.11 77.8923 77.9997C76.2992 74.2445 73.2778 71.2193 69.3644 70.1754C69.2113 70.1329 69.1067 70.0225 69.0348 69.8909C67.8471 67.4295 65.485 67.7207 65.8093 66.3777C65.9127 65.7155 66.2933 65.1809 66.6347 64.6344C66.7576 64.4363 66.976 64.4296 67.1958 64.4895C70.1662 65.4442 72.3714 65.7673 73.3327 62.1026C73.9422 60.9577 74.2548 61.3872 74.4877 59.8407C76.2534 57.2131 78.991 58.0216 79.4056 54.1135C79.5377 53.5364 79.0995 52.1175 79.6685 51.8396Z" fill="#FBC04B"/>
<path d="M17.471 34.4723C21.0787 36.1331 24.9828 36.4508 28.8631 35.8711C29.0732 35.8427 29.1989 35.8983 29.2627 36.1195C31.0162 42.3569 36.9034 45.117 42.6024 46.3502C43.1773 46.458 43.3945 46.7189 42.7282 46.9798C41.4694 47.4189 40.5073 48.5409 40.1032 49.8342C39.9717 50.2108 40.0149 50.6272 39.8783 51.0038C39.7153 51.8036 40.3616 53.3987 40.8856 54.0522C42.2847 55.9501 44.0247 55.291 43.4544 56.5684C43.2147 57.316 43.3423 57.9207 43.939 58.4471C45.2977 59.6462 46.6167 60.8987 48.3318 61.5692C49.4689 61.9311 50.057 61.9719 50.8895 62.9827C51.1227 63.2959 50.8984 63.7031 50.5346 63.727C49.6464 63.8881 48.8742 64.2465 48.3408 65.0327C47.8185 65.2925 47.2427 65.3912 46.7082 65.6159C45.8289 65.9857 44.9864 66.4259 44.1962 66.9682C43.7632 67.3312 43.2127 67.3255 42.6901 67.4219C41.4501 67.642 40.8546 68.671 40.1432 69.5877C39.3143 69.8486 38.6557 70.3863 38.0203 70.9626C37.5395 71.548 37.0653 71.3518 37.0143 70.6144C36.8758 68.7504 33.8854 62.2295 31.6511 64.8932C30.6644 66.4542 30.591 68.5973 31.3882 70.2547C31.691 70.7233 31.2869 71.067 30.8629 70.7199C30.1856 70.3103 29.5082 69.8962 28.6878 69.8792C25.006 69.945 26.8414 74.4069 28.8483 75.6469C29.4438 76.1041 30.1069 76.4456 30.7547 76.812C30.9969 76.9844 31.5595 77.1319 31.4776 77.5086C31.3546 77.7842 31.0034 77.5971 30.7933 77.5437C28.7059 76.7666 25.6272 76.3004 24.4569 78.7678C23.813 80.6862 26.6906 83.7618 28.1439 84.7794C28.7529 85.2139 29.3832 85.6099 30.0509 85.9434C30.966 86.3234 30.5522 86.9224 29.7132 86.7432C28.595 86.6513 27.4763 86.5753 26.3529 86.573C25.6331 86.573 25.5789 86.4494 25.5808 85.7154C25.6086 84.4595 24.9919 80.6556 23.1184 82.1327C20.7029 83.8242 21.466 86.6139 20.1526 85.4862C19.7987 85.206 19.4056 84.9972 18.9899 84.8327C18.7953 84.7556 18.5975 84.6875 18.4956 84.4776C15.6516 82.7873 14.1107 84.8634 14.1319 83.0607C13.7157 78.3583 11.1746 69.0579 4.96183 72.2809C4.42308 72.56 4.65317 72.0381 4.65965 71.8986C5.40908 58.5322 10.5165 45.6763 17.471 34.4723Z" fill="#FBC04B"/>
<path d="M93.9724 86.6679C95.5674 79.0519 103.542 76.8561 109.938 78.5829C110.311 78.6788 110.449 78.5629 110.508 78.1992C113.447 61.8347 135.53 61.8734 146.176 70.1995C146.601 77.4397 145.664 84.7106 143.947 91.7312C143.64 92.9369 143.288 94.1292 142.956 95.3276C142.533 95.7482 141.963 95.6847 141.452 95.7718C138.583 96.2645 135.709 96.7291 132.825 97.1314C129.394 97.6208 125.961 97.9091 122.505 97.7918C121.969 97.7847 121.441 97.8154 120.926 97.974C120.743 98.029 120.412 98.0867 120.317 97.8718C120.254 97.691 120.412 97.59 120.539 97.5304C122.577 96.6766 124.929 95.4764 125.389 93.0351C125.585 90.755 121.739 92.817 120.827 93.3169C120.454 93.6012 119.952 93.5239 120.176 92.9585C120.694 91.8787 120.836 90.6961 121.07 89.5383C121.203 88.8654 121.387 88.2116 121.676 87.5917C121.836 87.2477 121.834 86.9207 121.641 86.5939C120.641 84.8745 117.063 88.9008 116.573 89.9608C116.131 90.8618 115.114 89.7126 114.366 89.7722C111.795 89.6864 111.694 92.5929 112.5 94.4674C112.88 95.688 111.269 94.508 109.897 94.9626C108.053 95.4744 109.546 96.8372 110.294 97.6378C110.374 97.7676 110.461 97.9084 110.347 98.0559C110.022 98.3311 109.459 97.8626 109.104 97.7813C107.444 97.0979 105.621 96.7278 103.875 97.2677C102.799 97.4242 103.423 96.0431 103.512 95.46C104.473 91.6297 101.409 90.833 102.813 89.8142C103.657 89.0436 104.542 88.3019 105.29 87.4358C105.342 87.2497 105.062 87.2549 104.95 87.2077C104.463 86.9562 103.964 87.3303 103.444 87.1927C102.532 86.9155 101.608 87.2203 100.679 87.1114C99.8988 86.8677 99.0915 87.0224 98.2999 87.0584C97.7036 87.0243 97.1269 86.8179 96.5254 86.89C96.0103 86.9313 95.4979 86.7931 94.9829 86.8861C94.6539 86.9457 94.1218 87.061 93.9724 86.6679Z" fill="#FDF2C3"/>
<path d="M142.329 143.338C144.294 143.671 151.678 144.005 149.048 146.99C148.089 147.836 146.88 148.107 145.684 148.307C142.191 148.893 138.679 149.33 135.142 149.519C114.406 150.297 93.6288 150.105 72.901 149.121C53.4864 148.101 34.1196 146.044 14.6555 146.289C13.2764 146.388 0.0635853 145.793 4.11722 144.662C7.44018 144.081 10.8262 144.261 14.1819 144.207C14.2856 144.206 14.4254 144.271 14.4879 144.11C10.5807 143.488 6.55265 144.218 2.63882 143.403C1.96663 143.28 1.30357 143.107 0.718327 142.723C-0.1052 142.343 -0.229041 140.784 0.85625 140.843C3.35675 140.768 5.84505 141.024 8.34233 141.104C9.65705 141.309 7.57421 138.875 10.3738 138.121C12.7138 137.355 14.7174 138.881 14.2617 137.622C13.9628 136.882 14.6375 136.055 15.4019 136.407C17.167 137.678 17.3153 135.817 18.1859 136.72C19.15 137.832 20.3082 135.845 21.8535 136.66C22.7448 137.137 21.4024 135.542 21.338 135.315C21.2065 135.052 21.1491 134.786 21.4006 134.571C21.8259 134.123 22.6958 135.264 23.0452 135.532C23.3809 135.876 23.7418 136.191 24.104 136.502C24.5107 136.85 24.9766 136.994 25.5096 136.838C26.0483 136.712 25.5779 136.182 25.5643 135.84C25.4381 135.154 26.0096 134.966 26.3706 135.542C26.5678 136.07 26.9455 136.177 27.4623 136.111C28.9182 135.888 29.8474 137.175 30.3457 138.407C30.5242 138.857 30.8136 139.211 31.2499 139.425C31.4136 139.506 31.5695 139.61 31.6198 139.797C31.8724 140.737 32.6387 140.901 33.4081 141.016C34.0506 141.112 34.6688 140.91 35.2803 140.727C35.4794 140.668 35.6766 140.595 35.8881 140.674C36.1639 140.834 36.2045 141.135 36.2941 141.404C36.8463 143.323 38.5755 144.655 40.5275 144.667C41.984 144.764 43.3774 144.466 44.7289 143.922C44.9878 143.817 45.2404 143.674 45.5356 143.705C52.8246 146.256 61.0125 146.168 68.0026 142.683C68.3581 142.52 68.7043 142.487 69.0813 142.578C78.1578 144.515 85.7611 137.08 92.1717 131.553C92.7191 131.067 93.2383 130.546 93.8327 130.117C94.0822 130.012 94.2983 130.124 94.5076 130.239C96.4034 131.275 98.3367 132.235 100.235 133.265C100.532 133.427 100.866 133.549 101.021 133.899C101.086 134.201 100.944 134.463 100.866 134.737C100.74 135.432 100.081 136.54 100.993 136.931C101.938 137.248 102.974 137.616 102.67 138.884C102.594 139.333 102.45 139.766 102.344 140.208C102.234 140.472 102.43 140.511 102.531 140.293C104.036 138.378 102.919 136.832 103.591 136.555C104.668 136.317 104.837 137.868 104.738 138.654C104.71 139.152 104.712 139.154 105.185 138.966C105.724 138.751 106.222 138.447 106.756 138.222C107.071 138.09 107.39 137.97 107.706 137.837C107.784 137.805 107.906 137.795 107.916 137.699C107.927 137.598 107.809 137.57 107.734 137.532C107.098 137.209 106.475 136.854 105.822 136.57C105.028 136.224 104.291 135.775 103.555 135.323C103.376 135.213 103.206 135.088 103.136 134.869C103.893 132.159 108.623 129.073 111.001 131.628C111.492 132.135 111.504 132.132 111.9 131.568C112.345 131.086 113.711 128.467 114.128 128.788C114.437 128.948 114.216 129.259 114.166 129.507C114.143 129.702 111.225 134.451 112.791 133.418C113.727 133.032 114.908 132.549 115.818 133.257C115.94 133.531 115.824 133.772 115.72 134.014C114.968 135.372 114.24 136.745 113.483 138.101C113.231 138.554 113.284 138.694 113.75 138.9C115.369 139.605 117.089 140.068 118.639 140.936C120.174 141.52 117.736 144.196 119.154 147.491C119.354 147.961 119.619 148.3 120.173 148.258C123.359 148.559 126.598 148.285 129.801 148.375C135.409 148.496 137.957 148.615 141.772 143.721C141.917 143.542 142.037 143.3 142.329 143.338Z" fill="#2D3E47"/>
<path d="M137.289 105.533C137.336 108.936 136.433 112.329 136.075 115.62C136.221 115.754 136.375 115.575 136.511 115.502C137.538 114.952 138.617 114.788 139.741 115.062C140.901 115.615 141.568 107.714 141.723 106.72C141.736 106.582 141.657 106.351 141.844 106.336C142.007 106.325 142.008 106.564 142.047 106.701C142.848 109.56 142.533 112.509 141.791 115.334C141.286 116.563 144.604 115.999 145.149 119.134C145.64 121.127 143.995 122.944 145.107 122.695C149.587 122.243 148.342 126.73 149.416 129.46C150.09 131.109 148.612 132.534 149.23 133.37C150.499 135.33 149.989 137.898 149.203 139.946C148.53 141.684 147.08 142.159 145.427 142.199C144.689 142.216 143.949 142.153 143.209 142.126C143.037 141.789 143.272 141.547 143.407 141.293C144.181 139.844 144.99 138.412 145.618 136.887C146.54 134.699 147.521 131.673 145.506 129.804C143.794 128.735 141.936 128.672 140.243 129.721C137.518 131.377 134.64 132.583 131.532 133.222C130.69 133.395 129.881 133.697 129.155 134.192C129.045 134.268 128.923 134.328 128.784 134.329C127.155 134.811 125.662 134.4 124.231 133.594C121.972 132.265 119.63 130.987 117.625 129.274C117.552 129.143 117.529 129.002 117.558 128.854C117.803 126.774 116.001 124.895 114.225 125.135C113.407 125.438 112.799 124.59 112.204 124.16C111.145 123.334 110.097 122.489 109.08 121.605C108.6 121.187 108.53 120.982 108.741 120.377C110.97 114.362 108.346 109.901 102.273 108.761C102.106 108.535 102.149 108.269 102.15 108.015C102.153 107.543 102.139 107.079 101.986 106.625C101.62 105.547 100.276 104.839 99.2113 105.181C98.8803 105.287 98.5533 105.417 98.2878 105.05C98.1329 104.602 99.0791 102.754 99.354 102.429C103.468 101.482 107.452 102.952 109.982 106.473C110.194 106.761 110.272 106.745 110.449 106.422C111.984 102.397 116.3 104.56 116.203 108.035C116.233 108.835 116.237 108.851 116.982 109.05C119.331 109.764 119.764 112.647 119.456 114.811C119.417 115.028 119.524 115.085 119.712 115.043C120.699 114.8 121.733 114.725 122.66 115.212C122.869 115.313 123.059 115.451 123.042 115.719C123.025 115.995 122.803 116.094 122.586 116.153C121.914 116.333 121.235 116.479 120.592 116.766C118.982 117.439 117.92 118.982 117.601 120.666C117.688 120.782 117.848 120.685 117.971 120.653C120.652 119.778 123.687 119.79 125.153 122.66C125.488 123.254 125.774 123.869 126.013 124.508C126.113 124.785 126.277 125.275 126.627 125.154C126.895 125.049 126.699 124.777 126.644 124.596C126.458 123.972 126.257 123.353 126.027 122.743C125.62 121.661 125.032 120.711 124.151 119.968C123.963 119.809 123.775 119.631 123.881 119.353C123.984 119.087 124.238 119.06 124.479 119.047C125.897 118.973 127.02 119.629 128.028 120.562C128.815 121.302 129.462 122.182 130.167 122.997C130.244 123.07 130.327 123.141 130.442 123.1C131.039 122.507 129.736 120.606 129.233 120.151C128.139 119.231 129.011 117.586 127.361 117.151C126.504 116.916 125.823 116.889 125.546 115.884C125.392 115.41 125.251 114.926 124.916 114.539C124.582 113.836 124.375 113.085 124.124 112.35C123.685 111.41 123.552 110.348 123.294 109.338C123.232 109.04 123.229 108.761 123.585 108.643C124.264 108.636 125.32 111.071 125.6 111.689C126.197 113.073 126.792 114.456 127.322 115.868C127.463 116.186 127.634 116.745 127.925 116.203C128.66 115.127 128.771 113.967 128.344 112.74C127.72 110.434 126.839 108.227 125.998 106C125.598 104.947 125.049 103.967 124.639 102.921C124.244 101.967 125.157 102.242 125.603 102.627C128.088 105.355 129.246 109.074 130.273 112.577C130.465 113.289 130.809 113.476 131.49 113.298C131.795 113.218 131.865 113.073 131.74 112.782C130.769 110.35 129.673 107.974 128.069 105.908C127.909 105.648 127.534 105.301 127.761 104.989C128.056 104.774 128.423 105.118 128.686 105.259C131.967 107.528 134.2 112.664 134.208 116.227C135.01 111.591 135.841 106.887 135.64 102.162C135.707 101.272 135.097 97.2966 135.768 97.0522C136.848 96.8007 137.869 104.882 137.289 105.533Z" fill="#354E52"/>
<path d="M17.7862 136.561C16.0068 137.986 15.3359 135.928 14.6418 136.639C13.8537 137.305 14.9054 137.738 14.4859 138.281C14.2332 138.541 13.8665 138.357 13.5559 138.281C12.4384 138.008 11.3267 138.019 10.2305 138.375C9.17097 138.718 8.76495 139.404 9.015 140.488C9.15936 141.112 9.01951 141.348 8.36409 141.314C5.63929 141.171 2.90805 140.892 0.180034 141.122C-0.606214 138.638 1.50957 137.05 0.325038 133.765C-0.028773 132.631 0.15103 131.48 0.61569 130.388C0.789695 129.979 0.881854 129.559 0.899254 129.111C1.00817 126.774 3.34629 124.436 5.54456 124.46C5.66121 124.309 5.05348 123.655 4.98968 123.324C4.82211 122.974 3.72523 121.655 3.97851 121.408C4.14542 121.217 4.34005 121.486 4.52888 121.527C4.91878 121.411 5.30675 122.169 5.53489 121.585C5.90804 120.662 6.60213 119.993 7.26915 119.303C7.80277 119.11 8.25196 118.788 8.64057 118.369C9.22897 117.802 10.8279 117.493 11.6502 117.484C12.6685 117.6 13.8975 118.131 14.4414 116.877C14.7598 116.282 16.36 113.937 16.9799 114.182C17.4008 114.391 18.0839 114.558 18.0691 115.149C17.9267 115.622 17.5149 115.888 17.239 116.258C16.8839 116.733 16.5881 117.234 16.3696 117.786C16.2536 118.078 16.34 118.215 16.6513 118.215C17.8751 118.226 19.1299 118.116 20.3054 118.537C21.1303 118.781 20.8152 119.4 20.0811 119.399C18.1232 119.807 16.0932 120.697 15.0047 122.507C14.7024 122.887 15.0311 123.151 15.3759 122.872C16.5784 121.985 17.8429 121.162 19.3187 120.858C20.0708 120.689 23.1037 120.516 21.8695 121.964C21.0349 122.498 20.2119 122.173 19.465 123.275C19.2742 123.549 19.0177 123.691 18.6749 123.705C17.0135 123.774 15.6098 125 15.5467 126.838C15.488 128.563 15.2831 130.283 15.216 132.01C15.1812 132.9 15.5093 133.595 16.2697 134.072C16.9497 134.499 17.5497 135.015 17.8042 135.834C17.8783 136.072 18.004 136.324 17.7862 136.561Z" fill="#354E52"/>
<path d="M18.487 84.4777C19.2191 84.6521 19.8906 84.9585 20.443 85.4907C21.1815 86.3234 20.4939 83.6789 23.189 81.8089C25.1288 80.509 25.8984 84.6318 25.7276 85.9696C25.7127 86.2264 25.676 86.398 26.022 86.4067C27.5147 86.4426 29.0071 86.5017 30.4994 86.5531C28.0973 84.9362 25.5793 83.5441 24.3677 80.3519C23.9559 79.3728 24.0829 78.6351 24.8208 77.8654C25.9898 76.6459 27.4367 76.58 28.9556 76.8485C29.7318 76.9862 30.4793 77.2305 31.2212 77.4942C31.4224 77.5455 31.471 77.4874 31.2965 77.3468C29.0863 76.1845 26.3817 74.5375 26.3546 71.671C26.517 69.1477 29.5373 69.3367 31.0657 70.6435C31.1506 70.7036 31.2393 70.8548 31.3575 70.7404C30.5346 68.9218 30.384 67.0645 31.2317 65.2294C33.3427 61.3809 36.7172 67.8167 37.071 69.9833C37.1768 70.3982 37.1301 70.8548 37.3952 71.2241C38.0235 70.7908 40.2547 68.3625 40.3663 70.1917C40.3482 70.6793 40.5551 71.3463 40.0755 71.6516C35.4948 75.5835 34.1303 81.9776 32.9108 87.696C32.8526 88.49 32.2538 88.426 31.677 88.2815C27.3832 87.666 23.3501 90.4918 21.2666 94.1871C20.6298 95.2932 18.7389 96.0202 17.8851 94.8695C16.9712 93.7305 15.6339 93.1644 14.2877 92.732C12.7461 92.2434 17.7568 89.4826 18.3633 89.5621C18.6751 89.501 18.6726 89.2587 18.5978 88.9892C18.3175 87.9849 18.0339 86.9806 17.7813 85.9676C17.6111 85.2881 17.8748 84.7869 18.487 84.4777Z" fill="#487368"/>
<path d="M13.9687 92.4167C15.4402 92.8694 16.891 93.4 17.9212 94.6332C18.3912 95.1962 18.8532 95.4234 19.518 95.1954C20.0933 94.9974 20.6439 94.8693 21.0278 94.2202C23.3164 90.0705 27.8642 87.1507 32.6155 88.2183C33.0081 88.3684 32.3888 90.6051 32.3402 91.0302C32.1383 91.4765 31.5182 91.556 31.144 91.8277C29.6341 92.7583 27.9903 92.5092 26.3145 92.5125C26.0025 92.4614 25.6865 92.3908 25.4375 92.6853C24.7097 93.0536 23.9612 93.3814 23.3156 93.9022C21.6709 95.227 20.5322 96.9023 19.9553 98.9727C19.8906 99.2023 19.8595 99.4546 19.6401 99.6055C19.273 99.7378 18.9107 99.6096 18.5492 99.5739C17.6443 99.4863 16.78 99.6282 15.982 100.071C15.2503 100.478 15.0492 101.201 15.3668 102.116C15.441 102.328 15.5527 102.533 15.4761 102.771C15.3141 103.079 14.9973 103.165 14.7244 103.304C12.7668 104.304 11.4128 105.857 10.6433 107.954C10.5067 108.325 10.4293 108.712 10.3365 109.094C10.3024 109.532 9.98717 109.673 9.61084 109.461C8.57584 108.88 7.68064 109.829 7.96744 110.921C8.13693 111.74 8.39924 112.53 8.68085 113.315C9.10491 114.104 8.6751 114.637 7.86242 114.192C7.52862 114.057 7.1135 114.1 6.87123 113.749C5.37674 108.332 4.31078 102.791 3.83773 97.1798C3.67207 95.4923 5.77367 95.4826 6.94209 95.4282C7.27917 95.4266 7.45513 95.3357 7.39711 94.9642C7.81798 93.8998 9.30217 93.0033 10.2966 92.5498C11.4837 92.3324 12.7526 92.394 13.9687 92.4167Z" fill="#2D3E47"/>
<path d="M129.874 111.493C128.62 108.457 127.768 105.218 125.524 102.72C125.444 102.464 125.638 102.332 125.766 102.176C126.289 101.537 126.851 100.932 127.351 100.273C128.283 99.1643 126.582 98.4534 125.759 98.1238C125.555 98.0341 125.283 98.0086 125.248 97.6966C131.192 97.2662 137.073 96.3201 142.947 95.3268C142.246 98.1362 141.412 100.898 140.253 103.552C139.77 104.863 138.402 105.047 137.289 105.53C137.209 102.825 137.078 100.076 136.072 97.5316C136.014 97.3684 135.969 97.0998 135.787 97.1234C135.643 97.1417 135.697 97.4129 135.688 97.5715C135.607 98.9684 135.741 100.359 135.801 101.753C135.777 103.331 136.281 106.132 135.237 107.369C134.428 108.073 133.619 108.775 132.814 109.482C132.658 109.618 132.505 109.771 132.277 109.767C131.961 109.273 131.651 108.777 131.33 108.287C130.513 107.037 129.545 105.942 128.251 105.191C128.107 105.108 127.911 104.919 127.784 105.064C127.684 105.176 127.894 105.347 127.987 105.475C129.184 107.142 130.381 108.858 131.065 110.824C130.775 111.247 130.378 111.472 129.874 111.493Z" fill="#FBC04B"/>
<path d="M6.86765 113.751C7.3378 113.877 7.80861 114.004 8.27876 114.131C8.66385 114.323 8.82391 114.097 8.63438 113.737C8.39261 112.989 8.13142 112.247 7.90371 111.495C7.2427 109.706 8.44753 108.409 10.1238 109.487C10.8096 109.488 11.1378 110.294 11.6602 110.649C11.8671 111 12.0245 111.377 12.2114 111.737C12.3996 112.101 12.435 112.104 12.6688 111.753C13.0344 111.251 13.9366 109.903 14.6257 110.235C14.9211 110.439 14.7402 110.732 14.6592 110.978C14.4208 111.7 14.3129 112.448 14.1797 113.193C14.116 113.549 14.2741 113.664 14.5882 113.657C15.1688 113.658 16.3958 113.64 16.6282 114.302C15.8198 115.32 14.9365 116.271 14.2915 117.426C14.039 117.876 13.4905 118.023 12.9869 117.893C11.8966 117.611 10.8331 117.604 9.7729 118.019C8.59419 118.436 8.06712 116.995 6.71696 117.836C6.61517 117.9 6.50198 117.939 6.38545 117.863C4.27851 117.325 4.41513 113.746 6.86765 113.751Z" fill="#659271"/>
<path d="M145.394 129.545C149.219 132.687 144.739 138.731 143.218 142.125C141.227 144.777 138.991 147.74 135.588 148.376C135.13 148.459 134.809 148.446 135.204 147.923C140.669 143.985 143.671 137.631 144.925 131.016C145.073 130.596 145.001 129.769 145.394 129.545Z" fill="#FBC04B"/>
<path d="M10.765 92.48C10.1824 92.8638 9.52443 93.1009 8.94951 93.51C8.36248 93.9272 7.95707 94.5351 7.39184 94.9678C6.60115 93.8873 3.39365 88.6167 4.65804 87.6136C5.82969 86.5714 10.4782 91.1281 10.765 92.48Z" fill="#487368"/>
<path d="M7.29372 119.411C6.82326 120.027 6.26838 120.586 5.86752 121.254C5.37773 122.133 5.37837 122.133 4.52639 121.527C4.67268 121.344 4.51157 121.224 4.43939 121.087C4.20158 120.636 3.91286 120.202 3.83552 119.687C3.58225 118.122 4.944 117.926 6.13562 118.223C6.37407 118.676 6.68341 119.051 7.17449 119.233C7.24023 119.257 7.27761 119.334 7.29372 119.411Z" fill="#659271"/>
<path d="M7.29389 119.41C6.72225 119.204 6.07779 119.074 6.13579 118.222C6.34008 118.19 6.43417 118.078 6.38519 117.861C7.33256 117.162 8.49066 117.266 9.16413 118.111C8.58153 118.605 8.14523 119.323 7.29389 119.41Z" fill="#487368"/>
<path d="M4.98493 123.326C5.26978 123.531 5.45796 123.823 5.62874 124.123C6.08825 124.649 5.92455 124.772 5.26462 124.655C4.37268 124.647 5.09964 124.174 4.98493 123.326Z" fill="#659271"/>
<path d="M39.7932 50.5241C39.8674 49.4264 40.4751 48.4281 41.2755 47.7053C41.5217 47.755 41.4901 47.9596 41.4888 48.1323C41.4773 49.223 41.6352 50.2793 42.0715 51.28C43.2818 54.5531 47.764 53.3134 45.9995 50.7927C44.224 49.0976 45.0753 48.2317 46.4552 46.7223C47.2124 45.5241 46.7361 44.9385 48.3491 44.1909C48.7932 43.9827 49.2527 43.81 49.6847 43.5758C50.1967 43.2978 50.2211 43.1914 49.8942 42.7135C48.6308 40.8753 51.6231 41.546 51.8989 39.5942C51.999 39.0938 51.9036 38.9164 51.423 38.8301C49.1309 38.1558 49.8395 34.7692 51.6871 34.0665C52.1572 33.8418 52.6296 33.6253 53.1008 33.4041C53.2497 33.3343 53.3952 33.2645 53.529 33.1664C54.0723 32.7665 54.1259 32.2709 53.6674 31.8155C53.3021 29.2025 54.2748 27.6044 56.5576 27.0697C57.4337 26.8059 58.3832 26.8189 59.2954 26.8958C59.7131 26.9384 60.1389 27.1277 60.5601 27.0508C61.2245 26.8899 61.8993 26.8036 62.5835 26.7172C64.3008 26.5788 65.9228 27.1868 67.4063 28.0149C67.6285 28.0503 67.7821 28.1757 67.8798 28.3827C68.4872 29.8602 70.1138 30.0435 71.2482 30.907C71.4169 31.0963 71.5658 30.8893 71.4599 30.7107C71.2982 30.3061 71.0457 29.9785 70.6688 29.7584C70.5047 29.6626 70.2825 29.5893 70.2953 29.3539C70.3092 29.0996 70.5408 29.0274 70.7351 28.9588C71.1679 28.8038 71.5891 28.6158 72.0382 28.5069C74.5491 27.9699 74.3047 29.536 75.8162 30.4776C77.2868 31.0904 76.754 33.5047 78.8494 32.7736C79.5615 32.4424 80.54 32.3371 80.8542 33.2515C81.0985 33.7921 80.4051 33.7744 81.0962 34.3907C81.8769 35.2435 81.714 36.5246 82.2748 37.504C83.2755 39.4002 81.6128 40.9806 81.671 39.5599C81.6756 39.1979 81.657 38.8383 81.6175 38.4787C81.6419 38.7957 81.6419 39.1175 81.6768 39.431C81.927 41.9056 80.0781 41.5968 79.5429 43.4339C79.3346 44.0265 80.113 44.256 80.4947 44.4961C81.422 44.9078 83.3988 47.1127 82.2632 47.9655C80.3341 49.8712 79.2671 47.8792 80.07 49.6997C80.3143 50.0486 79.9967 50.4354 79.9059 50.7867C79.8652 50.9192 79.807 51.0458 79.7686 51.1795C79.7628 51.2043 79.7558 51.228 79.7488 51.2528C79.6779 51.3297 79.757 51.4598 79.6546 51.5261C79.5732 51.6633 79.686 51.8502 79.5766 51.9661C79.8303 54.3023 79.3695 57.004 76.9727 57.9634C76.5434 58.1526 76.1454 58.414 75.7324 58.6423C75.4485 58.4424 75.5788 58.1834 75.6544 57.948C76.2001 56.2588 76.6783 54.4762 76.534 52.6782C76.4503 52.4949 76.2839 52.5481 76.1454 52.5457C75.4671 52.5327 74.8993 52.2322 74.3618 51.8443C74.1989 51.306 74.3943 51.0363 74.9249 51.1132C75.3391 51.1073 76.6073 51.5816 76.6481 50.989C76.804 49.9374 77.0006 48.8953 77.3066 47.8768C77.3857 47.6142 77.2706 47.5539 77.0251 47.6308C76.6341 47.7514 76.2699 48.0069 75.8301 47.8957C75.5113 47.5397 75.5765 47.1186 75.9965 46.7909C76.2804 46.5685 76.6492 46.5011 76.9192 46.2563C76.9785 46.2184 77.0425 46.1947 77.1111 46.1829C77.544 46.138 77.551 46.1167 77.3043 45.6175C77.1612 44.3009 76.7668 43.0412 76.5178 41.7483C76.2874 40.9202 76.2187 40.8433 75.3764 40.8717C73.1401 40.9415 70.4616 40.5133 69.1527 38.4302C69.034 38.1203 68.8292 38.1002 68.7757 38.4645C68.6186 38.9223 68.4837 39.3884 68.3219 39.845C67.7949 40.9959 66.6174 41.6288 65.5179 42.0866C64.7825 42.2723 63.576 42.3752 63.5946 43.3901C63.6027 43.9804 63.4608 44.5304 63.2688 45.0745C63.2746 45.3076 63.185 45.5311 63.0244 45.6968C62.1506 46.3864 61.1721 46.9412 60.4252 47.7999C60.0621 48.2092 59.7212 47.5941 59.6072 47.2736C59.2116 46.4609 58.6869 45.7547 58.0225 45.1562C56.5134 43.6669 54.6878 44.9811 54.6902 43.5096C54.3376 39.043 56.1318 34.4013 59.8434 31.8971C61.4781 30.7154 63.3514 29.956 65.3585 29.8199C65.6237 29.8874 65.8855 29.8578 66.1427 29.775C66.7838 29.6354 66.9083 29.4734 66.7582 28.9742C66.6092 28.7388 66.3195 28.6737 66.0822 28.5732C58.311 27.5322 52.9647 34.2475 52.7948 41.805C52.7308 42.7857 52.8088 43.7414 52.8879 44.7067C52.9205 45.0935 52.7867 45.4235 52.5586 45.7169C50.9227 47.8413 51.3613 50.9003 52.4562 53.1809C53.088 54.3141 54.0619 55.3527 55.3883 55.4982C55.6315 55.6473 55.9293 55.5207 56.1644 55.6981C56.6472 56.0423 57.5885 55.7573 57.6257 56.5865C57.6839 59.0587 57.3046 63.4047 54.1073 63.258C53.4673 63.2249 52.8344 63.3006 52.2084 63.4413C52.1118 63.4555 52.0141 63.4555 51.9164 63.4425C51.5382 63.3018 51.1031 63.3266 50.7819 63.025C50.092 62.2821 49.1638 62.0585 48.2622 61.7238C46.3243 61.0058 44.8421 59.5816 43.4178 58.1207C42.917 57.6073 43.1535 56.9141 43.3584 56.3073C43.4493 56.0388 43.4306 55.9442 43.1419 55.8436C40.7483 55.0227 39.4619 52.8604 39.7932 50.5241Z" fill="#0B0D13"/>
<path d="M53.6633 31.8147C53.8525 31.8849 54.1775 31.7007 54.2172 32.0323C54.2727 32.5067 54.1334 32.9811 53.7404 33.2413C53.2613 33.5591 52.7278 33.8056 52.1943 34.0243C50.1522 34.5483 49.1148 38.1443 51.6688 38.6659C51.978 38.7143 52.0935 38.872 52.1071 39.1795C52.149 40.1329 51.5657 40.9412 50.5509 41.3143C48.3673 41.9706 51.2645 42.8308 49.9948 43.6207C49.4795 43.8855 48.9426 44.1055 48.4205 44.3576C46.614 45.151 47.468 46.0664 46.3036 47.2133C43.7119 49.6936 46.1854 49.826 46.5834 51.5774C46.7069 52.586 46.0081 53.384 44.9654 53.4496C42.2323 53.6915 41.1218 50.3061 41.3319 47.964C41.1186 47.3273 42.2683 47.0279 42.693 46.7976C42.8477 46.7262 43.0353 46.7055 43.1306 46.5305C43.7248 46.375 43.7364 45.987 43.485 45.5298C41.9616 43.5597 41.4022 41.2947 44.038 40.0845C47.5257 38.8766 43.6623 37.2151 45.8239 35.3393C47.1089 34.1095 48.698 34.5851 48.6821 33.8056C48.8611 32.0415 50.364 31.7214 51.8398 31.8377C52.0426 31.9056 52.2623 31.8791 52.4707 31.9402C52.8705 32.03 53.2681 31.863 53.6633 31.8147Z" fill="#1A272D"/>
<path d="M80.1438 50.1343C79.7222 49.7589 79.7676 49.1326 79.4043 48.7063C79.247 48.524 79.5207 48.524 79.6244 48.5666C80.7669 49.0343 81.5438 48.3558 82.3218 47.675C82.493 47.5258 82.5151 47.3647 82.4382 47.1492C82.0539 46.067 81.425 45.2015 80.4094 44.6651C79.0747 43.9629 78.8941 42.9861 80.1473 42.1193C81.588 41.1235 81.6719 39.8317 81.4296 38.3339C81.404 38.1799 81.2794 37.9538 81.51 37.9135C81.7325 37.8745 81.7779 38.1302 81.786 38.3019C81.8093 38.7424 81.7942 39.1828 81.8047 39.6233C81.8082 39.7465 81.7325 39.9371 81.9118 39.9691C82.0574 39.9951 82.1203 39.8258 82.1832 39.7062C82.5302 39.049 82.4825 38.3729 82.1727 37.7371C81.4657 36.5791 81.7802 34.8847 80.5049 34.1328C80.4152 34.0831 80.2277 33.9445 80.4012 33.8865C80.8391 33.7397 80.8555 33.51 80.6283 33.1796C80.3768 32.8102 80.0809 32.5331 79.5883 32.7238C79.3391 32.8197 79.084 32.899 78.8301 32.9843C76.4856 33.7148 77.2298 31.0661 75.5061 30.5285C75.2336 30.4243 75.067 30.2443 74.9226 30.0075C74.0514 28.544 73.0754 28.2764 71.5299 28.8542C71.1712 28.9928 70.6005 29.0472 70.505 29.2947C70.3804 29.6179 71.0419 29.6026 71.2027 29.9376C71.2737 30.0845 71.41 30.1958 71.4903 30.339C71.6499 30.6256 71.9049 30.9678 71.601 31.2437C71.304 31.5148 71.1992 31.0317 70.9825 30.9311C69.1342 29.9732 68.4913 29.9649 67.4047 28.0171C67.676 28.0266 67.8694 27.8561 68.0697 27.7057C69.2635 26.7762 70.8125 26.3902 72.2811 26.6163C73.8709 26.7667 75.0135 27.7365 76.1129 28.8305C76.4751 28.9821 76.8851 28.7986 77.2636 28.8874C79.4811 28.9537 81.0499 30.0241 81.9665 32.0938C82.1401 32.4858 82.4126 32.8043 82.7608 32.989C84.4182 33.8889 83.6087 35.1949 84.3646 36.1812C86.4354 38.6133 84.0001 39.2065 83.8929 40.6854C83.8265 41.6339 83.5156 42.4911 82.6712 43.0346C82.6479 43.1175 82.5396 43.1459 82.5419 43.2466C83.9244 44.8462 84.919 46.9243 82.9554 48.5334C82.1506 49.3149 81.0604 49.5837 80.1438 50.1343Z" fill="#1A272D"/>
<path d="M59.2932 26.897C58.6782 26.8958 58.0633 26.8958 57.4495 26.8946C58.0644 26.7575 58.6782 26.7528 59.2932 26.897Z" fill="#354E52"/>
<path d="M57.1598 26.9314C57.0936 27.0115 57.0112 27.0231 56.9183 26.9883C56.9984 26.9697 57.0797 26.9511 57.1598 26.9314Z" fill="#354E52"/>
<path d="M59.6598 26.9795C59.5773 26.9586 59.4948 26.9377 59.4124 26.9168C59.4855 26.94 59.6923 26.8738 59.6598 26.9795Z" fill="#354E52"/>
<path d="M77.1698 46.3001C76.5553 46.508 75.744 46.7468 75.6352 47.5097C75.5917 47.6844 75.6428 47.8072 75.8364 47.8326C76.3106 47.6634 76.7848 47.4943 77.2601 47.3273C77.3536 47.2941 77.4461 47.22 77.5494 47.303C77.6712 47.4025 77.6146 47.5208 77.5809 47.6358C77.2329 48.8112 76.9545 50.002 76.8196 51.225C76.7957 51.4461 76.7282 51.5965 76.4542 51.5456C75.9484 51.4505 75.4329 51.4063 74.9315 51.2902C74.4519 51.1785 74.28 51.3046 74.4356 51.8032C74.6988 52.5496 74.8478 53.3336 75.161 54.0633C75.1958 54.1441 75.1795 54.2425 75.1686 54.332C74.888 54.6759 74.8206 55.0872 74.8173 55.5185C74.5324 55.8358 74.1561 55.7484 73.8156 55.7175C73.2175 55.6633 72.6388 55.7086 72.0722 55.911C72.0026 55.9364 71.9276 55.9431 71.8579 55.9652C71.7492 56.0006 71.5556 55.8999 71.5447 56.016C71.5893 56.4915 73.0945 56.329 73.51 56.5711C73.7689 56.6596 74.0788 56.6452 74.2431 56.9371C74.3214 57.5054 74.1517 58.0329 74.0005 58.5636C73.4317 59.3177 72.3278 58.8378 71.5436 59.2436C71.0085 59.4349 70.468 59.4283 69.9285 59.248C69.7034 59.1275 69.6708 59.237 69.8937 59.3531C71.1347 60.3748 72.703 59.9845 74.1234 59.7368C74.2964 59.7091 74.4802 59.6616 74.6085 59.8496C74.6727 61.5767 73.4948 61.8741 72.0624 61.5944C71.896 61.5977 71.6372 61.402 71.5904 61.5811C71.5306 61.81 71.8286 61.8852 72.0124 61.9548C72.4115 62.1716 73.2316 61.8056 73.4556 62.1373C73.3577 63.1247 72.8661 63.8976 72.2027 64.5787C70.7921 65.5153 69.1357 65.1084 67.625 64.697C64.5307 63.9451 62.4045 61.4562 60.1423 59.3664C59.7137 58.944 59.3614 58.4552 59.0405 57.9422C57.4831 55.0939 61.5202 55.0905 61.2603 51.4594C61.294 49.9291 60.9873 48.1964 62.0749 46.9624C62.51 46.4095 62.858 45.797 63.1397 45.1568C63.6846 44.1539 64.4372 43.3025 65.0767 42.3681C66.0534 41.4327 67.4771 41.1397 68.1797 39.8438C69.4326 39.1594 72.033 42.4743 74.5911 42.0464C75.0881 42.0099 75.5438 41.854 76.0093 41.7069C76.2127 41.6428 76.4226 41.5002 76.638 41.6837C77.0491 42.9785 77.3362 44.302 77.4798 45.6565C77.5907 45.9805 77.5407 46.2216 77.1698 46.3001Z" fill="#E57547"/>
<path d="M115.477 52.7322C112.352 52.7322 109.227 52.731 106.101 52.7334C105.242 52.7346 104.421 52.5641 103.655 52.1651C99.4417 49.6213 103.744 42.8362 107.493 42.2269C112.508 41.0202 120.273 41.6066 121.36 48.0145C121.436 48.4715 121.673 48.6299 122.123 48.6432C123.569 48.6614 125.08 48.8754 126.022 50.198C126.388 50.7748 126.813 51.3648 126.448 52.0853C126.104 52.7624 125.441 52.7322 124.809 52.731C121.699 52.731 118.581 52.7249 115.477 52.7322Z" fill="#FDF2C3"/>
<path d="M69.334 70.0707C75.9557 71.4845 79.3731 78.8124 79.9592 85.1391C80.0729 85.7674 80.022 86.4872 80.133 87.1589C80.3642 87.3736 80.3769 87.666 80.3733 87.95C80.4106 90.5046 81.3052 89.1454 81.3152 89.9606C80.8593 90.3381 80.649 90.8145 80.7264 91.4215C80.7491 92.1321 79.8527 91.9591 79.404 92.0238C78.6232 92.145 77.8715 92.3421 77.1388 92.64C76.307 93.0629 76.2451 92.4883 76.2743 91.7879C76.2442 91.5483 76.3625 91.1439 76.0477 91.1439C75.69 91.143 75.8884 91.5483 75.8556 91.7722C75.7865 92.2348 75.9949 92.702 75.8647 93.1711C75.5844 93.6282 75.3032 93.7577 74.8336 93.6476C73.2765 89.237 71.3735 84.7459 70.6982 80.0466C70.3505 76.9064 70.4752 73.6754 69.364 70.6749C69.293 70.4843 69.1802 70.2798 69.334 70.0707Z" fill="#F68A2F"/>
<path d="M98.4144 86.8477C100.101 86.9036 101.793 86.9348 103.48 87.0005C104.113 87.0393 104.79 86.9456 105.383 87.2029C105.548 87.4892 105.232 87.656 105.102 87.8573C104.754 88.2222 104.384 88.5903 104.025 88.9412C103.523 89.3954 103.02 89.8497 102.518 90.3039C102.407 90.5547 102.247 90.7657 102.027 90.9271C101.406 91.3803 100.914 92.0046 100.217 92.3587C99.6118 92.4943 99.038 92.2446 98.4493 92.179C97.5907 92.0003 96.6897 92.1251 95.8183 91.9766C95.3842 91.9583 94.5817 91.8173 94.4822 92.4168C94.4652 92.673 94.6092 92.8399 94.8316 92.941C95.7347 93.4642 97.814 93.0896 98.3275 93.9593C98.5308 94.6977 96.2429 94.477 95.7463 94.6902C94.8114 94.8861 93.8723 94.9549 92.9248 94.7946C92.6347 94.7795 92.2175 94.7526 92.1519 95.1336C91.9634 96.365 94.281 95.632 94.4218 96.5631C94.4282 96.7912 94.2863 96.9279 94.0957 97.0044C93.1376 97.2595 92.5309 97.1389 91.7654 97.9645C91.5632 98.3143 91.2022 98.5253 90.9174 98.7976C90.1847 99.4424 89.5844 100.28 88.7014 100.762C87.6035 101.521 87.3748 100.942 86.2494 101.181C85.4013 101.213 84.5776 100.969 83.7878 100.667C83.4426 100.488 82.9672 100.452 82.7989 100.039C82.8635 99.2831 83.9254 99.8622 84.3849 99.7857C85.1345 99.7728 85.3695 99.4434 85.1398 98.7093C85.053 98.4349 85.0212 98.1927 85.3844 98.1173C85.8153 98.1389 86.099 98.5694 86.4855 98.7352C86.6866 98.8482 86.8783 98.8848 87.0519 98.6997C87.6967 97.8741 85.2721 95.9452 84.5469 95.6901C84.044 95.4651 83.558 95.2036 83.0572 94.9743C82.8582 94.8828 82.6422 94.7859 82.6147 94.5115C82.7756 94.0099 84.1382 94.0766 84.5988 93.9614C84.8719 93.9238 85.1514 93.9141 85.4257 93.8732C86.0164 93.7957 86.5829 94.1767 87.1705 94.0002C87.4277 93.9324 87.5622 93.7268 87.5908 93.4728C87.5791 93.0164 86.7438 93.0551 86.5035 92.7451C86.2832 92.1897 88.0397 90.8733 88.3563 90.3125C89.3504 89.2749 90.3573 88.2513 91.3631 87.2244C91.4954 87.0888 91.6246 86.923 91.8522 86.9747C92.8496 86.5333 93.9242 86.7529 94.9734 86.7454C96.1116 86.8358 97.3006 86.7658 98.4144 86.8477Z" fill="#0B0D13"/>
<path d="M62.9391 45.5935C62.9643 46.1042 62.7189 46.4977 62.4022 46.8506C61.2181 48.048 61.4352 49.7764 61.4425 51.3342C61.7351 55.2473 57.6428 55.1119 59.1908 57.8436C59.8694 58.9984 60.893 59.8204 61.8316 60.7182C64.5438 63.3817 68.3446 66.1337 72.203 64.5802C70.6016 66.0303 68.6026 64.835 66.8354 64.61C66.3959 64.8318 65.8894 66.6316 66.1096 67.1307C66.2544 67.3418 66.4211 67.5326 66.4431 67.8045C66.4987 68.2502 66.7672 68.6373 66.7808 69.0957C66.5417 69.4114 66.8186 69.7462 66.784 70.1002C66.7903 70.2804 66.8343 70.5064 66.6057 70.5544C66.3645 70.6066 66.2155 70.4264 66.1568 70.2057C65.882 69.3698 65.7216 68.5104 65.5632 67.6456C65.4478 67.2437 65.2706 67.1712 64.9098 67.377C62.8951 68.9955 60.5668 69.8112 58.0613 70.1449C54.9852 70.8647 56.5143 70.7058 54.3402 68.069C53.7497 67.3322 53.0418 66.7553 52.2499 66.2723C51.6542 65.9908 51.8525 65.5686 52.4157 65.4545C53.5704 65.0643 54.5017 64.4074 55.2243 63.4105C57.0177 61.7248 57.4855 59.1668 57.4655 56.7838C57.4634 56.402 57.4141 56.1398 56.9894 56.1163C57.0492 55.967 57.1834 55.9361 57.3135 55.9212C58.6412 55.7698 59.5033 54.9807 60.0864 53.8036C60.5185 53.1127 60.8972 52.4132 60.5657 51.5815C60.5983 50.5569 60.2857 49.594 60.0665 48.6142C59.5841 47.5927 62.2365 46.1309 62.9391 45.5935Z" fill="#A34037"/>
<path d="M98.0572 64.3985C94.9131 64.0042 91.7545 64.3054 88.6052 64.2019C87.2265 64.3399 87.1236 62.3892 88.5404 62.34C89.669 62.3871 90.3038 61.7365 90.9726 60.9468C93.4037 58.0766 97.1714 58.6634 99.2455 60.7062C100.666 62.2166 100.684 64.7562 98.0572 64.3985Z" fill="#FDF2C3"/>
<path d="M91.8557 86.9767C86.8056 91.8394 90.2142 90.4134 84.167 89.7901C83.5354 89.7554 82.9038 89.8674 82.2809 89.9823C81.9271 90.0884 81.5791 89.9734 81.2633 89.803C80.6395 89.9526 80.3549 89.6513 80.3013 89.0409C80.2467 88.4126 80.1911 87.7854 80.1346 87.1561C82.5236 86.5239 84.8776 86.4902 87.1682 87.5792C87.4187 87.6982 87.4694 87.6228 87.4519 87.3543C87.3944 86.4753 87.3388 85.5963 87.3281 84.7164C87.3193 84.0395 87.5425 83.44 88.1888 83.1417C90.2552 82.4262 91.4395 85.3575 91.8557 86.9767Z" fill="#659271"/>
<path d="M66.6919 69.1429C66.4522 68.5155 66.1951 67.8919 66.1611 67.2047C67.6406 67.6304 68.6039 68.7433 69.3441 70.0644C70.3277 72.3267 70.571 74.7532 70.6574 77.1732C70.7657 82.9833 73.3344 88.1389 74.8965 93.5941C74.9727 94.074 74.7128 94.2878 74.16 94.2038C72.3793 88.4824 69.7115 82.833 68.9327 76.7885C68.7968 75.5543 68.7252 74.3144 68.3964 73.1091C68.0704 71.9859 67.5616 70.9374 66.9454 69.9524C66.8003 69.7143 66.579 69.4426 66.6919 69.1429Z" fill="#CE4520"/>
<path d="M76.7523 52.5163C76.8147 54.4251 76.4338 56.2539 75.818 58.0428C75.7535 58.2313 75.6074 58.4229 75.7304 58.6473C75.5772 58.9045 75.421 59.1575 75.1439 59.2969C74.7579 59.2241 74.4565 59.0541 74.385 58.6135C74.4848 58.008 74.2217 57.423 74.2852 56.8195C74.3144 55.7908 75.813 56.0685 75.3021 54.8964C75.3444 54.548 75.1781 54.2478 75.0713 53.9405C74.9614 53.6259 74.903 53.2971 74.7811 52.9876C74.6611 52.7489 74.9544 52.461 75.1247 52.7192C75.6215 53.294 76.1798 52.3913 76.7523 52.5163Z" fill="#E57547"/>
<path d="M74.493 58.6594C74.5901 58.9991 75.0428 58.9546 75.1418 59.2934C74.9621 59.478 74.7834 59.6637 74.6027 59.8483C72.8757 60.1406 70.7611 60.7144 69.4139 59.1847C69.3381 59.1038 69.241 58.929 69.273 58.8826C69.3536 58.7641 69.4857 58.8598 69.5897 58.9102C70.3114 59.2706 71.0408 59.2785 71.7771 58.9596C72.4639 58.69 73.2419 58.9862 73.8888 58.5547C74.1171 58.4263 74.323 58.4372 74.493 58.6594Z" fill="#A34037"/>
<path d="M73.4546 62.1363C72.7189 62.1577 71.8214 62.4281 71.3172 61.7025C71.2234 61.5887 71.1947 61.4573 71.2818 61.327C71.3621 61.2054 71.4808 61.2103 71.5975 61.2609C73.0279 61.9067 74.466 60.8338 73.4546 62.1363Z" fill="#A34037"/>
<path d="M51.9308 65.8485C53.9957 66.8683 55.0865 68.7881 56.3174 70.6206C57.2139 72.6677 57.5857 74.8809 58.231 77.0077C59.8224 82.3361 61.9508 87.5412 62.754 93.0813C62.8203 93.7972 63.6972 99.6802 62.3244 98.8969C61.2765 98.2474 60.8506 98.0613 60.8151 97.0786C61.0159 97.6834 60.6657 97.9901 60.0624 97.8496C58.3319 97.5685 56.5957 97.5543 54.8511 97.6872C52.3697 97.9493 49.2028 98.1886 48.211 95.2509C47.5516 93.7612 47.7608 92.1423 47.8589 90.5614C47.9 88.728 48.1643 86.8784 48.0952 85.0545C48.0942 84.7212 47.9607 83.5856 47.574 83.6227C46.9511 84.0044 47.786 88.4346 47.8813 89.3547C47.7356 93.5846 47.4022 97.9018 46.1909 101.964C42.3357 103.751 43.2136 101.039 37.2112 104.927C37.1589 104.956 37.1123 104.994 37.0674 105.033C37.1216 105.056 37.1664 105.019 37.2112 105.002C40.2549 104.323 43.2462 103.525 46.0452 102.08C46.1825 102.037 46.2974 101.927 46.4524 101.939C47.1351 101.968 47.7589 101.706 48.3875 101.502C51.9887 100.267 55.7365 99.759 59.4778 99.2035C60.4929 99.025 61.354 99.2757 61.9769 100.169C62.9379 101.755 63.8196 103.64 63.4927 105.542C62.966 106.06 62.2786 106.286 61.6407 106.592C57.1831 108.659 52.5537 110.383 47.8374 111.689C47.5992 111.618 47.3723 111.588 47.2294 111.864C46.6233 112.2 45.9527 112.34 45.2981 112.526C44.5481 112.784 44.4631 111.598 43.7786 112.246C42.4459 113.448 40.9553 114.532 39.1706 114.852C35.9038 115.497 33.0292 113.227 31.1977 110.663C31.1025 110.39 31.0352 110.105 31.038 109.822C31.0502 108.825 30.8765 107.833 30.9362 106.836C30.9792 106.124 30.7831 105.423 30.8699 104.712C30.7989 102.207 31.0166 99.702 31.2211 97.2125C31.3472 95.3078 31.6815 93.4279 31.9243 91.5394C31.9346 91.4112 32.0018 91.3163 32.0728 91.2213C32.8087 87.6608 33.2888 84.0347 34.5047 80.5891C36.2661 74.6198 41.7473 66.0327 48.3949 71.5777C51.4657 74.3425 52.9936 78.3189 54.7624 81.9915C55.8112 83.9825 57.2111 86.8917 57.849 88.5372C55.9961 84.6605 54.9427 80.4609 53.2074 76.5292C51.4124 72.6173 47.3191 70.7801 44.3277 67.9811C44.0616 67.7541 43.6581 67.6117 43.66 67.1465C45.0412 66.0669 46.5775 65.3282 48.2707 64.938C48.7526 64.6256 51.7571 65.3197 51.9308 65.8485Z" fill="#F68A2F"/>
<path d="M56.2824 85.2056C52.72 79.523 49.6144 66.493 40.7227 70.9664C40.5816 71.0461 40.433 71.1137 40.2872 71.1878C40.2217 70.6344 40.1553 70.0809 40.0889 69.5275C40.7827 67.9357 42.0089 67.1177 43.6549 67.1477C45.1838 68.5407 46.8289 69.7826 48.4472 71.0602C49.9124 72.2177 51.4615 73.2918 52.5106 74.9033C54.3817 77.9687 55.2149 81.5398 56.4605 84.8932C56.5232 85.0855 56.597 85.5245 56.2824 85.2056Z" fill="#CE4520"/>
<path d="M51.9288 65.8521C50.7532 65.3638 49.5125 65.1451 48.2689 64.9408C48.7888 63.736 49.9521 63.8031 50.9381 63.3801C51.2033 63.0377 51.5439 63.3302 51.8411 63.265C52.8318 63.241 53.8319 63.2976 54.8198 63.194C55.0528 63.1432 55.2679 63.1624 55.3142 63.4751C54.6122 64.8554 53.2394 65.3274 51.9288 65.8521Z" fill="#CE4520"/>
<path d="M100.23 92.2625C100.992 91.6103 101.755 90.958 102.516 90.3045C102.498 90.4291 102.507 90.5378 102.599 90.6404C103.957 92.1599 104.075 93.9384 103.631 95.8377C103.536 96.2469 103.212 96.7636 103.445 97.0482C103.712 97.3712 104.182 96.8979 104.583 96.8979C106.408 96.6097 108.215 97.1496 109.88 97.8981C111.15 98.396 109.028 96.7905 108.99 96.3971C108.1 94.3109 111.239 94.5772 112.41 94.8948C112.188 94.0349 111.832 93.2153 111.847 92.3041C111.832 90.0871 113.519 88.9499 115.456 89.9234C116.764 90.7992 116.644 87.9728 120.122 86.2102C121.269 85.3784 122.445 86.5828 121.766 87.8396C121.002 89.4715 121.158 91.3819 120.346 92.9978C120.291 93.1114 120.132 93.2433 120.245 93.3569C120.357 93.4705 120.482 93.3069 120.589 93.2446C121.621 92.6082 125.776 90.4548 125.578 92.9807C125.188 95.5556 122.688 96.8088 120.621 97.7736C121.623 97.4368 123.84 97.5619 125.25 97.6976C126.363 98.204 128.806 98.9477 127.391 100.52C126.778 101.261 126.148 101.988 125.525 102.721C125.221 102.583 124.914 102.451 124.61 102.311C124.704 102.807 125.104 103.201 125.074 103.738C124.139 104.751 123.071 105.516 121.669 105.66C120.125 104.954 118.36 104.64 117.095 103.412C116.605 102.942 116.041 102.718 115.347 102.896C113.262 103.519 114.587 99.506 109.318 98.6312C106.291 98.0697 103.08 98.5749 100.535 100.417C100.235 100.73 99.7291 100.637 99.5825 100.208C99.5309 99.9914 99.6378 99.827 99.7604 99.6717C100.722 98.4576 101.488 97.1019 102.384 95.8389C102.896 95.1195 102.742 94.35 102.055 93.7478C101.603 93.3521 101.099 93.0369 100.593 92.7242C100.421 92.6192 100.207 92.5337 100.23 92.2625Z" fill="#659271"/>
<path d="M93.9122 130.166C87.2333 136.16 79.0092 144.621 69.3533 142.827C68.6858 142.653 68.1555 142.8 67.5809 143.075C60.6789 146.331 52.6097 146.461 45.4984 143.839C45.5103 143.598 45.6979 143.516 45.8638 143.424C51.1533 141.552 50.7198 135.922 51.8415 131.289C51.9195 130.823 52.2019 130.47 52.6907 130.631C61.3701 130.959 69.9171 121.335 77.4263 117.471C78.3022 117.101 76.8379 115.369 78.3604 112.628C78.6043 112.26 79.2234 110.646 79.6322 110.9C80.2207 110.995 79.255 113.408 79.2106 113.883C79.0121 114.645 78.8275 115.412 78.6468 116.178C78.5579 116.553 78.6241 116.876 78.9173 117.127C80.4498 118.439 81.6811 120.041 82.9707 121.586C85.8302 124.998 89.692 127.243 93.3859 129.563C93.613 129.705 93.923 129.795 93.9122 130.166Z" fill="#1A272D"/>
<path d="M93.9121 130.17C90.2324 127.752 86.3123 125.609 83.3131 122.275C81.9554 120.764 80.7651 119.056 79.2622 117.692C78.3544 117.146 78.329 116.394 78.6094 115.461C78.9973 114.17 79.2943 112.851 79.6268 111.543C79.8219 110.998 79.4971 110.774 79.2733 111.362C78.3788 112.827 77.6174 114.369 77.8025 116.178C78.2159 117.171 77.6906 117.554 76.8892 118.002C74.2337 119.485 71.8231 121.368 69.3326 123.121C64.1734 126.448 58.7026 131.501 52.2078 130.73C51.9939 130.574 52.0548 130.357 52.0892 130.15C52.4261 128.46 52.6367 126.752 53.1643 125.119C58.574 119.397 65.0811 114.359 71.454 109.666C72.3074 109.054 73.2639 108.593 73.9544 107.754C75.0727 106.722 76.3794 105.91 77.5254 104.902C78.2336 104.67 78.8122 104.141 79.4739 103.799C81.2428 102.856 83.3164 101.789 85.3502 102.359C85.5885 102.586 85.6151 102.894 85.6207 103.197C85.6484 104.864 85.9177 106.487 86.381 108.083C87.0992 110.56 88.4602 112.568 90.5428 114.031C97.9497 119.225 105.495 124.21 113.225 128.884C113.388 128.983 113.579 129.057 113.634 129.276C112.986 130.249 112.346 131.227 111.69 132.193C111.492 132.484 111.331 132.251 111.198 132.102C109.004 129.375 105.359 131.638 103.743 133.885C103.536 134.181 103.31 134.461 103.227 134.826C103.162 134.899 103.072 134.939 102.989 134.908C102.272 134.634 101.506 134.464 100.916 133.912C98.6447 132.542 96.2485 131.414 93.9121 130.17Z" fill="#354E52"/>
<path d="M52.9668 126.231C52.7119 127.729 52.4578 129.228 52.2029 130.726C51.2251 133.819 51.3891 137.212 49.9433 140.155C49.2631 141.516 48.2547 142.516 46.8789 143.127C45.2956 143.958 43.6319 144.71 41.8315 144.846C38.7863 145.051 36.7897 144.15 35.8682 140.744C35.5015 140.496 35.6173 140.076 35.5787 139.743C34.8156 132.702 35.9405 125.591 37.8439 118.824C37.9588 117.969 38.4309 117.922 39.157 117.919C44.0178 117.531 48.5892 115.726 53.2402 114.382C47.5479 116.01 41.7631 118.448 35.7548 117.967C34.2607 117.624 33.0755 116.799 32.2649 115.449C31.6626 114.445 31.3884 113.334 31.2895 112.172C31.2694 111.716 31.0105 111.096 31.3925 110.743C34.0822 114.326 38.5627 116.383 42.4651 113.088C42.9138 112.742 43.3335 112.357 43.7742 112C44.0966 111.739 44.4054 111.657 44.6434 112.122C44.7978 112.423 45.0551 112.43 45.3342 112.339C49.3008 111.045 53.3198 109.859 57.2205 108.297C59.3241 107.48 61.3657 106.518 63.3969 105.529C63.7684 105.572 63.7668 105.874 63.807 106.147C64.0418 107.64 63.6751 109.221 62.3033 109.973C60.281 111.276 58.3793 112.83 56.1342 113.723C55.9533 113.795 55.827 113.904 55.7715 114.09C55.2127 115.971 54.2759 117.692 53.5916 119.519C52.6717 121.924 52.4095 123.709 52.9668 126.231Z" fill="#CE4520"/>
<path d="M38.2602 118.135C36.0934 125.43 34.9665 133.134 35.874 140.746C34.4116 141.264 32.1322 141.76 31.4654 139.836C31.4413 139.772 31.3882 139.691 31.3316 139.673C30.5869 139.426 30.318 138.779 30.0037 138.127C28.4725 134.842 26.8558 137.307 26.3022 135.792C26.184 135.588 26.0594 135.241 25.8265 135.345C25.5611 135.462 25.7345 135.786 25.7911 136.032C25.8534 136.309 26.2074 136.592 25.9348 136.856C25.6637 137.117 25.2631 137.128 24.8822 137.087C24.2041 137.011 23.8042 136.487 23.3363 136.085C22.8719 135.685 22.4458 135.241 21.9977 134.823C21.8497 134.686 21.6926 134.475 21.4682 134.671C21.2367 134.874 21.3882 135.08 21.5142 135.274C21.6798 135.634 22.6694 136.763 22.4514 137.019C22.324 137.182 22.1725 137.038 22.0578 136.967C20.1353 135.748 19.2625 138.483 17.7873 136.562C17.4609 133.731 14.5707 134.879 15.0365 131.094C15.4018 128.308 14.7024 123.638 18.5886 123.523C19.5371 123.576 19.3856 122.254 21.1886 122.05C21.374 122.023 21.5659 121.962 21.7294 121.87C22.1329 121.603 22.1619 121.039 21.58 121.056C19.2073 120.546 17.2302 121.733 15.4074 123.089C15.1929 123.219 14.9487 123.364 14.7229 123.115C14.5084 122.876 14.6804 122.655 14.8043 122.456C15.6212 121.132 16.8104 120.299 18.2078 119.734C19.0218 119.405 19.8896 119.291 20.7207 119.036C21.0697 118.728 21.4675 118.867 21.8526 118.905C22.3375 119.025 22.6907 118.836 23.0297 118.475C23.5132 117.96 24.1149 117.647 24.8263 117.57C25.5285 117.493 26.0792 117.044 26.6696 116.709C26.9336 116.56 26.945 115.99 26.6562 115.726C25.6248 114.779 25.5384 113.625 25.8357 112.346C26.4537 109.787 17.5926 114.251 16.6313 114.302C14.071 112.872 13.2449 115.606 14.5757 110.663C14.7838 110.338 14.5155 110.151 14.2409 110.387C13.5295 110.818 13.0446 111.465 12.6418 112.184C12.4839 112.465 12.365 112.526 12.2241 112.181C12.0125 111.666 11.6529 111.221 11.5453 110.657C12.5922 108.677 14.0809 107.25 16.2661 106.703C17.6308 106.355 19.0445 106.716 20.4156 106.438C21.6834 106.144 18.7188 105.033 18.3741 105.049C17.2748 104.814 16.1995 104.892 15.142 105.257C13.1932 105.918 12.2128 107.831 11.1928 109.504C10.904 110.168 10.5415 109.78 10.1274 109.487C10.5083 106.313 12.571 103.972 15.3926 102.794C15.6495 102.483 16.0112 102.455 16.3645 102.44C19.1549 102.088 21.648 103.971 23.1097 106.308C23.2796 106.6 23.5118 106.781 23.8254 106.875C28.8343 108.663 25.6064 108.586 29.3163 105.136C29.758 104.914 30.5657 104.289 30.9911 104.718C31.2361 107.85 31.1122 111.057 31.8738 114.115C32.632 116.808 35.3757 118.227 38.1385 117.867C38.2503 117.922 38.3331 117.992 38.2602 118.135Z" fill="#1A272D"/>
<path d="M145.387 129.541C144.174 136.233 141.732 143.418 135.989 147.394C135.595 147.655 135.331 148.042 135.052 148.415C134.927 148.522 134.746 148.42 134.606 148.489C129.752 148.398 124.881 148.538 120.033 148.434C119.539 148.529 119.301 148.247 119.091 147.832C118.051 145.774 118.6 143.562 119.07 141.448C119.333 141.245 119.582 141.399 119.824 141.491C122.185 142.584 124.912 142.335 126.184 139.798C128.006 136.47 127.397 133.623 131.93 132.924C134.707 132.333 137.302 131.274 139.732 129.775C141.492 128.665 143.556 128.355 145.387 129.541Z" fill="#FDF2C3"/>
<path d="M113.633 129.273C106.194 125.012 99.1062 120.116 92.004 115.291C90.3188 114.129 88.6473 112.964 87.5337 111.141C86.3169 109.147 85.7681 106.951 85.5345 104.648C85.4608 103.926 85.4154 103.201 85.3564 102.477C85.4619 102.198 85.8418 102.328 86.0516 102.387C90.2485 103.699 93.7651 106.723 96.8824 109.783C97.1183 110.111 97.3712 110.117 97.6876 109.944C98.4077 109.55 99.1572 109.234 99.9488 109.024C100.664 108.902 101.649 108.511 102.337 108.734C108.277 109.018 111.31 115.14 108.893 120.465C108.696 120.955 108.865 121.19 109.192 121.455C111.311 123.258 113.598 124.864 115.637 126.751C116.134 127.171 116.596 127.639 117.091 128.065C117.458 128.38 117.806 128.758 117.733 129.281C117.808 129.371 117.816 129.478 117.778 129.578C117.534 130.221 117.275 130.857 116.912 131.441C116.596 131.843 116.089 131.359 115.784 131.182C115.423 130.907 114.015 130.036 113.971 129.629C113.921 129.29 114.22 129.149 114.087 128.873C113.936 129.007 113.785 129.14 113.633 129.273Z" fill="#487368"/>
<path d="M127.75 136.366C124.951 146.366 120.053 141.227 113.491 139.004C113.222 138.893 112.987 138.689 113.153 138.376C113.935 136.901 114.671 135.397 115.588 134C115.664 133.971 115.746 133.979 115.797 134.032C116.516 134.79 117.507 134.975 118.417 135.313C119.848 135.845 121.242 136.489 122.727 136.867C124.268 137.26 125.748 137.148 127.174 136.416C127.356 136.323 127.544 136.194 127.75 136.366Z" fill="#A34037"/>
<path d="M127.75 136.365C125.475 137.751 122.806 137.339 120.466 136.324C119.248 135.858 118.03 135.391 116.81 134.931C116.31 134.743 115.885 134.461 115.588 134C115.787 133.114 115.996 132.202 116.68 131.563C117.03 130.803 117.382 130.042 117.734 129.281C120.83 130.971 124.699 134.909 128.405 134.249C129.369 134.065 127.821 135.938 127.75 136.365Z" fill="#E57547"/>
<path d="M100.911 133.911C101.682 134.216 102.452 134.52 103.222 134.825C103.965 135.466 104.838 135.882 105.697 136.318C106.579 136.82 107.582 137.136 108.396 137.746C107.248 138.213 106.114 138.716 104.996 139.257C104.864 139.316 104.732 139.439 104.584 139.325C104.427 139.205 104.477 139.03 104.505 138.864C104.64 138.162 104.623 136.478 103.584 136.705C103.426 136.816 103.481 137.013 103.51 137.17C103.753 138.483 103.311 139.588 102.534 140.591C102.439 140.713 102.323 140.933 102.165 140.862C101.792 140.711 102.568 139.025 102.515 138.558C102.633 137.701 101.879 137.419 101.221 137.23C100.359 136.935 100.185 136.663 100.39 135.745C100.529 135.126 100.735 134.521 100.911 133.911Z" fill="#1A272D"/>
<path d="M110.057 142.76C108.806 142.212 107.625 141.352 106.406 140.701C106.037 140.489 105.952 140.28 106.365 140.017C107.282 139.435 108.196 138.849 109.105 138.254C109.387 138.069 109.637 138.019 109.967 138.173C110.665 138.5 111.383 138.783 112.1 139.064C112.498 139.22 112.546 139.434 112.313 139.786C111.737 140.649 111.177 141.523 110.611 142.393C110.485 142.585 110.354 142.771 110.057 142.76Z" fill="#1A272D"/>
<path d="M116.679 131.563C115.453 134.761 115.738 131.976 112.462 133.773C112.352 133.828 112.213 133.816 112.086 133.835C112.182 132.436 113.206 130.805 113.971 129.629C114.874 130.273 115.776 130.918 116.679 131.563Z" fill="#354E52"/>
<path d="M100.033 100.528C103.748 97.5912 111.752 96.7676 114.053 101.875C114.406 102.782 114.581 102.896 115.476 102.67C116.031 102.529 116.574 102.659 116.932 103.025C118.264 104.416 120.117 104.654 121.704 105.54C121.93 105.708 122.245 105.715 122.423 105.968C122.851 106.689 123.241 107.432 123.61 108.185C124.062 108.955 123.237 108.534 123.466 109.252C123.642 110.132 123.977 110.977 124.034 111.884C124.174 112.734 122.789 113.273 123.672 113.642C124.11 113.914 124.518 114.234 124.98 114.468C125.978 114.908 125.166 116.589 127.158 116.908C129.258 117.182 128.211 118.77 129.251 119.897C130.008 120.632 130.638 121.57 130.783 122.652C130.893 123.44 130.35 123.672 129.903 122.979C128.486 121.245 126.839 119.031 124.367 119.23C124.057 119.192 123.795 119.513 124.125 119.712C125.762 120.911 126.317 122.866 126.893 124.731C126.96 124.954 127.097 125.247 126.835 125.386C125.978 125.702 125.846 124.324 125.526 123.791C124.133 120.06 120.996 119.764 117.658 120.933C117.526 120.97 117.364 121.121 117.257 120.966C117.211 120.9 117.314 120.719 117.362 120.595C117.744 119.611 118.039 118.588 118.792 117.795C119.827 116.694 121.179 116.262 122.582 115.96C123.018 115.901 123.06 115.54 122.629 115.385C120.636 114.295 118.957 116.134 119.263 114.757C119.513 112.973 119.404 111.265 118.074 109.883C117.724 109.518 117.299 109.252 116.797 109.203C115.4 109.107 116.596 107.216 115.143 105.451C113.57 103.484 111.133 104.588 110.492 106.785C110.348 107.096 110.232 107.133 110.007 106.825C107.696 103.225 103.425 101.752 99.3814 102.52C99.351 102.486 99.3085 102.448 99.3146 102.406C99.4105 101.722 99.5769 101.067 100.033 100.528Z" fill="#487368"/>
<path d="M100.04 100.528C99.5852 102.061 98.9826 103.532 98.3431 104.992C98.3902 105.203 98.2969 105.374 98.2006 105.547C97.6256 106.587 97.0127 107.606 96.4347 108.645C96.3414 108.813 96.2492 108.998 96.0216 109.017C92.8742 106.561 89.9644 103.726 86.0637 102.529C85.873 102.171 87.1562 101.246 87.4452 101.06C87.5682 101.005 87.7302 101.086 87.8429 100.997C89.082 100.553 89.903 99.5164 90.8838 98.7047C91.2773 98.292 92.002 97.3407 92.4283 98.2181C92.9982 100.144 94.2926 101.235 96.1703 101.61C96.984 101.819 97.7148 101.764 98.177 100.937C99.5863 100.246 99.2234 99.7018 100.04 100.528Z" fill="#F68A2F"/>
<path d="M96.0232 109.017C96.7963 107.675 97.5704 106.334 98.3435 104.992C98.5544 105.14 98.7654 105.153 99.0116 105.059C100.58 104.461 102.298 105.654 102.342 107.368C102.353 107.822 102.344 108.277 102.344 108.733C101.448 108.965 100.519 109.02 99.633 109.306C98.9534 109.527 98.3113 109.823 97.6857 110.164C97.32 110.364 97.0218 110.346 96.7859 109.942C96.5833 109.594 96.1666 109.423 96.0232 109.017Z" fill="#2D3E47"/>
<path d="M123.681 108.729C123.285 107.795 122.679 106.969 122.34 106.006C123.41 105.223 124.951 105.301 126.144 105.891C126.45 106.707 126.755 107.522 127.06 108.339C127.081 108.629 126.948 108.843 126.711 108.971C125.92 109.397 125.08 109.534 124.198 109.372C124.025 109.157 123.853 108.943 123.681 108.729Z" fill="#659271"/>
<path d="M124.189 109.371C125.161 109.13 126.464 109.347 127.051 108.338C127.64 109.749 128.158 111.253 128.46 112.737C128.44 112.795 128.41 112.851 128.355 112.874C127.746 113.128 127.126 113.352 126.545 113.673C126.48 113.708 126.401 113.681 126.329 113.668C125.499 112.305 125.149 110.677 124.189 109.371Z" fill="#FBC04B"/>
<path d="M126.339 113.67C126.971 113.169 127.682 112.86 128.471 112.739C129.173 113.855 128.633 115.907 127.792 116.672C127.65 116.802 127.508 116.782 127.437 116.598C127.065 115.624 126.605 114.685 126.339 113.67Z" fill="#659271"/>
<path d="M117.717 128.819C117.148 128.325 116.56 127.852 116.015 127.332C115.224 126.576 114.333 125.931 113.636 125.072C116.052 124.612 117.917 126.325 117.717 128.819Z" fill="#2D3E47"/>
<path d="M126.137 105.894C125.287 105.823 124.455 105.511 123.587 105.713C122.969 105.8 122.058 106.342 121.699 105.543C125.281 104.88 124.509 101.732 126.137 105.894Z" fill="#FBC04B"/>
<path d="M121.848 123.744C121.749 123.953 121.614 123.844 121.502 123.816C119.767 123.323 117.803 123.14 116.253 124.25C116.149 124.317 116.057 124.487 115.917 124.355C116.099 121.996 120.569 122.638 121.848 123.744Z" fill="#487368"/>
<path d="M124.98 114.467C124.359 114.619 124.024 113.901 123.525 113.746C122.748 113.637 123.085 113.346 123.35 112.991C123.72 112.622 124.115 111.146 124.335 112.447C124.562 113.116 124.767 113.793 124.98 114.467Z" fill="#FBC04B"/>
<path d="M16.9824 114.298C16.9752 114.073 17.0741 113.921 17.2835 113.85C19.4132 113.118 21.4599 112.143 23.6478 111.587C24.4332 111.405 26.4308 110.931 26.0243 112.376C25.0747 115.567 28.355 115.639 26.5054 117.042C25.8411 117.414 25.1807 117.733 24.413 117.849C23.803 117.942 23.3193 118.368 22.9142 118.849C22.405 119.498 21.6752 118.964 21.3584 118.407C20.5953 117.326 19.7896 116.29 18.6612 115.57C18.4276 115.421 18.1278 115.373 17.9622 115.115C17.8555 114.565 17.2108 114.695 16.9824 114.298Z" fill="#2D3E47"/>
<path d="M17.9628 115.114C19.7338 115.581 21.0291 117.544 21.9636 119.051C19.9844 119.117 21.218 118.854 19.7956 118.595C18.7219 118.301 17.6206 118.411 16.5295 118.412C15.0401 118.509 17.6109 115.486 17.9628 115.114Z" fill="#487368"/>
<path d="M30.9858 104.714C30.3624 104.663 29.8954 105.09 29.3487 105.276C29.0856 105.41 28.927 105.234 28.783 105.061C27.6122 103.654 26.0695 102.901 24.3695 102.451C22.951 102.074 21.5156 102.034 20.0795 102.37C19.6366 102.474 19.2339 102.739 18.7596 102.718C17.6334 102.642 16.5065 102.508 15.3876 102.79C13.4538 98.2791 20.1095 99.2361 22.5139 100.109C23.5707 100.6 24.6414 101.538 25.8597 101C26.3179 100.819 26.3618 100.748 26.2587 100.258C26.1002 99.4947 26.3106 98.9679 26.8865 98.6774C27.1343 98.5533 27.4054 98.5176 27.5925 98.7264C28.3672 99.5957 29.4211 99.6373 30.4413 99.7949C30.7 99.8342 30.9814 99.8216 31.1678 100.068C31.1071 101.617 31.0465 103.166 30.9858 104.714Z" fill="#354E52"/>
<path d="M22.4932 100.243C21.5463 100.003 20.5995 99.7626 19.6526 99.522C20.444 95.9891 22.7098 93.2451 26.1941 92.3218C27.9254 92.3076 29.6543 92.5798 31.2162 91.5542C31.4808 91.3969 31.7361 91.1956 32.071 91.2215C32.1615 92.159 31.8946 93.0493 31.7353 93.9537C29.1755 94.3226 26.6698 94.8267 24.6098 96.6144C23.6443 97.4048 23.0038 98.4272 22.7562 99.6871C22.7152 99.8924 22.6889 100.112 22.4932 100.243Z" fill="#1A272D"/>
<path d="M10.6453 109.858C11.0636 109.595 11.1755 109.108 11.4271 108.725C12.0714 107.746 12.6434 106.717 13.5691 105.958C15.7034 104.223 18.9184 104.307 20.9527 106.099C21.166 106.325 21.1466 106.428 20.854 106.523C18.8017 107.046 16.6257 106.306 14.7019 107.518C11.7121 109.067 12.2139 112.043 10.6453 109.858Z" fill="#2D3E47"/>
<path d="M60.3719 53.5482C59.7537 55.2648 57.8346 56.8008 56.0735 55.7936C56.0666 55.6682 56.1542 55.6107 56.2396 55.5509C55.4138 55.7737 54.4635 55.6435 53.8061 55.0561C51.5202 53.3618 50.4626 48.8511 51.9458 46.3899C52.5489 45.3874 52.6285 44.4752 52.6008 43.3859C52.2652 37.3169 55.1912 30.4951 61.3361 28.8079C61.7974 28.6472 62.283 28.5675 62.7662 28.4514C62.8677 28.3799 62.983 28.4233 63.0926 28.4104C63.2841 28.4291 63.4674 28.3787 63.66 28.3658C63.69 28.3998 63.7189 28.3975 63.7454 28.3611C64.0995 28.2709 64.4662 28.3729 64.8191 28.2837C65.1478 28.2908 65.4754 28.3037 65.7983 28.3576C65.8975 28.4702 66.0509 28.3588 66.1558 28.4479C66.1824 28.4502 66.2089 28.4573 66.2331 28.469C66.4799 28.5487 66.6771 28.7469 66.9009 28.8864C66.7602 29.128 66.5226 29.0811 66.3069 29.101C58.6258 29.2534 54.1348 35.2509 54.0598 42.8172C54.0183 44.4377 54.8417 45.8846 56.2015 46.5412C55.7067 46.2844 55.2431 45.9233 54.9721 45.3991C54.5603 44.5573 55.0632 44.7367 55.2535 44.2161C59.3881 43.3859 61.651 50.3554 60.3719 53.5482Z" fill="#FDF2C3"/>
<path d="M55.2516 44.2107C55.3481 44.3147 55.5769 44.4433 55.6505 44.5309C55.5884 44.753 54.6928 44.1441 55.0297 45.1469C55.2619 45.799 55.9068 46.0772 56.277 46.6055C53.5432 45.8902 53.6513 42.4622 54.1433 40.1843C54.7124 34.5567 58.8786 29.7157 64.4703 29.0963C65.2716 28.9747 66.0878 28.949 66.8983 28.88C67.1673 29.4504 66.934 29.815 66.2338 29.9202C59.3384 30.0406 54.21 36.5039 54.8802 43.4486C54.8906 43.7221 54.7986 44.1289 55.2516 44.2107Z" fill="#FBC04B"/>
<path d="M76.6401 41.6854C74.1387 42.9213 72.006 41.9665 69.9489 40.5143C69.4201 40.1407 68.8288 39.9064 68.1815 39.8451C68.3812 39.1647 68.5765 38.4821 68.7838 37.804C68.8485 37.5887 68.9725 37.6289 69.0482 37.7962C70.2857 40.4474 73.046 40.7396 75.5331 40.6694C76.3022 40.6482 76.5633 40.8846 76.6401 41.6854Z" fill="#A34037"/>
<path d="M46.416 48.7992C46.8548 48.3069 47.179 48.3919 47.4846 48.9681C47.7612 49.4919 48.1721 49.9044 48.6863 50.2088C49.0456 50.4197 49.0848 50.6779 48.7647 51.0065C47.9956 51.7979 47.9677 51.8126 47.212 51.0212C46.7691 50.4229 45.4084 49.5339 46.0123 48.7078C46.1001 48.5903 46.1445 48.3772 46.3045 48.4087C46.4955 48.4454 46.385 48.67 46.416 48.7992Z" fill="#1A272D"/>
<path d="M76.807 34.1951C75.7799 33.886 75.0501 32.8303 74.7336 31.814C74.4352 31.1866 75.123 30.7038 75.5727 31.1819C76.2866 31.9621 76.7421 32.9171 77.1531 33.8883C77.2442 34.1002 77.1076 34.2055 76.807 34.1951Z" fill="#1A272D"/>
<path d="M65.5256 41.9466C64.805 43.0766 64.0629 44.1892 63.1388 45.1592C63.2705 44.4973 63.4022 43.8398 63.4311 43.1572C63.5072 42.1219 64.7728 42.1513 65.5256 41.9466Z" fill="#A34037"/>
<path d="M76.7549 52.5127C76.5027 52.7163 75.2389 53.4761 75.0864 52.9861C75.0437 52.8982 75.0803 52.7339 74.9074 52.7432C74.8861 53.2352 75.6659 54.6627 75.4056 54.9253C75.0976 54.8602 75.0965 54.5966 75.0559 54.3588C74.9847 53.7221 74.6268 53.1804 74.4895 52.5674C73.8175 50.8991 75.6222 52.7349 76.6562 52.3793C76.6806 52.3752 76.7213 52.4661 76.7549 52.5127Z" fill="#A34037"/>
<path d="M75.8354 47.8322C74.8802 48.1679 75.9095 46.2184 77.0099 46.3427C76.4864 46.6794 75.3766 46.9886 75.8354 47.8322Z" fill="#A34037"/>
<path d="M81.0595 35.8231C80.9381 36.2862 80.4993 35.6057 80.3379 35.4732C80.2388 35.3578 79.9926 35.2457 80.1051 35.0974C80.3646 34.8449 81.0127 35.5265 81.0595 35.8231Z" fill="#1A272D"/>
<path d="M55.4594 55.6219C55.8742 55.485 56.3009 55.4014 56.7277 55.3169C56.591 55.5877 56.2841 55.6158 56.0801 55.792C55.9019 55.7195 55.5435 55.7688 55.4594 55.6219Z" fill="#FBC04B"/>
<path d="M77.1606 46.2999C77.3923 46.1506 77.4343 45.9044 77.471 45.6571C77.7058 46.0441 77.71 46.3126 77.1606 46.2999Z" fill="#A34037"/>
<path d="M66.8458 46.6553C66.2782 46.5784 65.7096 46.5025 65.1421 46.4224C65.0023 46.4032 64.8152 46.4395 64.77 46.2536C64.7732 45.6467 65.861 45.4703 66.3213 45.3913C67.8169 45.2203 69.2894 45.6627 70.7556 45.9309C71.361 45.9715 71.939 46.7098 71.6931 47.3029C71.526 47.6555 71.1665 47.4525 70.8922 47.4012C69.5416 47.1565 68.1995 46.8263 66.8458 46.6553Z" fill="#0B0D13"/>
<path d="M75.4223 54.994C76.1078 55.9632 74.6246 55.9934 74.4213 56.7267C74.3518 56.8134 74.3389 56.9758 74.1683 56.9264C73.462 56.7822 72.7804 56.5129 72.0423 56.531C71.5562 56.6016 71.1128 55.9743 71.2229 55.5527C71.3836 55.4226 71.3836 55.8734 71.7963 55.8049C72.6356 55.3974 73.5235 55.5235 74.4024 55.5335C74.8121 55.5356 75.0879 55.1876 75.4223 54.994Z" fill="#A34037"/>
<path d="M70.1531 51.2641C69.4034 53.8578 65.0669 51.8628 64.8826 49.8271C64.9973 49.6637 65.3117 49.7969 65.536 49.8532C66.3082 51.0215 67.8026 51.9232 69.2805 51.3755C69.5498 51.2745 69.8315 51.0287 70.1531 51.2641Z" fill="#A34037"/>
<path d="M70.1508 51.2676C68.5866 52.0186 66.6274 51.8033 65.5706 50.2879C65.4734 50.1537 65.3568 50.0185 65.5328 49.8573C66.03 50.0549 66.5261 50.2525 67.0223 50.4512C67.675 50.6186 68.2858 50.9514 68.9733 50.9327C69.0572 50.9171 69.1411 50.9005 69.2239 50.8849C69.3283 50.7757 69.4531 50.861 69.5677 50.8454C69.6669 50.8287 69.7682 50.811 69.8685 50.7933C70.3196 50.6769 70.3524 50.6966 70.3452 51.0877C70.2807 51.148 70.2153 51.2073 70.1508 51.2676Z" fill="#0B0D13"/>
<path d="M74.1684 56.9268C74.2528 56.8599 74.3372 56.794 74.4216 56.7272C74.3097 57.315 75.1451 59.1562 73.8945 58.5554C73.9858 58.0125 74.0771 57.4696 74.1684 56.9268Z" fill="#FDF2C3"/>
<path d="M75.4248 54.9921C75.4288 55.4274 75.1679 55.4841 74.8293 55.4295C74.5246 54.986 74.6351 54.6357 75.0603 54.3563C75.2735 54.5061 75.3193 54.7866 75.4248 54.9921Z" fill="#FDF2C3"/>
<path d="M74.177 94.1322C74.4956 94.0674 74.8198 94.0123 74.8883 93.5976C75.2192 93.5367 75.5111 93.3965 75.7507 93.149C75.9219 92.9005 76.0997 92.6598 76.4458 92.6908C77.7781 92.1098 79.1511 91.7211 80.6146 91.7453C80.9921 91.4301 81.439 91.5607 81.8441 91.5974C82.9062 91.754 85.8226 91.9812 86.5187 92.6569C86.9048 92.8522 87.9698 92.9276 87.8148 93.5415C87.7187 93.9147 87.4991 94.166 87.0959 94.2395C86.5482 94.34 86.0594 94.0713 85.5383 94.02C84.5979 93.9427 83.6708 93.7097 82.7189 93.7841C82.4831 93.7841 81.0016 93.9137 81.885 94.1786C82.1484 94.3158 82.4793 94.31 82.6809 94.5788C84.4153 95.4111 86.3646 96.1787 87.3098 98.0465C87.6712 98.6178 86.938 99.3506 86.4122 98.9146C86.1155 98.7019 85.8103 98.466 85.524 98.2562C84.635 97.2682 82.3015 96.5538 81.6805 96.4891C82.4061 96.7037 83.104 96.9966 83.7915 97.3088C84.2014 97.4954 84.3459 97.8918 84.2746 98.4273C84.2118 98.8981 84.0311 99.1331 83.5357 99.192C82.8482 99.2732 82.156 99.3351 81.4609 99.3477C81.3791 99.3486 81.245 99.309 81.2308 99.4008C81.4029 99.5826 81.9572 99.6367 82.2216 99.7257C82.6704 99.8049 83.0013 100.14 83.3921 100.357C83.6432 100.636 83.5367 100.946 83.4654 101.253C82.5126 101.719 81.3239 101.261 80.3074 101.231C79.0009 101.115 77.6972 100.95 76.3935 100.794C73.0207 100.464 69.5357 100.461 66.3645 101.826C65.9109 102.012 65.4564 102.219 64.9524 102.125C63.9254 101.932 63.334 101.259 63.0373 100.266C62.9441 99.9548 62.9907 99.5874 62.7064 99.3496C62.6731 99.3119 62.6531 99.2665 62.6455 99.2162C62.8243 98.9127 63.1409 98.8102 63.4262 98.669C65.2405 97.7729 67.1318 97.0672 68.9823 96.2628C70.5598 95.6267 72.2372 95.2333 73.6778 94.2665C73.828 94.1641 73.9878 94.0858 74.177 94.1322Z" fill="#E57547"/>
<path d="M86.5251 92.6602C84.5797 92.2014 82.6333 91.7474 80.6211 91.7484C80.3893 90.6591 80.5381 90.2478 81.2718 89.9345C81.4025 89.821 81.56 89.8646 81.7088 89.8559C82.1305 89.7948 82.5522 89.7288 82.9749 89.6736C84.885 89.3826 86.6701 90.0004 88.4982 90.4234C87.8398 91.1693 87.1825 91.9152 86.5251 92.6602Z" fill="#487368"/>
<path d="M73.9023 79.7368C73.8419 79.0461 74.1264 77.2926 75.0492 77.467C75.2672 77.5498 75.2585 77.7643 75.1902 77.9326C73.6291 81.6274 75.6901 85.2386 75.5842 88.9797C75.5772 89.1301 75.5448 89.1995 75.487 89.0126C75.0011 85.9195 74.2087 82.846 73.9023 79.7368Z" fill="#CE4520"/>
<path d="M76.4503 92.6874C76.2655 92.9156 76.0075 93.0284 75.7549 93.1465C75.7267 92.512 75.688 91.8775 75.6792 91.2421C75.6765 91.0863 75.5375 90.7686 75.8658 90.8089C76.1114 90.8393 76.4626 90.8671 76.4635 91.2787C76.4635 91.7486 76.4547 92.2184 76.4503 92.6874Z" fill="#CE4520"/>
<path d="M98.2396 100.987C98.0642 101.601 97.6764 101.905 97.04 101.91C94.8555 101.921 93.0113 100.596 92.3626 98.5101C92.2347 98.1001 92.0253 97.8872 91.5911 97.9795C92.1037 97.0903 93.0722 96.9414 93.9901 96.8701C94.1593 96.8428 94.3181 96.7516 94.3254 96.5597C94.3336 96.3196 94.1283 96.3468 93.9716 96.3164C93.492 96.222 93.0113 96.1381 92.5369 96.0207C91.5581 95.854 91.7943 94.2727 92.7906 94.5831C94.5739 94.9637 96.284 94.258 98.0395 94.2318C98.2138 94.2287 98.2726 94.1322 98.2375 93.9623C98.4737 93.5156 101.098 94.8106 100.895 95.3496C100.71 95.9955 99.01 94.7446 98.3953 94.8306C98.0508 94.7645 97.563 94.9102 97.8714 95.337C98.2612 95.9861 98.91 96.3625 99.4546 96.8491C99.8929 97.2381 99.632 97.8232 99.0554 97.646C98.7264 97.6261 97.6362 97.107 97.5124 97.5118C97.1318 98.1546 97.5898 98.5017 98.0065 98.9326C98.68 99.8869 97.2288 99.5796 97.7527 100.3C97.8827 100.552 98.1901 100.672 98.2396 100.987Z" fill="#A34037"/>
<path d="M100.833 95.4125C100.612 94.8958 100.129 94.6995 99.6864 94.4873C99.1531 94.1838 98.4652 94.1742 97.9977 93.7593C97.1074 93.1577 97.4414 91.8016 98.6166 92.017C99.1572 92.0976 99.6979 92.1794 100.239 92.26C100.843 92.7184 101.539 93.0335 102.114 93.5429C103.022 94.3482 103.107 95.1759 102.406 96.1617C101.467 97.4828 100.563 98.8293 99.6436 100.164C99.1666 100.419 98.864 100.99 98.2419 100.983C97.9163 100.866 97.6919 100.614 97.5478 100.317C97.3933 99.9955 97.1178 99.5636 97.8494 99.5986C98.0551 99.6082 98.102 99.4575 98.0248 99.2877C97.5948 98.5428 96.7765 98.3783 97.385 97.2769C97.5645 96.8556 98.6458 97.4308 99.0403 97.4583C99.2073 97.5029 99.4213 97.6165 99.5236 97.4223C99.6332 97.2175 99.4537 97.0456 99.3002 96.932C98.6479 96.5214 96.2995 94.5127 98.3964 94.6305C99.2731 94.6899 99.986 95.2905 100.833 95.4125Z" fill="#E57547"/>
<path d="M83.246 101.256C83.673 101.302 83.3664 100.644 83.7558 100.522C84.3663 100.686 84.9768 100.851 85.5882 101.016C86.3079 103.754 84.2826 101.338 80.8228 103.312C79.758 103.82 78.7844 104.521 77.7007 104.989C77.6556 104.923 77.6321 104.849 77.6782 104.778C78.0601 104.151 78.6668 102.95 79.0318 102.673C78.3837 103.345 78.03 104.209 77.5719 105.003C77.2426 105.413 74.1902 108.018 75.3058 106.175C75.9859 104.997 76.635 103.746 76.8193 102.371C76.7732 100.876 80.6544 102.929 83.246 101.256Z" fill="#F68A2F"/>
<path d="M82.8941 100.047C82.197 99.9816 81.5392 99.754 80.8842 99.5206C80.5685 99.392 80.7324 99.1776 80.9845 99.1957C81.72 99.1424 82.4584 99.1043 83.1949 99.0614C83.9801 99.0147 84.1319 98.8442 84.1094 98.0888C84.0982 97.7344 83.9342 97.5382 83.6175 97.4182C83.4132 97.28 80.337 96.3169 81.11 96.2436C82.4846 96.4646 84.8431 96.8723 85.5234 98.2565C85.216 98.2222 85.1073 98.2831 85.2872 98.6204C85.7061 99.4053 85.3378 100.007 84.4561 99.9826C84.0757 99.9721 83.6981 99.8816 83.3186 99.8416C83.1471 99.8235 82.9119 99.712 82.8941 100.047Z" fill="#A34037"/>
<path d="M98.1839 91.9955C97.4308 92.5097 97.6447 93.129 98.0004 93.7637C97.1937 93.5092 93.995 93.5761 94.2839 92.3376C94.3579 91.9131 94.6812 91.7689 95.043 91.7874C96.091 91.8389 97.1369 91.9244 98.1839 91.9955Z" fill="#A34037"/>
<path d="M81.4249 93.8335C82.8158 93.4081 84.1851 93.4919 85.5357 94.019C84.2722 94.0618 82.3806 94.9573 81.4249 93.8335Z" fill="#A34037"/>
<path d="M85.5456 102.423C85.6508 101.957 85.3087 101.475 85.5902 101.015C86.2157 101.029 86.8545 100.956 87.4696 101.087C87.0014 101.568 86.5323 102.048 86.0631 102.529C85.8906 102.494 85.7181 102.458 85.5456 102.423Z" fill="#FBC04B"/>
<path d="M98.6243 92.02C98.5912 92.0123 98.557 92.0035 98.5239 91.9958C98.5581 92.0035 98.5912 92.0123 98.6243 92.02Z" fill="#A34037"/>
<path d="M56.207 70.6128C56.1997 70.5557 56.1932 70.4987 56.1859 70.4425C57.5798 69.9056 59.0813 69.8598 60.5019 69.4491C61.9649 69.0273 63.3128 68.3575 64.5245 67.4053C64.7913 67.1958 65.0747 66.9217 65.4409 67.0713C65.8043 67.2201 65.7445 67.6214 65.8053 67.9394C65.8991 68.4295 65.9635 68.9281 66.0932 69.408C66.1623 69.6643 66.4668 69.8504 66.28 70.1872C66.2635 70.2171 66.453 70.4453 66.5441 70.4435C66.7529 70.4379 66.6057 70.2601 66.6011 70.1666C66.5882 69.9262 66.5303 69.6877 66.522 69.4463C66.5183 69.336 66.3904 69.103 66.6867 69.147C67.2213 70.0263 67.7797 70.9925 68.2011 71.9663C65.2974 74.3357 58.6038 73.4218 56.207 70.6128Z" fill="#E57547"/>
<path d="M60.3755 53.5483C60.502 52.9092 60.6286 52.268 60.7551 51.6278C60.8857 52.3215 60.8209 52.9751 60.3755 53.5483Z" fill="#E57547"/>
<path d="M56.2001 70.6087C59.2122 72.886 62.7819 73.6883 66.409 72.7226C67.0438 72.5647 67.5178 72.0153 68.1938 71.9632C68.8645 73.4894 68.9543 75.1323 69.1249 76.7607C69.7569 82.8506 72.8095 88.2304 74.1732 94.1286C73.2395 94.8433 72.1918 95.3426 71.0911 95.6912C68.3617 96.6241 65.7267 97.807 63.1177 99.0356C62.9875 99.0958 62.8393 99.115 62.7002 99.1533C62.6158 99.0611 62.5844 98.9735 62.7199 98.9005C63.3987 89.0528 58.3764 79.9909 56.2001 70.6087Z" fill="#FDF2C3"/>
<path d="M62.7276 98.905C62.7276 99.4586 62.4601 100.052 61.8695 100.261C61.1889 99.4311 60.3355 99.2465 59.3135 99.4165C56.3682 99.9053 53.3943 100.234 50.512 101.072C49.345 101.411 48.1804 101.758 47.0167 102.106C46.6378 102.258 46.1355 101.955 46.3464 101.519C47.0103 99.1122 47.195 96.6116 47.5842 94.1571C47.6328 93.9669 47.6583 93.754 47.9257 93.7646C49.3227 99.6107 53.618 97.0162 57.9228 97.4241C58.8836 97.4775 59.8348 97.5859 60.7797 97.7696C60.9071 97.7154 60.9954 97.7826 61.075 97.8724C61.6553 98.1678 62.1146 98.6647 62.7276 98.905Z" fill="#CE4520"/>
<path d="M61.8723 100.26C62.1415 99.9217 62.4116 99.5834 62.6817 99.246C62.9878 99.2179 63.1289 99.3294 63.1482 99.6771C63.2275 101.166 64.5145 102.493 66.3214 101.654C71.7172 99.1973 77.6191 101.056 83.2481 101.255C82.0543 102.782 78.7475 101.926 77.03 101.994C76.5036 102.312 75.7928 102.156 75.201 102.154C72.3911 102.263 69.7397 103.315 67.2174 104.519C66.2033 105.016 65.228 105.587 64.213 106.078C64.0415 106.161 63.8793 106.292 63.6746 106.174C63.6589 105.927 63.5566 105.718 63.4063 105.529C63.5105 103.597 62.7675 101.899 61.8723 100.26Z" fill="#A34037"/>
<path d="M22.4943 100.247C22.8724 96.1088 27.275 94.4618 30.7282 93.8809C31.0593 93.8216 31.4071 93.8377 31.7368 93.9579C31.5488 95.9964 31.3617 98.0348 31.1737 100.073C30.0166 99.8929 28.6557 99.9677 27.7388 99.1133C27.5448 98.9423 27.4228 98.5887 27.0523 98.7874C25.5322 99.6903 27.0712 100.449 26.365 100.966C25.123 101.898 23.5885 101.02 22.4943 100.247Z" fill="#2D3E47"/>
<path d="M46.0583 102.164C45.8927 102.509 45.5281 102.525 45.246 102.654C42.9567 103.698 40.6106 104.561 38.1152 104.937C37.7243 104.996 37.3519 105.173 36.9681 105.283C36.8395 105.32 36.671 105.516 36.5843 105.34C36.4919 105.151 36.6895 105.025 36.8473 104.93C39.042 103.62 41.2666 102.016 43.9553 102.5C44.2502 102.639 46.2189 101.613 46.0583 102.164Z" fill="#CE4520"/>
<path d="M55.3729 79.6415C55.4447 79.9912 55.1143 80.0346 55.0353 79.6129C53.7427 76.3388 53.9479 72.7509 53.1999 69.3503C53.1736 69.2294 53.1001 69.0901 53.2244 68.9738C55.4447 72.0459 54.9028 75.9807 55.3729 79.6415Z" fill="#CE4520"/>
<path d="M46.0645 102.167C47.6174 96.764 47.5719 91.1701 47.937 85.6125C47.9686 85.3692 47.9273 85.0484 48.2656 84.9477C48.1382 87.8866 47.9435 90.8237 47.9289 93.7658C47.5719 94.1675 47.5598 94.688 47.5119 95.1763C47.3707 96.0555 46.8239 102.38 46.0645 102.167Z" fill="#A34037"/>
<path d="M48.2561 84.9472C47.9028 86.3748 48.0211 87.8927 47.7467 89.3096C47.6152 88.3205 46.6119 83.7158 47.5338 83.2981C48.0269 83.2238 48.3038 84.5579 48.2561 84.9472Z" fill="#CE4520"/>
<path d="M41.0018 97.8687C41.7425 98.2743 42.2346 98.9878 42.9048 99.4821C43.6932 100.107 44.5622 100.661 45.2838 101.359C43.6426 100.662 41.9662 99.4306 41.0018 97.8687Z" fill="#CE4520"/>
<path d="M40.9036 97.7001C40.9219 97.7568 41.0269 97.8405 40.9873 97.8853C40.9586 97.827 40.9344 97.7479 40.9036 97.7001Z" fill="#CE4520"/>
<path d="M45.5197 101.528C45.6142 101.551 45.6233 101.554 45.5255 101.523L45.5197 101.528Z" fill="#CE4520"/>
<path d="M45.5343 101.525C45.4916 101.505 45.4846 101.501 45.5263 101.531L45.5343 101.525Z" fill="#CE4520"/>
<path d="M40.8108 97.6054C40.8443 97.6333 40.8778 97.6804 40.9105 97.6987C40.8778 97.674 40.8435 97.6086 40.8108 97.6054Z" fill="#CE4520"/>
<path d="M40.8304 97.6017C40.7925 97.5853 40.7853 97.5822 40.8232 97.6089L40.8304 97.6017Z" fill="#CE4520"/>
<path d="M124.641 102.347C124.619 102.298 124.616 102.301 124.663 102.323C124.663 102.322 124.641 102.347 124.641 102.347Z" fill="#487368"/>
<path d="M63.6734 106.173C64.542 105.498 74.5529 100.605 74.3158 102.525C74.0292 104.886 73.6965 107.515 72.1053 109.37C69.9548 110.945 67.7035 112.557 65.6042 114.265C61.4725 117.58 57.5797 121.187 53.5435 124.617C53.3733 124.506 53.3767 124.331 53.4236 124.173C53.7893 122.898 54.2635 121.537 55.4691 120.877C55.4691 120.877 55.509 120.882 55.5073 120.884C55.5064 120.887 55.4734 120.867 55.4726 120.867C55.4639 120.899 55.4465 120.92 55.4187 120.936C54.7282 121.393 54.9766 120.318 55.2076 120.029C56.2794 117.641 57.6622 115.385 58.4352 112.867C58.5099 112.618 58.6098 112.385 58.78 112.189C59.7693 111.5 60.7238 110.749 61.7574 110.139C63.3434 109.265 63.8801 107.974 63.6734 106.173Z" fill="#FDF2C3"/>
<path d="M58.7742 112.193C58.119 115.482 55.8654 118.315 54.9424 121.406C53.7631 122.777 53.6288 124.603 52.9697 126.234C51.3104 122.311 54.1251 118.388 55.3429 114.795C55.4788 113.911 55.9827 113.51 56.753 113.224C57.456 112.964 58.1028 112.543 58.7742 112.193Z" fill="#F68A2F"/>
<path d="M72.1017 109.372C73.367 107.108 74.0245 104.689 74.1507 102.083C74.4714 101.901 74.818 102.014 75.1529 101.991C75.6247 102.578 74.6971 105.783 74.5008 106.638C74.4768 106.704 74.4492 106.834 74.5025 106.696C75.0108 105.687 75.6203 104.73 76.021 103.663C76.2947 103.134 76.2334 102.419 76.6519 101.988C77.8052 101.951 75.8735 105.595 75.5057 106.205C74.8926 107.378 73.2968 108.779 72.1017 109.372Z" fill="#CE4520"/>
<path d="M77.5728 105.005C77.8373 104.01 78.256 103.117 79.1366 102.534C78.7483 103.218 78.36 103.902 77.9682 104.583C77.848 104.73 77.7871 105.015 77.5728 105.005Z" fill="#A34037"/>
<path d="M18.7679 102.721C21.9347 101.04 26.1577 102.168 28.6946 104.641C28.9131 104.855 29.001 105.215 29.3566 105.279C28.5867 106.12 27.8211 106.962 27.2954 108.001C27.1505 108.285 26.8812 108.336 26.6034 108.204C25.5828 107.719 24.5408 107.297 23.4716 106.931C22.9153 106.742 22.8046 106.072 22.4703 105.638C21.4847 104.324 20.1099 103.557 18.7679 102.721Z" fill="#2D3E47"/>
<path d="M56.5506 46.9754C58.1206 48.7545 59.0674 53.3124 57.0843 55.0884C58.2684 52.3615 57.9937 49.4812 56.5506 46.9754Z" fill="#E57547"/>
<path d="M58.2264 54.9824C60.0995 52.5874 59.4371 49.9326 58.6075 47.3338L58.6033 47.3381C59.6748 49.2655 60.1306 51.972 59.1162 54.0177C58.919 54.3512 58.6272 55.012 58.2264 54.9824Z" fill="#E57547"/>
<path d="M56.8334 45.1282C57.3487 45.3634 58.3204 46.3373 58.2888 46.9136C58.2289 46.8783 58.1542 46.8558 58.1122 46.8045C57.7126 46.2582 57.0322 45.7547 56.8334 45.1282Z" fill="#FBC04B"/>
<path d="M58.2565 55.0331C57.9658 55.5444 57.4241 55.5515 56.9588 55.7099C56.9281 55.721 56.8834 55.6927 56.8457 55.6826C57.2386 55.3639 57.7743 55.2308 58.2198 54.9836C58.2386 54.9947 58.2505 55.0109 58.2565 55.0331Z" fill="#FBC04B"/>
<path d="M55.9265 44.665C55.8936 44.6461 55.8936 44.6283 55.9316 44.6258C55.967 44.6385 55.962 44.6549 55.9265 44.665Z" fill="#FBC04B"/>
<path d="M56.3323 46.7091C56.3335 46.7368 56.3358 46.7645 56.3369 46.791C56.3335 46.7656 56.3416 46.7276 56.3323 46.7091Z" fill="#E57547"/>
<path d="M56.5592 46.969C56.5376 46.9582 56.4726 46.9401 56.5279 46.9425C56.5412 46.9485 56.5472 46.9918 56.5592 46.969Z" fill="#E57547"/>
<path d="M58.6066 47.332L58.5732 47.3189C58.5805 47.3204 58.6008 47.3479 58.6066 47.332Z" fill="#E57547"/>
<path d="M56.3333 46.7139C56.3276 46.6874 56.3038 46.6092 56.2846 46.5977C56.3004 46.6368 56.3174 46.6759 56.3333 46.7139Z" fill="#FBC04B"/>
<path d="M57.0929 55.086C57.081 55.1098 57.0762 55.1336 57.0441 55.1228C57.0583 55.1098 57.1119 55.105 57.0929 55.086Z" fill="#E57547"/>
<path d="M56.8076 45.1553C56.7724 45.0957 56.7785 45.0945 56.8392 45.1249C56.8392 45.1237 56.8076 45.1553 56.8076 45.1553Z" fill="#FBC04B"/>
<path d="M46.4193 48.7863L46.3877 48.8193C46.3877 48.8179 46.425 48.7877 46.4193 48.7863Z" fill="#0B0D13"/>
<path d="M100.834 95.4076C100.878 95.4392 100.871 95.4363 100.827 95.4148L100.834 95.4076Z" fill="#A34037"/>
<path d="M76.6487 101.988C76.3861 103.939 75.3028 105.556 74.401 107.237C74.3464 107.333 74.3058 107.506 74.1534 107.42C74.0141 107.343 74.1119 107.208 74.1481 107.097C74.6866 105.436 75.026 103.736 75.1494 101.991C75.65 101.99 76.1489 101.988 76.6487 101.988Z" fill="#F68A2F"/>
</svg>
