<svg width="150" height="150" viewBox="0 0 150 150" fill="none" xmlns="http://www.w3.org/2000/svg">
<path d="M138.797 114.548C134.486 121.855 128.887 128.434 122.209 133.656C121.467 133.604 121.216 132.949 120.842 132.483C118.862 129.931 115.746 128.465 112.507 128.875C111.58 128.897 109.482 129.826 108.883 129.004C108.738 128.571 109.048 128.335 109.295 128.08C110.233 127.043 111.453 126.327 112.36 125.267C113.189 124.369 113.837 123.331 114.575 122.363C115.487 121.177 113.741 120.136 112.974 119.423C111.458 118.511 113.261 117.262 113.919 116.469C115.892 114.33 118.178 112.495 120.142 110.357C121.061 109.372 119.801 108.211 118.673 108.392C118.231 108.41 117.833 108.175 117.391 108.18C117.036 108.178 116.683 108.173 116.329 108.182C115.617 108.096 114.927 107.893 114.198 107.987C113.736 108.058 113.318 107.801 112.862 107.782C111.765 107.864 110.736 107.516 109.639 107.568C107.404 107.18 105.803 109.363 104.273 110.618C102.385 112.231 100.584 113.944 98.671 115.528C96.8784 117.722 96.091 115.898 96.072 113.9C94.7276 101.778 93.2616 82.6418 79.9057 78.0824C79.2652 77.7299 79.1538 78.2066 79.5247 78.7769C80.5096 79.752 87.7293 102.081 84.1821 98.5287C81.5325 90.6249 78.7246 82.6091 73.9848 75.7003C73.8519 74.5436 75.3508 74.8424 75.8028 75.4308C76.7636 76.3244 77.6992 76.5862 78.9132 75.8465C80.9425 74.6288 82.2009 78.0116 84.21 76.121C84.6442 75.7499 85.2228 75.6596 85.7734 75.5363C86.5026 75.3749 87.028 75.0254 87.1508 74.1916C87.4812 72.1592 89.5928 73.265 90.9639 72.1414C92.8198 71.0623 94.8757 72.2418 95.1795 69.2955C95.2263 68.9739 95.1453 68.6244 95.3897 68.346C96.7417 67.8402 97.7545 71.8529 102.03 69.3591C128.641 57.0389 152.996 91.3346 138.797 114.548Z" fill="#64242A"/>
<path d="M8.621 40.2697C33.8849 -13.8736 116.362 -13.0688 141.783 40.5659C141.911 40.8142 142.387 41.1518 141.791 41.4467C141.122 41.3373 140.951 40.7327 140.686 40.263C138.46 36.2059 127.142 19.0101 122.695 19.4371C115.246 19.5172 108.506 21.6885 102.455 26.0472C101.872 26.4689 101.34 27.0028 100.569 27.0908C99.7729 26.9587 99.4699 26.1366 98.8066 25.819C98.4809 25.6001 98.0955 25.5001 97.7525 25.3145C97.3312 25.1037 96.8673 25.2371 96.4326 25.1437C95.2775 24.7647 95.2164 23.4061 94.2487 22.8429C94.1596 22.6588 94.0772 22.6961 93.9935 22.8483C93.5415 23.0938 92.9793 22.9497 92.5792 22.6668C91.0772 21.3669 91.8003 19.0808 88.9132 18.0986C86.9499 17.5754 85.8307 18.7618 84.1466 18.5697C82.5834 18.1039 81.6277 15.8098 79.804 16.5985C79.1232 16.6412 78.4315 16.5985 77.7478 16.6012C76.0127 16.3343 75.1734 14.255 73.3069 14.5126C73.1203 14.4459 72.9419 14.5113 72.7622 14.55C72.3586 14.63 71.9298 14.5593 71.5695 14.7995C69.8727 15.8778 69.1395 18.8072 66.7371 18.3681C64.7447 17.6515 64.0454 20.7904 62.1649 20.7971C61.5776 20.785 60.9867 20.8277 60.4029 20.761C57.8552 19.9776 55.4655 22.7562 55.4755 25.1731C55.4633 26.5584 54.6106 27.8435 53.2194 28.1478C52.5953 28.1305 51.9964 28.5162 51.3687 28.3013C49.794 27.662 47.819 26.8052 46.3247 28.0557C42.4694 30.538 47.7624 33.757 43.8185 35.5493C42.7972 35.9924 41.896 36.5823 41.3151 37.5725C40.7377 38.5761 40.9464 39.7639 41.6178 40.5926C44.8922 44.7057 38.372 45.8201 41.4429 49.1258C43.6177 51.5427 40.3907 52.0765 41.5152 54.384C42.215 55.8267 43.7957 57.2026 42.288 58.7133C38.0903 62.5889 43.7543 62.4728 42.9458 65.657C42.6846 66.8835 42.9109 67.2412 44.0302 67.8751C44.6326 68.186 45.2923 68.0366 45.9241 68.114C46.4886 68.2781 46.7475 68.7372 46.9915 69.215C47.3915 69.9757 46.4513 70.4647 45.8879 70.7101C42.7032 72.2497 39.6137 73.9643 36.5499 75.7299C36.1071 75.9852 35.6528 76.3576 35.0958 75.9495C34.6367 75.3749 34.6496 74.6441 34.4583 73.9825C34.1188 72.3684 32.7447 70.3342 32.9926 68.7693C42.3312 53.8488 27.465 34.1587 10.3176 40.1149C9.7753 40.2857 9.22646 40.6687 8.621 40.2697Z" fill="#F7F7F4"/>
<path d="M100.434 27.017C104.621 22.9884 120.804 16.2406 125.659 20.0893C142.291 36.1011 152.449 59.2791 149.489 82.5711C148.852 82.697 148.627 82.1788 148.353 81.7941C142.193 72.9242 131.757 68.6763 121.263 68.4012C114.348 66.6049 106.816 66.9206 100.488 70.4726C99.5399 70.991 98.8 70.9961 97.9932 70.2672C90.9871 65.5692 100.406 68.7942 99.3088 64.0227C99.271 59.9459 106.257 62.0071 103.337 56.3229C101.527 52.7861 108.103 51.3397 104.98 47.8955C103.166 46.2133 103.046 45.3969 104.15 43.1823C105.364 40.2565 101.051 40.3427 102.313 36.7159C103.243 33.2299 97.8291 34.14 99.9161 29.6817C100.169 29.1251 100.244 28.5408 100.207 27.9323C100.186 27.609 100.108 27.2579 100.434 27.017Z" fill="#F47224"/>
<path d="M33.2001 68.8161C33.0992 69.344 33.3693 69.7869 33.5419 70.2448C34.243 72.1041 34.9627 73.9567 35.2509 75.9409C35.4136 76.3903 35.105 76.6486 34.8151 76.8417C24.8163 82.9153 26.0861 99.8218 21.049 95.8998C15.4352 93.3725 9.56527 92.467 3.45396 93.0518C3.01451 93.0944 2.59279 93.0783 2.24815 92.7481C-1.29841 78.7908 -0.611957 63.6158 4.04635 50.0096C4.78209 49.4315 5.6393 49.6235 6.43375 49.7182C17.966 50.9113 28.5067 58.1298 33.2001 68.8161Z" fill="#F1463A"/>
<path d="M52.705 146.821C47.7193 145.554 42.869 143.626 38.4189 141.037C37.21 132.976 45.6267 129.069 52.3667 128.549C56.7574 127.927 57.9778 124.508 61.1325 122.227C64.0305 120.41 67.2825 119.348 70.3942 117.972C71.9174 117.311 73.4844 117.732 74.3707 118.929C74.4416 122.347 76.1572 125.263 77.635 128.215C77.7993 128.778 78.2564 129.142 78.5774 129.598C79.3027 130.733 79.6707 132.059 80.472 133.156C80.8359 134.154 80.9621 135.201 81.0843 136.243C81.1544 136.842 81.1098 137.444 80.4695 137.779C79.7648 137.978 79.1055 137.612 78.4165 137.608C77.1622 137.601 75.903 137.521 74.6595 137.771C72.2558 138.255 69.8463 137.887 67.4467 137.774C61.479 137.332 58.1338 142.788 54.003 146.142C53.6259 146.495 53.2026 146.72 52.705 146.821Z" fill="#F47224"/>
<path d="M43.7983 131.288C40.87 133.2 38.6287 136.265 38.6262 139.896C38.6189 140.284 38.7048 140.696 38.4235 141.038C37.237 140.458 36.0963 139.795 34.9948 139.066C34.6702 138.587 34.7045 138.078 34.8182 137.54C35.5925 133.302 38.4553 132.142 36.4021 131.284C32.4517 129.01 27.7645 128.345 23.2886 129.019C22.8903 129.1 22.5012 129.065 22.1343 128.872C19.2554 126.158 16.7648 123.116 14.5659 119.828C14.3804 119.305 14.616 118.847 14.8051 118.392C19.5866 106.996 23.1206 95.229 28.1909 83.9601C31.8196 76.5449 40.3066 72.8586 47.3888 69.839C47.46 70.3423 47.1124 70.6354 46.8197 70.9416C43.1645 74.7617 40.2388 79.062 38.1103 83.9256C37.1765 86.0569 35.9711 88.0897 34.267 89.6923C28.6976 94.8629 30.8343 103.122 27.9494 109.618C26.2387 114.828 25.5727 121.339 30.571 124.949C33.6546 127.152 38.7775 130.606 42.5791 128.811C44.5465 127.541 44.2693 130.153 43.7983 131.288Z" fill="#D14820"/>
<path d="M52.7118 146.822C58.3018 142.024 61.9955 135.804 70.3557 137.569C73.6971 137.988 77.085 136.449 80.375 137.629C80.4517 138.304 79.8926 138.534 79.4879 138.829C77.5089 140.276 75.5581 141.761 73.572 143.198C73.4398 143.294 73.3157 143.407 73.1512 143.451C78.4172 141.758 83.4278 138.942 88.7282 137.395C92.0949 136.497 92.0757 137.986 94.1859 137.999C97.6636 138.057 110.205 136.736 111.159 140.98C93.5441 150.778 71.9371 152.382 52.7118 146.822Z" fill="#D14820"/>
<path d="M33.2085 68.8145C32.3452 68.2168 32.0758 67.2071 31.5852 66.3661C26.0495 56.5695 15.2982 50.0726 4.05487 50.0087C4.76618 47.2132 6.10777 44.6432 7.1985 41.9883C7.5 41.2595 7.94678 40.6765 8.61935 40.2687C25.9807 32.7453 43.6272 52.7349 33.2085 68.8145Z" fill="#F47224"/>
<path d="M23.0913 96.3433C21.1957 104.251 17.7051 111.873 14.7481 119.479C14.3724 120.659 11.0799 114.48 10.5713 113.798C6.78649 107.213 3.79401 100.206 2.24908 92.7475C9.45493 91.8267 16.5947 93.1591 23.0913 96.3433Z" fill="#64242A"/>
<path d="M121.887 68.526C131.905 67.4119 143.242 73.6443 148.87 81.9362C150.558 90.1956 144.574 103.941 140.569 111.622C139.748 113.324 139.774 112.012 140.273 111.051C146.781 94.6707 138.434 74.6755 121.887 68.526Z" fill="#F1463A"/>
<path d="M111.143 140.977C107.505 136.971 99.8112 138.6 94.9482 138.419C93.8086 138.457 92.7315 138.358 91.7298 137.694C91.1708 137.324 90.488 137.346 89.8105 137.498C88.1884 138.179 88.0322 137.29 89.5897 136.773C95.8712 134.168 101.935 130.946 108.44 128.947C108.747 128.929 109.005 129.198 109.325 129.093C114.975 127.588 118.825 128.76 122.208 133.654C118.871 136.576 115.108 139.011 111.143 140.977Z" fill="#F47224"/>
<path d="M22.123 128.871C27.4161 127.81 32.4392 128.451 37.1175 131.267C37.9516 131.769 37.9755 131.807 37.4045 132.629C36.0542 134.572 35.1543 136.679 34.9839 139.065C30.2327 136.318 25.8547 132.902 22.123 128.871Z" fill="#F47224"/>
<path d="M139.743 112.876C139.714 112.688 139.733 112.526 139.956 112.47C139.991 112.661 139.932 112.802 139.743 112.876Z" fill="#F1463A"/>
<path d="M139.695 113.068C139.455 113.116 139.585 112.873 139.754 112.865C139.734 112.933 139.715 113 139.695 113.068Z" fill="#F1463A"/>
<path d="M100.44 27.0165C100.773 28.1894 100.576 29.2752 100.071 30.3831C98.3392 33.9671 104.423 33.2463 102.568 37.3674C101.607 40.4248 106.486 39.9761 104.108 44.2727C102.076 47.4743 109.456 48.0381 104.611 52.6846C101.002 55.8187 107.218 58.3635 102.903 61.0384C101.456 61.7126 99.3106 62.08 99.7066 64.14C100.049 66.0337 98.6298 67.2264 96.8478 67.3415C94.9455 67.3927 95.7977 68.7528 95.4526 69.9909C95.0682 71.3743 94.4279 71.9474 92.9922 71.9555C91.1246 71.873 90.6394 73.4179 88.7162 73.1947C86.5973 73.1354 88.436 75.5372 86.1388 75.8336C85.2751 75.972 84.519 76.2486 83.8324 76.8497C81.8571 78.383 80.9099 74.5549 78.226 76.5846C76.5448 77.732 75.8003 74.7676 74.133 75.2291C73.2727 75.1257 72.9011 74.7141 73.1859 73.8376C73.4997 72.8692 73.099 72.3973 72.4101 71.8451C71.0369 70.686 67.5379 67.0869 67.3329 65.2769C67.4753 64.7015 68.6784 65.9128 68.9088 66.2453C70.9663 68.3854 77.5985 74.2863 80.5012 73.0901C81.981 72.4345 82.9895 71.1429 84.0072 69.9467C87.1323 66.7428 90.6267 62.9333 90.7795 58.1972C90.5144 57.8008 90.0917 57.931 89.7235 57.8822C89.1944 57.7613 88.2855 57.1638 88.3885 56.5023C89.1747 55.3456 92.0485 57.5009 92.9841 53.3903C92.6529 53.1299 92.2118 53.4379 91.8285 53.3531C91.1002 53.1903 90.2098 53.8994 89.6043 53.2298C89.6251 50.8641 92.1215 52.2429 93.4044 51.4407C94.1083 50.3631 94.1813 49.0808 94.5437 47.8951C94.7463 47.1499 94.9293 46.3989 95.0161 45.6317C95.0752 44.7924 95.2245 41.4629 93.908 41.735C92.5418 41.8001 91.0991 41.9163 90.0721 40.834C88.7463 39.625 86.8891 38.5904 85.0724 39.1658C82.2195 40.2807 82.5807 40.0435 79.7243 39.1879C76.0331 38.3288 78.1705 42.5313 75.1531 43.4276C74.206 43.788 73.737 44.3425 73.7011 45.4062C73.59 50.6328 68.0867 48.7263 68.7096 53.1543C69.6347 61.0221 63.5027 61.3639 60.7863 67.1706C58.7075 72.5065 55.2074 70.042 51.149 68.9586C50.5902 68.8679 49.9655 68.597 49.4442 68.919C48.6474 69.262 47.7008 70.0188 46.8352 69.3747C46.361 69.1841 46.4304 68.5122 45.93 68.3459C45.2435 68.1529 44.5237 68.4192 43.8396 68.1913C42.7372 67.6368 42.2712 67.0521 42.5244 66.0523C42.8527 64.7549 42.6462 63.8017 41.415 63.1623C41.2493 63.0763 41.1385 62.8833 41.002 62.7403C40.8935 62.7147 40.8807 62.6031 40.8096 62.5357C40.7314 62.5171 40.6882 62.4694 40.6859 62.3869C39.7882 60.4862 40.7635 59.5097 42.1668 58.3774C44.1353 56.3477 38.9454 54.6237 41.6459 51.5093C43.4132 49.7586 38.5786 49.1239 40.8042 45.6154C41.6465 44.3808 42.9739 43.3253 41.8682 41.785C37.6546 35.5179 45.1513 36.3584 45.1449 33.2673C44.9898 32.7569 44.7804 32.2536 44.6165 31.7421C43.6057 29.1752 46.4461 26.6468 48.9898 27.278C49.2738 27.5094 49.6366 27.2908 49.9335 27.4849C50.0431 27.5977 50.2415 27.5803 50.3586 27.6558C50.4888 27.8907 50.7909 27.6896 50.9372 27.8849C51.8226 28.394 52.4415 28.1348 53.3112 27.8639C55.7918 26.8665 54.5897 24.9797 55.5479 23.1162C56.4246 21.2144 58.3972 20.0065 60.4829 20.4576C60.9221 20.7319 61.7334 20.6087 62.2847 20.518C63.0164 20.332 63.4831 19.8043 63.9531 19.2614C64.2669 18.8975 64.6015 18.5406 65.0415 18.3139C65.1608 18.0989 65.61 18.3256 65.6297 18.057C66.3615 17.9315 67.0805 18.4767 67.8204 18.0849C67.8354 18.0512 67.8354 18.0187 67.8215 17.9861C67.9061 18.0082 67.9663 17.9814 68.0022 17.9001C68.6552 17.7001 68.9678 17.1282 69.3545 16.6411C69.9867 15.8157 70.5981 14.9055 71.5961 14.5079C72.2214 14.2905 72.9647 14.4928 73.6189 14.2975C73.7891 14.2126 74.0439 14.1708 74.1921 14.2975C76.7289 15.0961 76.7776 17.1084 79.9617 16.24C80.3368 16.2144 80.8243 16.1296 81.138 16.304C81.2897 16.5062 81.5838 16.3156 81.7332 16.5213C82.869 17.0177 83.7282 18.858 85.1454 18.2965C85.2936 18.1442 85.5587 18.2872 85.7197 18.1093C85.8991 18.0093 86.1238 18.0582 86.2801 17.9105C86.3472 17.9047 86.4144 17.8989 86.4804 17.8931C86.6263 17.7815 86.7965 17.8152 86.9597 17.8082C87.512 17.8082 88.0643 17.8082 88.6166 17.8082C88.7799 17.8036 88.9651 17.7955 89.0948 17.8873C89.2349 18.1117 89.536 17.9105 89.6842 18.114C92.206 19.3672 91.4244 21.3992 92.8671 22.5071C93.8258 23.3487 94.8343 21.984 95.5232 23.7963C96.277 25.9795 98.8417 24.13 100.44 27.0165Z" fill="#121010"/>
<path d="M79.7787 85.9242C81.9175 89.9314 83.0685 94.4359 84.5952 98.6365C84.4654 99.0594 84.9863 99.327 85.2004 99.6497C85.6654 100.346 85.5434 101.25 85.9422 101.984C86.366 103.628 86.7787 105.273 86.342 106.986C80.5154 112.941 73.5292 117.077 64.9733 117.411C64.5014 117.389 64.0372 117.349 63.793 116.844C63.4243 114.416 63.7346 111.879 63.6504 109.414C63.3203 97.461 61.6397 83.8027 54.4059 73.9135C54.1497 73.5312 53.8463 73.1549 54.032 72.6387C54.552 72.1123 55.0094 72.5058 55.4495 72.7622C60.5952 75.9927 66.5396 78.279 72.661 77.3054C75.9637 79.2905 77.7362 82.8292 79.7787 85.9242Z" fill="#F7F7F4"/>
<path d="M82.5426 39.7133C81.5968 39.3076 80.6095 39.022 79.6171 38.7688C75.5423 37.9382 78.0344 42.3781 74.8284 43.2148C73.4269 43.6906 73.3378 43.8116 73.3196 45.2655C73.3996 50.5066 67.6387 48.2708 68.3425 53.153C68.6159 56.7826 67.6489 59.8602 64.4733 61.9719C63.7806 62.4324 63.2146 63.0506 62.6586 63.6677C59.96 66.1413 60.1088 71.5583 55.4507 69.8929C50.5405 68.3506 48.1173 67.3258 53.2402 72.1246C53.4164 72.2344 53.6331 72.2618 53.7961 72.3991C53.8862 72.4784 53.9885 72.5455 54.11 72.5587C54.5272 72.3391 54.7358 72.7326 54.9981 72.8963C56.4158 73.7828 57.798 74.7314 59.3909 75.2957C62.5817 75.2479 62.8196 67.3329 65.2196 69.6337C67.3856 72.0931 68.2807 75.8223 71.0047 77.7469C71.6174 77.7967 72.1642 77.4978 72.7515 77.4175C74.1945 77.1949 74.3758 76.349 74.1327 75.2296C73.3145 74.9398 73.1616 74.3888 73.5626 73.6659C74.0041 72.8719 73.7692 72.394 73.0411 71.8714C70.7323 70.2762 68.4012 67.4163 67.5597 65.1978C69.987 68.2042 73.194 70.7439 76.6835 72.5435C76.7544 72.4316 76.8294 72.3249 76.9114 72.2283C77.0116 71.7484 76.6603 71.3407 76.4648 70.93C75.2841 68.4391 74.9003 65.8241 75.1342 63.0922C75.5889 59.5348 77.5696 56.4664 78.1336 52.9151C78.3696 51.5385 78.5954 49.8152 80.3321 49.1971C80.0779 48.1783 78.9853 48.6643 78.3362 48.3878C78.5863 48.1793 78.9559 48.1265 79.1604 47.8276C80.327 45.4627 80.6672 42.742 82.3816 40.6192C82.573 40.365 82.7765 40.0661 82.5426 39.7133Z" fill="#D14C38"/>
<path d="M85.5502 101.829C85.3697 101.224 85.1891 100.617 85.0086 100.012C85.1062 99.8411 84.9985 99.7153 84.9146 99.585C84.8649 99.5174 84.8584 99.4444 84.8935 99.3686C84.2561 91.9971 81.8161 84.8569 78.8484 78.1171C78.7333 77.8674 78.4173 77.5789 78.6771 77.3144C92.3607 80.8618 94.4441 97.8057 96.0791 109.848C96.2706 111.995 96.3895 114.154 96.7929 116.278C96.7284 116.527 96.5507 116.688 96.3213 116.737C95.4822 116.813 91.283 118.029 92.076 116.16C92.4353 114.933 92.6324 115.249 92.1553 114.048C91.2987 111.417 90.2892 108.863 88.7648 106.532C86.9677 103.552 89.7282 97.4089 87.0958 93.314C86.7688 92.6278 86.0227 92.6805 86.1213 93.5341C86.124 94.5292 86.066 95.5233 86.2042 96.5193C86.393 97.8741 86.3451 99.2428 86.252 100.601C86.2198 101.078 86.2705 101.704 85.5502 101.829Z" fill="#F47224"/>
<path d="M111.554 107.44C112.387 107.751 113.279 107.455 114.134 107.673C114.782 107.931 115.47 107.665 116.124 107.83C116.813 108.153 117.585 107.872 118.307 108.015C118.436 108.04 118.563 108.065 118.692 108.09C119.069 108.318 119.519 108.044 119.897 108.266C121.055 108.876 121.256 109.708 120.36 110.603C110.09 120.453 116.814 115.889 105.677 116.551C105.053 116.584 104.5 116.963 103.961 117.288C102.495 118.54 100.947 118.605 102.521 116.444C103.447 115.217 102.899 115.335 101.79 115.627C95.2532 117.101 98.9091 115.143 101.59 112.593C103.157 111.176 104.75 109.785 106.332 108.383C106.804 107.965 107.3 107.585 107.936 107.445C108.452 107.389 108.964 107.235 109.489 107.373C110.176 107.43 110.876 107.299 111.554 107.44Z" fill="#F7F7F4"/>
<path d="M98.0125 115.855C99.1969 115.804 100.328 115.37 101.519 115.374C101.933 115.447 102.114 115.849 102.427 116.085C103.485 116.76 101.96 117.22 101.99 118.07C101.705 119.015 99.8838 119.047 99.0602 119.363C94.0667 120.606 88.8606 120.047 83.9075 121.522C81.8138 122.015 79.7019 122.33 77.5313 122.266C75.025 122.191 74.6132 121.865 74.338 119.299C74.2783 119.025 74.4419 118.862 74.6382 118.727C77.5612 116.581 80.5188 114.201 84.2404 113.752C86.6601 113.466 89.0867 113.91 91.5209 113.866C92.2175 113.813 93.0671 114.523 92.7447 115.27C92.1117 115.438 91.4815 114.824 90.9215 115.401C91.2986 115.973 92.0828 115.476 92.4686 116.004C92.1617 116.866 92.2079 116.979 93.0141 116.83C94.2688 116.598 95.5561 116.615 96.7925 116.278C97.2283 116.391 97.8268 116.18 98.0125 115.855Z" fill="#ED7655"/>
<path d="M108.504 129.226C107.056 129.67 105.711 130.423 104.194 130.657C103.758 130.483 103.682 130.072 103.607 129.69C103.356 127.743 99.8787 127.067 101.113 124.841C101.067 124.71 100.905 124.835 100.796 124.862C100.385 124.906 100.298 124.55 100.115 124.309C99.9726 123.834 100.317 123.407 100.597 123.061C101.615 122.271 101.875 122.343 102.175 123.551C102.333 124.187 102.663 124.705 103.115 125.157C103.226 125.268 103.346 125.473 103.515 125.37C103.794 125.04 103.397 124.219 103.216 123.881C102.732 122.834 101.79 120.82 103.28 120.171C103.536 120.197 103.693 120.377 103.783 120.578C104.634 122.174 105.318 120.345 106.706 122.017C107.229 122.526 107.731 123.056 108.256 123.563C108.403 123.705 108.559 124.049 108.793 123.827C108.946 123.683 108.764 123.383 108.621 123.202C107.767 122.13 106.755 121.228 105.637 120.442C105.177 120.12 104.667 119.815 104.772 119.114C105.003 118.487 105.42 117.683 106.21 117.785C106.631 118.095 107.165 118.221 107.545 118.6C108.196 119.362 109.063 119.843 109.858 120.418C114.835 123.359 111.653 126.559 108.504 129.226Z" fill="#ED7655"/>
<path d="M100.551 123.636C99.7259 124.175 98.0049 123.917 99.13 122.76C99.4434 122.379 99.7907 122.01 100.22 121.775C102.046 120.776 102.928 119.09 103.58 117.226C104.171 116.405 105.07 116.091 105.977 116.093C107.975 116.098 109.996 115.773 111.96 116.583C112.588 116.841 113.399 116.65 114.126 116.664C113.583 117.267 113.039 117.869 112.496 118.472C111.78 118.994 111.261 118.482 110.765 118.093C109.23 116.732 107.806 117.92 106.099 117.919C105.729 118.354 105.117 118.4 104.686 118.746C104.349 119.03 104.402 119.537 104.151 119.887C103.982 120.121 103.791 120.314 103.467 120.257C102.721 120.629 102.729 121.296 102.868 121.96C103.173 123.723 104.187 123.918 103.944 125.912C103.938 126.145 103.902 126.485 103.578 126.172C102.823 125.44 101.992 124.747 101.816 123.601C101.773 123.324 101.945 122.885 101.626 122.803C101.281 122.714 100.944 122.967 100.792 123.35C100.757 123.484 100.672 123.575 100.551 123.636Z" fill="#FAE3C7"/>
<path d="M107.897 117.43C110.354 115.911 110.679 118.602 112.494 118.473C113.441 119.844 116.477 120.91 114.666 122.798C113.974 123.72 113.349 124.697 112.53 125.52C112.109 125.199 112.193 124.769 112.286 124.341C112.65 122.648 112.294 121.78 110.824 120.934C109.704 120.289 108.61 119.607 107.592 118.809C107.267 118.255 108.23 117.987 107.897 117.43Z" fill="#ED7655"/>
<path d="M72.7498 77.4175C73.278 76.9246 74.0815 76.6873 74.2167 75.8281C75.0509 75.7066 81.8124 88.7844 78.8463 85.1353C77.6174 83.0148 76.2798 80.9725 74.5418 79.2242C73.9439 78.6222 73.1006 78.2667 72.7498 77.4175Z" fill="#FAE3C7"/>
<path d="M107.422 118.599C108.989 119.296 110.428 120.228 111.851 121.166C112.859 121.831 112.84 122.974 112.656 124.047C112.403 125.733 112.817 125.718 111.195 126.703C111.094 126.391 111.216 126.139 111.367 125.865C113.646 121.847 110.253 121.59 107.841 119.314C107.612 119.118 107.353 118.968 107.365 118.617L107.422 118.599Z" fill="#D14C38"/>
<path d="M111.536 67.3599C112.666 67.0697 113.796 67.0707 114.927 67.3599C113.796 67.3599 112.666 67.3599 111.536 67.3599Z" fill="#D14820"/>
<path d="M108.521 129.225C108.653 129.092 108.784 128.959 108.916 128.826C109.005 128.999 109.182 129.031 109.338 129.096C109.089 129.284 108.803 129.245 108.521 129.225Z" fill="#D14C38"/>
<path d="M121.267 68.4027C121.329 68.4275 121.391 68.4533 121.452 68.4781C121.39 68.4522 121.329 68.4275 121.267 68.4027Z" fill="#F1463A"/>
<path d="M112.333 128.495C112.26 128.524 112.187 128.553 112.113 128.582C112.188 128.553 112.26 128.524 112.333 128.495Z" fill="#D14820"/>
<path d="M114.913 128.588C114.843 128.566 114.773 128.543 114.701 128.521C114.773 128.544 114.843 128.566 114.913 128.588Z" fill="#D14820"/>
<path d="M60.4778 20.4575C59.8119 20.4609 59.1449 20.4643 58.4793 20.4688C59.1437 20.1919 59.8108 20.2099 60.4778 20.4575Z" fill="#FAE3C7"/>
<path d="M66.625 18.0585C66.2889 18.1007 65.9596 18.144 65.6269 18.0574C65.9596 17.8259 66.2923 17.843 66.625 18.0585Z" fill="#FAE3C7"/>
<path d="M68.0016 17.8991C67.9664 17.9811 67.9119 18.0221 67.8211 17.9857C67.8813 17.956 67.9415 17.9276 68.0016 17.8991Z" fill="#FAE3C7"/>
<path d="M103.582 117.228C104.002 118.007 103.357 118.582 103.145 119.211C102.466 121.335 99.9737 121.876 98.7969 123.638C97.1412 127.324 88.8042 129.226 84.9745 129.441C82.8728 129.541 80.7065 129.888 78.6406 129.349C76.6075 128.363 73.2277 120.716 74.3668 119.059C75.0291 120.389 74.5676 121.821 76.5515 121.853C82.03 122.271 87.1263 119.758 92.5827 119.837C94.8214 119.778 97.0331 119.417 99.2448 119.085C99.1183 119.755 98.57 119.778 98.0612 119.861C97.901 119.891 97.8199 119.901 98.0188 119.868C98.9977 119.758 99.6956 119.041 100.56 118.685C101.104 118.485 101.615 118.15 102.183 118.044C102.318 118.074 102.311 117.922 102.391 117.882C102.788 117.664 103.185 117.446 103.582 117.228Z" fill="#D14C38"/>
<path d="M61.2689 122.495C60.3512 123.11 59.5495 123.889 58.9181 124.761C56.6333 128.01 53.0933 129.063 49.3592 129.43C48.9669 129.088 48.9303 128.626 48.9415 128.154C48.6982 121.909 49.2784 111.063 45.0577 106.25C44.6435 105.455 44.6526 104.562 44.6301 103.721C44.6477 101.036 44.0739 98.3442 44.1463 95.6839C44.2729 95.3407 44.5549 95.1127 44.7715 95.5088C51.663 103.92 51.343 106.34 51.9056 117.017C52.3353 122.012 58.0482 118.091 58.5559 115.093C58.6965 114.623 58.655 113.864 59.5334 114.014C59.8723 114.279 59.975 114.666 60.0488 115.058C60.3892 117.539 61.2049 120.001 61.2689 122.495Z" fill="#D14820"/>
<path d="M79.3409 129.194C84.5027 129.442 89.6056 128.69 94.4398 126.829C94.9288 127.039 94.9932 127.538 95.1818 127.947C95.9918 129.704 97.0314 131.287 98.5648 132.501C98.6963 132.664 98.7691 132.842 98.715 133.054C90.188 137.158 81.3278 140.635 72.4993 144.038C72.3332 144.093 72.1083 144.284 71.9963 144.047C71.9235 143.894 72.1792 143.809 72.3061 143.714C74.9584 141.64 77.8216 139.826 80.3665 137.628C81.548 137.137 79.717 131.842 79.2858 130.836C79.1132 130.326 78.8519 129.793 79.1636 129.233L79.1701 129.244C79.2103 129.17 79.2672 129.151 79.3409 129.194Z" fill="#64242A"/>
<path d="M45.2094 106.121C49.8876 109.818 49.1078 123.589 49.3606 129.429C47.43 129.831 45.5197 130.291 43.7874 131.288C43.4061 130.828 43.7209 130.352 43.7481 129.88C43.7728 129.457 43.7602 129.032 43.7646 128.608C43.268 127.759 43.7678 126.922 43.8438 126.096C44.0344 124.021 44.2542 121.953 44.3821 119.87C44.6387 115.671 44.8059 111.472 44.7679 107.265C44.7634 106.833 44.7755 106.39 45.2094 106.121Z" fill="#64242A"/>
<path d="M74.3721 119.058C72.9771 118.057 71.6547 117.618 70.0068 118.498C68.081 119.459 66.0705 120.232 64.0368 120.935C63.2953 120.249 63.8175 119.254 63.7278 118.406C63.6509 117.893 63.5732 117.38 64.1205 117.05C72.9814 117.095 79.629 112.63 86.0617 107.074C87.354 108.012 84.1678 113.339 83.2735 114.233C80.6373 114.895 78.4016 116.301 76.3014 117.976C75.7247 118.435 75.218 119.064 74.3721 119.058Z" fill="#FAE3C7"/>
<path d="M63.9655 119.44C63.99 119.938 64.0145 120.435 64.039 120.933C63.1786 121.561 62.2008 121.981 61.2763 122.494C60.911 122.272 60.9355 121.892 60.8598 121.535C60.2149 118.636 60.065 115.575 58.8552 112.892C58.7449 111.479 57.5207 107.516 58.1483 106.562C58.956 106.317 58.8854 107.048 58.9942 107.423C59.8661 110.583 60.6119 113.78 61.4903 116.939C61.7259 117.811 62.1503 118.379 63.1692 118.178C64.106 118.078 63.9265 118.808 63.9655 119.44Z" fill="#64242A"/>
<path d="M79.1757 129.234C79.5261 130.492 80.0942 131.696 80.1073 133.037C79.346 132.016 78.8834 130.838 78.348 129.697C78.3521 129.227 78.813 129.193 79.1757 129.234Z" fill="#D14820"/>
<path d="M78.7969 129.222C78.6421 129.381 78.4864 129.539 78.3299 129.697C77.854 129.308 77.4867 128.845 77.3457 128.23C77.9951 128.317 78.3867 128.783 78.7969 129.222Z" fill="#64242A"/>
<path d="M58.296 106.495C58.4667 109.033 59.1412 111.495 59.389 114.024C59.0476 114.181 59.1147 114.516 59.0459 114.797C58.828 118.166 52.1698 122.738 51.5367 117.374C51.0545 111.09 51.6171 103.8 46.8723 98.917C45.95 98.0093 44.9813 97.1374 44.6225 95.8162C44.4792 95.426 44.3192 95.6607 44.3963 95.9186C45.5465 106.724 45.6268 117.899 43.7649 128.607C39.1676 131.658 33.2303 127.498 29.6 124.621C21.9152 117.452 29.9348 107.044 29.8851 98.4611C30.045 91.3044 35.5812 89.4383 37.932 83.4323C39.33 79.9289 46.5118 68.0474 50.346 68.5483C58.8852 76.675 62.3357 88.6088 63.4303 100.286C63.2762 102.253 61.5228 103.863 59.7387 102.356C58.9299 101.732 58.0814 101.154 57.382 100.396C56.3793 98.9445 58.9167 105.995 58.296 106.495Z" fill="#F47224"/>
<path d="M98.708 133.057C97.9569 132.046 96.9816 131.183 96.7651 129.862C96.4481 128.626 97.0561 126.405 98.6248 127.676C99.0646 127.875 100.47 129.148 100.648 128.174C100.67 127.49 100.117 127.015 100.063 126.353C99.835 125.965 99.7161 124.346 100.268 124.24C100.604 124.297 100.554 124.715 100.822 124.836C100.929 124.893 100.988 124.995 101.008 125.113C100.963 126.119 101.643 126.95 102.355 127.398C103.649 128.167 103.953 129.326 104.196 130.658C103.506 131.255 102.624 131.455 101.818 131.809C100.796 132.258 99.807 132.797 98.708 133.057Z" fill="#D14C38"/>
<path d="M78.9419 47.8647C79.7887 44.9899 80.6729 42.1323 82.5441 39.714C83.4243 39.5055 84.1633 38.8921 85.0919 38.8253C85.5425 38.6755 86.0295 38.715 86.5023 38.7008C86.7523 38.8334 87.0548 38.6643 87.2968 38.8415C90.028 39.3294 90.4434 41.9683 93.6595 41.5037C93.9862 41.4409 94.3108 41.2648 94.6405 41.4045C95.0629 41.608 95.1274 42.026 95.1819 42.4107C95.937 45.6681 94.7111 48.6775 93.8521 51.8195C92.4577 52.2052 90.1349 51.3022 89.6297 53.2215C88.9049 53.6567 88.3997 54.3278 87.9783 55.0476C88.3786 54.4028 88.7869 53.7478 89.4644 53.352C89.8737 53.3075 90.281 53.3004 90.6843 53.186C91.0604 53.0119 91.4858 53.2387 91.8579 53.0362C92.3902 53.0413 92.9245 52.8277 93.4478 52.9745C93.7382 53.3166 93.4498 53.594 93.3228 53.8683C92.1744 55.91 91.5846 57.2289 89.1004 56.3989C88.5883 56.2592 88.5883 56.2592 88.4612 56.6145C88.7395 56.8645 89.0178 57.1146 89.296 57.3656C89.3585 57.4911 89.4362 57.5893 89.5995 57.5397C90.1026 57.9041 90.6944 57.5488 91.2106 57.7948C91.1128 62.8429 87.5357 66.8979 84.13 70.2464C83.6169 69.8891 83.9627 69.1755 84.2923 68.8232C84.7259 68.3161 85.0233 67.731 85.3147 67.1409C85.7431 66.2764 85.6111 66.0233 84.6493 65.7774C83.5302 65.4899 82.407 65.3168 81.2577 65.578C80.8695 65.6245 80.5469 65.25 80.1688 65.412C79.9964 65.5081 79.7615 65.498 79.6315 65.3482C79.7272 67.0214 81.1095 68.2979 81.9614 69.6614C82.0592 70.0491 82.3506 70.214 82.6843 70.3831C83.0069 70.5471 83.4414 70.6837 83.3598 71.2071C82.6339 72.1231 81.8182 72.9259 80.7001 73.349C79.4772 73.5828 77.9488 73.6365 76.991 72.7517C76.8952 72.7345 76.8287 72.5979 76.7581 72.5817C76.6895 71.9298 76.2691 71.4308 76.006 70.8639C72.4309 62.7528 77.0212 58.5226 78.2059 50.9267C78.6192 48.7281 80.4431 48.8283 82.0501 49.7869C82.5653 50.1007 83.024 50.5016 83.5806 50.7475C84.0786 51.0158 84.497 51.4278 85.0888 51.4733C85.1533 51.4946 85.1836 51.5654 85.2441 51.5948C84.4789 49.8608 82.7034 49.0743 81.0218 48.5257C80.4471 48.3769 79.8795 48.1835 79.2897 48.1046C79.1465 48.0641 79.0276 47.9892 78.9419 47.8647Z" fill="#ED7655"/>
<path d="M54.787 52.1848C55.4157 47.7279 58.651 48.1082 58.6725 46.3096C58.6959 45.6862 58.7984 45.0658 58.8667 44.4434C59.2494 44.1111 59.6487 43.8925 60.1339 44.2581C60.1652 45.0697 59.968 45.8774 60.089 46.6909C60.3428 46.8948 59.6848 47.4221 59.7737 47.9142C59.8547 50.8949 63.3478 50.0755 63.1496 54.3294C63.2482 49.7275 59.6321 51.0586 59.7971 47.6417C59.9621 46.637 60.995 46.7674 61.7574 46.932C62.8089 47.0516 63.6143 47.6368 64.2225 48.4347C66.2541 51.0968 66.9423 54.0403 65.8977 57.3013C65.5072 58.5207 64.8287 59.002 63.7471 58.0129C63.4102 57.7062 62.8879 57.6542 62.6263 57.2308C62.5423 56.9161 62.72 56.6201 62.8792 56.3721C62.0093 59.6861 55.3659 54.7784 54.787 52.1848Z" fill="#F7F7F4"/>
<path d="M54.7926 52.1841C56.9077 54.4915 57.8657 56.3295 61.2339 57.1105C61.6554 57.2105 62.0769 57.3365 62.4572 56.997C62.5271 56.9345 62.5932 56.9393 62.6545 57.0114C63.2848 57.4635 64.0742 57.6048 64.6566 58.2079C65.0628 58.6292 65.2381 58.005 65.3569 57.7212C67.1109 53.6432 65.2985 49.0323 61.8383 46.8865C69.0536 47.3386 69.5805 60.0642 62.6593 61.6011C57.2287 63.1852 53.1832 57.0306 54.7926 52.1841Z" fill="#9AA4B4"/>
<path d="M85.9025 23.7105C85.5609 23.6347 85.218 23.5601 84.8752 23.4843C84.4437 23.2348 83.9245 23.5456 83.4841 23.3117C81.7224 23.0455 79.8552 23.2192 78.149 23.4988C77.9005 23.6971 77.571 23.4999 77.3158 23.6704C77.1883 23.6848 77.0618 23.6982 76.9342 23.7116C76.7867 23.8809 76.4494 23.6882 76.3673 23.9176C76.1909 24.0602 75.9269 23.9065 75.7649 24.0981L75.7549 24.0814C73.2178 24.782 70.7749 26.2166 68.6204 27.9208C67.9348 28.0767 67.7751 27.7147 67.8416 27.1266C69.5335 25.6218 71.4449 24.4835 73.5606 23.6859C74.2916 23.3752 75.0593 23.1747 75.8148 22.8918C76.0112 22.6891 76.3052 22.8907 76.5104 22.7247C76.6069 22.7102 76.7023 22.6935 76.7989 22.679C77.0019 22.4964 77.2959 22.7002 77.4956 22.5108C77.5777 22.5064 77.6598 22.5008 77.7407 22.4952C78.0736 22.2569 78.5129 22.542 78.8313 22.2725C79.1597 22.1288 79.5069 22.2268 79.8453 22.1978C81.1 22.2446 82.378 22.1032 83.6194 22.2569C83.99 22.5777 84.5003 22.2223 84.8863 22.5075C85.1515 22.5754 85.4177 22.6445 85.684 22.7124C85.8582 22.8706 86.1233 22.718 86.2919 22.8996C86.4461 23.0811 86.7246 22.9062 86.8744 23.1012C86.9986 23.2092 87.1772 23.1847 87.3059 23.2805C88.3998 23.7116 89.4138 24.2741 90.2691 25.0983C90.4189 25.2075 90.5232 25.3957 90.6851 25.4659C90.785 25.6887 90.8038 25.8713 90.4799 25.8836C89.6878 25.408 88.9412 24.8521 88.0758 24.5046C87.9361 24.2908 87.631 24.4946 87.4945 24.2707C86.9953 24.0502 86.4195 23.9132 85.9025 23.7105Z" fill="#F7F7F4"/>
<path d="M67.8557 27.128C68.0553 27.4518 68.2117 27.8179 68.6345 27.9218C64.4632 31.5835 62.0405 36.5232 60.1258 41.6211C57.2306 47.2322 61.3037 31.237 67.8557 27.128Z" fill="#9AA4B4"/>
<path d="M59.1441 42.867C60.4314 40.531 61.0272 37.8716 62.4463 35.6038C62.6068 35.3672 62.7776 35.2567 62.8692 35.6575C61.6766 38.3417 60.7679 41.123 60.2616 44.0283C59.1112 44.5201 58.7767 44.0562 59.1441 42.867Z" fill="#F7F7F4"/>
<path d="M84.0402 69.7378C84.2589 70.332 83.8021 70.8456 83.3539 71.2076C82.8946 70.6354 81.8747 70.7041 81.7295 69.7742C82.4936 69.3741 83.2652 69.4606 84.0402 69.7378Z" fill="#D14C38"/>
<path d="M90.5049 25.8844C90.5735 25.7445 90.6421 25.6056 90.7107 25.4668C91.6155 26.1205 92.2416 27.0214 92.8742 27.9178C92.9385 27.9528 92.9505 28.0719 92.9102 28.0993C92.9025 28.2097 92.7251 28.1343 92.6761 28.0763C92.063 27.2356 91.2203 26.6223 90.5049 25.8844Z" fill="#F7F7F4"/>
<path d="M59.0308 43.3889C58.9447 44.5432 60.3275 43.7645 60.1806 44.2964L60.1355 44.2571C59.7134 44.319 59.2913 44.38 58.8683 44.4419C58.8526 44.0801 58.7488 43.7045 59.0308 43.3889Z" fill="#9AA4B4"/>
<path d="M61.8264 46.8839C61.8149 46.937 61.813 46.991 61.8216 47.045C61.2358 47.0411 60.6499 47.0363 60.064 47.0324C60.0515 46.477 61.4519 46.7817 61.8264 46.8839Z" fill="#F7F7F4"/>
<path d="M90.6995 25.4683C90.6287 25.4048 90.5567 25.3414 90.487 25.2779C90.6047 25.2888 90.6766 25.3512 90.6995 25.4683Z" fill="#F7F7F4"/>
<path d="M90.4917 25.2779C90.423 25.2187 90.3553 25.1596 90.2866 25.0993C90.4012 25.1059 90.4688 25.1661 90.4917 25.2779Z" fill="#F7F7F4"/>
<path d="M83.3498 114.061C84.1462 111.671 86.1522 109.757 86.06 107.074C86.3812 105.276 85.8319 103.567 85.542 101.829C86.2837 100.163 85.8686 98.4301 85.8238 96.7205C85.7952 95.6254 85.6923 94.5322 85.6386 93.438C85.6144 92.9304 85.6153 92.3752 86.2238 92.2063C86.8286 92.0392 87.1176 92.5378 87.3852 92.9493C89.1532 95.9444 88.7452 99.6464 88.4803 102.979C88.2441 104.417 88.5975 105.735 89.4234 106.948C90.9364 109.17 91.8768 111.641 92.4924 114.247C89.6802 114.541 86.9056 113.719 84.1086 114.106C83.8509 114.173 83.5932 114.233 83.3498 114.061Z" fill="#64242A"/>
<path d="M58.3027 106.499C57.5904 104.195 57.1891 101.813 56.5446 99.4895C56.5187 99.3699 56.5208 99.1663 56.5887 99.1206C56.7186 99.0344 56.8124 99.1866 56.886 99.2953C57.76 100.591 59.1081 101.36 60.2658 102.336C61.0423 102.991 61.982 102.726 62.6163 101.76C62.9245 101.291 63.0559 100.72 63.4376 100.29C64.2907 105.836 64.0338 111.462 64.1233 117.052C64.0525 117.264 64.0749 118.859 63.8187 118.486C61.58 118.629 61.5511 118.637 60.9261 116.358C60.0276 113.078 59.1753 109.786 58.3027 106.499Z" fill="#D14820"/>
<path d="M59.3946 75.299C63.9525 72.3215 62.6197 63.4796 67.8414 73.0844C68.7305 74.5636 69.6308 76.0326 70.812 77.3054C70.9165 77.4172 70.9448 77.6004 71.009 77.75C67.3951 78.5705 62.6565 76.9175 59.3946 75.299Z" fill="#ED7655"/>
<path d="M84.8458 99.7409C84.9129 99.3255 85.1219 99.8134 84.9919 100.015C84.9435 99.9226 84.8942 99.8322 84.8458 99.7409Z" fill="#ED7655"/>
<path d="M80.1374 47.9859C81.8186 48.569 85.2591 49.2839 85.242 51.5128C84.8583 52.4696 83.794 51.0952 83.3047 50.838C83.2228 50.6995 83.0029 50.7568 82.9448 50.5838C82.9106 50.6163 82.7706 50.4825 82.7211 50.4251C82.6583 50.3315 82.3498 50.3162 82.3622 50.1938C82.2051 50.1881 82.1566 49.9988 82.0204 49.9769C81.8862 49.9941 81.8044 49.9128 81.731 49.8172C81.653 49.7283 81.4236 49.7446 81.335 49.6146C81.237 49.4483 80.8514 49.6547 80.7714 49.3604C80.6601 49.3565 80.4268 49.346 80.3269 49.1988C79.5605 48.6923 78.5971 48.8452 77.7299 48.6942C76.5913 48.3902 78.6419 47.9467 78.936 47.8664C79.3368 47.9142 79.7433 47.9037 80.1374 47.9859Z" fill="#121010"/>
<path d="M53.7898 72.3835C53.6135 72.297 53.5346 72.1354 53.4686 71.964C53.8228 71.9285 54.5311 72.5799 53.7898 72.3835Z" fill="#FAE3C7"/>
<path d="M53.7831 72.3849C53.9428 72.3914 54.1861 72.2704 54.1757 72.5131C54.0207 72.7082 53.8465 72.5469 53.7831 72.3849Z" fill="#F7F7F4"/>
<path d="M92.4572 116.004C92.0391 116.024 91.6202 116.06 91.2021 116.06C90.54 116.06 90.1589 115.772 90.2526 115.047C91.0859 114.957 93.4987 114.584 92.4572 116.004Z" fill="#121010"/>
<path d="M102.182 116.302C101.765 116.2 101.647 115.848 101.702 115.441C101.997 115.113 102.958 115.077 103.342 115.296C103.731 115.587 103.137 116.216 102.837 116.35C102.618 116.353 102.396 116.385 102.182 116.302Z" fill="#121010"/>
<path d="M101.906 115.292C101.853 115.4 101.818 115.573 101.661 115.521C101.365 115.311 101.715 115.355 101.906 115.292Z" fill="#ED7655"/>
<path d="M87.6887 116.871C94.0429 117.046 85.3566 117.728 83.6167 117.661C83.4694 117.661 83.2324 117.74 83.1999 117.551C83.0217 117.116 87.2618 116.778 87.6887 116.871Z" fill="#D14C38"/>
<path d="M100.567 118.686C99.4451 120.086 96.4442 120.306 97.7038 119.818C98.2364 119.609 98.8879 119.653 99.2524 119.086C99.6906 118.953 100.129 118.819 100.567 118.686Z" fill="#64242A"/>
<path d="M92.4754 115.043C91.7337 115.044 90.9929 115.045 90.2512 115.047C90.992 114.689 91.7337 114.781 92.4754 115.043Z" fill="#64242A"/>
<path d="M103.975 119.746C103.933 119.568 103.928 119.396 104.056 119.244C104.344 119.131 104.594 118.83 104.951 119.061C104.924 119.481 105.154 119.72 105.493 119.927C106.703 120.743 108.617 122.228 109.22 123.546C109.32 123.908 109.465 124.293 109.068 124.528C108.641 124.781 108.529 124.298 108.303 124.1C107.292 123.211 106.531 122.043 105.322 121.37C104.851 120.847 104.252 120.431 103.975 119.746Z" fill="#D14C38"/>
<path d="M100.26 124.239C100.283 125.827 97.9652 126.983 96.9784 125.625C97.1107 124.881 97.9453 125.023 98.2024 124.229C98.3263 124.136 98.469 123.975 98.6042 123.83C98.5853 123.855 98.8386 123.626 98.7876 123.637C99.3642 123.622 100.709 123.239 100.26 124.239Z" fill="#9AA4B4"/>
<path d="M103.981 119.746C104.703 120.058 105.267 120.503 105.327 121.37C104.344 121.997 103.802 121.671 103.48 120.257C103.647 120.087 103.814 119.916 103.981 119.746Z" fill="#121010"/>
<path d="M107.436 118.598C106.924 118.594 106.386 118.424 106.116 117.918C106.394 117.556 106.854 117.594 107.216 117.42C107.429 117.295 107.684 117.438 107.916 117.429C108.102 117.619 108.565 117.556 108.486 117.978C108.364 118.413 107.774 118.387 107.436 118.598Z" fill="#121010"/>
<path d="M100.833 124.835C100.902 124.53 100.578 124.032 100.871 123.96C101.23 123.873 101.292 124.435 101.487 124.711C101.837 125.155 101.487 125.655 101.009 125.228C100.922 125.195 100.913 124.922 100.813 124.828L100.833 124.835Z" fill="#121010"/>
<path d="M47.4543 69.6263C47.4564 69.7111 47.4141 69.748 47.331 69.7389C47.3726 69.7014 47.4134 69.6639 47.4543 69.6263Z" fill="#D14820"/>
<path d="M97.6513 127.406C96.644 128.667 97.0257 129.923 97.6718 131.175C97.9241 131.665 98.3915 132.045 98.4111 132.652C96.3665 131.275 95.1338 129.136 94.442 126.828C95.2763 125.668 97.5201 125.739 97.6513 127.406Z" fill="#D14820"/>
<path d="M97.634 127.409C97.2685 126.847 96.5972 126.592 96.2459 126.016C96.761 125.221 97.7221 125.862 98.401 126.012C99.0893 125.963 99.7919 125.855 100.332 126.457C100.368 126.587 100.403 126.717 100.438 126.848C99.0022 127.717 100.649 127.611 100.972 128.257C100.543 129.085 100.369 129.152 99.6357 128.7C98.9596 128.284 98.3006 127.84 97.634 127.409Z" fill="#64242A"/>
<path d="M79.343 129.196C79.2885 129.221 79.2315 129.238 79.1721 129.246C79.2071 129.153 79.2616 129.129 79.343 129.196Z" fill="#BF272A"/>
<path d="M56.4041 98.4799L56.4212 98.5347C56.3518 98.528 56.3798 98.5261 56.4041 98.4799Z" fill="#D14820"/>
<path d="M100.986 128.256C100.602 128.277 97.6807 127.263 99.29 127.044C99.6783 126.981 100.065 126.912 100.453 126.846C100.937 127.199 101.039 127.698 100.986 128.256Z" fill="#D14820"/>
<path d="M100.353 126.458C99.6576 126.533 99.0475 126.239 98.4223 126.013C99.0022 125.612 99.6726 125.345 100.174 124.826C100.234 125.37 100.293 125.914 100.353 126.458Z" fill="#F7F7F4"/>
<path d="M84.0431 69.7406C83.2781 70.0774 82.5054 69.9648 81.7319 69.7775C80.8839 68.8377 80.1215 67.8376 79.5995 66.6727C79.3959 66.2199 79.176 65.7568 79.4395 65.2457C79.6303 64.939 79.6363 65.2912 79.9871 65.3943C80.3371 65.1348 80.6614 65.4896 81.002 65.4364C82.3326 64.6546 84.002 65.1683 85.3686 65.6031C86.1258 65.8582 86.125 66.3969 85.7442 67.11C85.247 68.0412 84.7003 68.9218 84.0431 69.7406Z" fill="#BF272A"/>
<path d="M78.7399 54.2259C78.5843 53.8867 78.0411 53.5114 78.2943 53.261C78.5576 52.9994 78.947 53.5142 79.2591 53.7102C80.0223 54.189 80.86 54.4311 81.7208 54.6354C82.1102 54.7278 82.6064 54.6788 82.75 55.2232C81.9012 55.4552 81.011 55.7612 80.1493 55.3924C79.8428 55.1687 79.5242 55.3009 79.4165 54.9136C79.109 55.0606 79.2517 54.6557 79.1808 54.7805L79.2167 54.7445C78.9903 54.7611 79.0667 54.4912 78.9212 54.4302C78.8688 54.3553 78.8089 54.286 78.7399 54.2259Z" fill="#121010"/>
<path d="M86.5409 63.2722C85.3263 64.3301 84.4049 61.8195 83.0032 62.168C82.7491 62.1977 82.4203 61.857 82.4664 61.5906C82.6534 61.27 82.7491 61.9758 83.8437 61.6334C84.3823 61.5452 84.8756 61.6081 85.2863 62.0623C85.4977 62.2947 85.8283 62.4188 86.1041 62.5926C86.2233 62.8363 86.5557 62.942 86.5409 63.2722Z" fill="#D14C38"/>
<path d="M89.4737 53.2145C89.4185 53.9169 87.8245 54.9331 87.9063 55.8311C87.9164 55.9871 88.148 56.2769 87.7858 56.2585C87.5128 56.2446 87.4475 55.9225 87.5284 55.7056C87.9127 54.6728 88.3889 53.7009 89.4737 53.2145Z" fill="#D14C38"/>
<path d="M86.5367 63.271C86.1775 63.1824 85.7888 63.1129 86.1004 62.5914C86.5834 62.5688 87.3763 62.1543 87.7364 62.5975C87.5702 63.2424 87.0327 63.2206 86.5367 63.271Z" fill="#BF272A"/>
<path d="M80.1458 55.3878C81.0267 55.5335 81.8776 55.1984 82.7521 55.2239C83.9051 55.6683 79.871 55.8997 80.1458 55.3878Z" fill="#D14C38"/>
<path d="M87.7435 62.598C86.3029 62.6145 87.8615 61.6796 88.0325 62.2033C88.1045 62.4429 87.9379 62.5379 87.7435 62.598Z" fill="#D14C38"/>
<path d="M79.4394 54.9137C79.7229 55.0068 79.9802 55.1418 80.1619 55.3919C79.8111 55.4001 79.4412 55.4357 79.4394 54.9137Z" fill="#D14C38"/>
<path d="M79.0219 54.6775C79.0666 54.7223 79.1312 54.7479 79.225 54.746C79.2141 54.7031 79.1995 54.6638 79.1813 54.6281C79.1285 54.6464 79.0757 54.6628 79.0219 54.6775Z" fill="#D14C38"/>
<path d="M79.2269 54.7377C79.2961 54.7971 79.3652 54.8556 79.4353 54.915C79.2942 54.9415 79.2269 54.8793 79.2269 54.7377Z" fill="#D14C38"/>
<path d="M59.841 47.656C60.2287 50.9551 63.6779 50.0529 63.2253 54.3635C63.1546 54.537 63.1489 54.5495 63.0973 54.3577C62.9302 49.8727 59.3722 50.7586 59.7102 48.2946C59.7723 48.122 59.6176 47.3847 59.841 47.656Z" fill="#9AA4B4"/>
<path d="M58.8834 48.7423C58.9014 49.3989 58.3557 50.0127 57.6874 50.1253C57.5924 50.1406 57.4745 50.1663 57.464 50.0547C57.4564 49.9802 57.5382 49.859 57.6123 49.8208C58.0886 49.5746 58.2949 49.1546 58.4309 48.6621C58.486 48.4645 58.3548 48.0808 58.6162 48.1047C58.8796 48.1276 58.8577 48.5151 58.8834 48.7423Z" fill="#F7F7F4"/>
<path d="M59.8391 47.6531C59.8008 47.6695 59.7616 47.6848 59.7223 47.6983C59.663 47.3812 59.8066 47.1717 60.0765 47.0333C60.0745 47.2697 60.0688 47.5051 59.8391 47.6531Z" fill="#F7F7F4"/>
<path d="M62.6617 57.0114C62.2289 57.0665 62.6347 56.4188 62.8722 56.4161C62.8731 56.6401 62.865 56.8605 62.6617 57.0114Z" fill="#F7F7F4"/>
<path d="M62.8445 56.4015C62.8336 56.2083 62.8589 56.0233 62.9312 55.8437C63.0974 55.9181 63.0477 56.0596 63.0134 56.1756C62.9935 56.2264 62.8923 56.4214 62.8445 56.4015Z" fill="#F7F7F4"/>
<path d="M63.0964 54.3574C63.1384 54.3684 63.1812 54.3711 63.2241 54.3638C63.3847 55.1442 62.923 55.1259 63.0964 54.3574Z" fill="#F7F7F4"/>
<path d="M56.081 52.2032C56.0866 51.9812 56.1024 51.7619 56.2669 51.5875C56.4536 51.6238 56.2232 52.3879 56.081 52.2032Z" fill="#F7F7F4"/>
<path d="M56.5141 51.2422C56.5122 51.3667 56.4013 51.7569 56.2541 51.5875C56.3156 51.5248 56.4498 51.1327 56.5141 51.2422Z" fill="#F7F7F4"/>
<path d="M56.1267 52.2504C56.0933 52.3229 56.0924 52.479 55.9925 52.4242C55.9055 52.3758 56.0073 52.268 56.0721 52.2039C56.0711 52.2039 56.1267 52.2504 56.1267 52.2504Z" fill="#F7F7F4"/>
<path d="M56.9235 50.6423C56.9216 50.7484 56.8019 51.097 56.683 51.0068C56.6793 50.9006 56.8056 50.5277 56.9235 50.6423Z" fill="#F7F7F4"/>
<path d="M56.4864 51.2047C56.5536 51.1673 56.6562 50.9649 56.7169 51.0427C56.6488 51.0848 56.5489 51.2965 56.4864 51.2047Z" fill="#F7F7F4"/>
<path d="M56.876 50.6115C56.9084 50.5821 56.9227 50.54 56.9599 50.5948C56.9251 50.6289 56.9132 50.6639 56.876 50.6115Z" fill="#F7F7F4"/>
</svg>
